ENDFONT
CHARS 6740
STARTCHAR U_1103
ENCODING 4355
SWIDTH 1000 0
DWIDTH 16 0
BBX 15 15 2 -2
BITMAP
0000
0000
7FF0
8000
8000
8000
8000
8000
8000
7FF0
0000
0000
0000
0000
0000
ENDCHAR
STARTCHAR U_221D
ENCODING 8733
SWIDTH 1000 0
DWIDTH 16 0
BBX 16 7 1 3
BITMAP
3C1E
4221
8140
8080
8140
4221
3C1E
ENDCHAR
STARTCHAR U_221E
ENCODING 8734
SWIDTH 1000 0
DWIDTH 16 0
BBX 15 7 1 3
BITMAP
3838
4444
8282
8102
8282
4444
3838
ENDCHAR
STARTCHAR U_2227
ENCODING 8743
SWIDTH 1000 0
DWIDTH 16 0
BBX 15 16 0 -2
BITMAP
0100
0100
0280
0280
0440
0440
0820
0820
1010
1010
2008
2008
4004
4004
8002
8002
ENDCHAR
STARTCHAR U_2235
ENCODING 8757
SWIDTH 1000 0
DWIDTH 16 0
BBX 12 11 2 0
BITMAP
C030
C030
0000
0000
0000
0000
0000
0000
0000
0600
0600
ENDCHAR
STARTCHAR U_2236
ENCODING 8758
SWIDTH 1000 0
DWIDTH 16 0
BBX 2 9 8 2
BITMAP
C0
C0
00
00
00
00
00
C0
C0
ENDCHAR
STARTCHAR U_2237
ENCODING 8759
SWIDTH 1000 0
DWIDTH 16 0
BBX 9 9 3 2
BITMAP
C180
C180
0000
0000
0000
0000
0000
C180
C180
ENDCHAR
STARTCHAR U_223D
ENCODING 8765
SWIDTH 1000 0
DWIDTH 16 0
BBX 16 6 1 3
BITMAP
383C
4042
8081
8101
4202
3C0C
ENDCHAR
STARTCHAR U_224C
ENCODING 8780
SWIDTH 1000 0
DWIDTH 16 0
BBX 14 12 2 1
BITMAP
0000
2070
4088
8104
8204
4608
3810
0000
FFFC
0000
0000
FFFC
ENDCHAR
STARTCHAR U_2252
ENCODING 8786
SWIDTH 1000 0
DWIDTH 16 0
BBX 12 10 2 1
BITMAP
C000
C000
0000
FFF0
0000
0000
FFF0
0000
0030
0030
ENDCHAR
STARTCHAR U_2288
ENCODING 8840
SWIDTH 1000 0
DWIDTH 16 0
BBX 15 15 1 -2
BITMAP
0080
0080
3FF8
4100
8100
8100
8200
8200
4200
3FF8
0400
0400
FFF8
0800
0800
ENDCHAR
STARTCHAR U_246C
ENCODING 9324
SWIDTH 1000 0
DWIDTH 16 0
BBX 15 16 0 -2
BITMAP
07C0
1830
2008
4BF4
5824
A842
8882
8842
8822
8812
8812
4A14
49E4
2008
1830
07C0
ENDCHAR
STARTCHAR U_246D
ENCODING 9325
SWIDTH 1000 0
DWIDTH 16 0
BBX 15 16 0 -2
BITMAP
07C0
1830
2008
4844
5844
A882
88A2
8922
8922
8A22
8BFA
4824
4824
2008
1830
07C0
ENDCHAR
STARTCHAR U_246E
ENCODING 9326
SWIDTH 1000 0
DWIDTH 16 0
BBX 15 16 0 -2
BITMAP
07C0
1830
2008
49F4
5904
A902
8902
89E2
8812
880A
880A
4A14
49E4
2008
1830
07C0
ENDCHAR
STARTCHAR U_2474
ENCODING 9332
SWIDTH 1000 0
DWIDTH 16 0
BBX 16 14 0 -1
BITMAP
1008
2084
4182
4082
8081
8081
8081
8081
8081
8081
4082
4082
23E4
1008
ENDCHAR
STARTCHAR U_24EE
ENCODING 9454
SWIDTH 1000 0
DWIDTH 16 0
BBX 15 16 0 -2
BITMAP
07C0
0FE0
1FF0
37D8
67BC
F75E
F6DE
F5DE
F40E
F7DE
F7DE
77DC
37D8
1FF0
0FE0
07C0
ENDCHAR
STARTCHAR U_25A7
ENCODING 9639
SWIDTH 1000 0
DWIDTH 16 0
BBX 15 15 0 -2
BITMAP
FFFE
C926
A492
924A
C926
A492
924A
C926
A492
924A
C926
A492
924A
C926
FFFE
ENDCHAR
STARTCHAR U_25E7
ENCODING 9703
SWIDTH 1000 0
DWIDTH 16 0
BBX 15 16 0 -2
BITMAP
0000
FFFE
FF02
FF02
FF02
FF02
FF02
FF02
FF02
FF02
FF02
FF02
FF02
FF02
FF02
FFFE
ENDCHAR
STARTCHAR U_2E80
ENCODING 11904
SWIDTH 1000 0
DWIDTH 16 0
BBX 15 15 3 -2
BITMAP
0000
0000
0000
0000
7000
0C00
0300
0080
E000
1800
0600
0100
0000
0000
0000
ENDCHAR
STARTCHAR U_2E81
ENCODING 11905
SWIDTH 1000 0
DWIDTH 16 0
BBX 15 16 0 -2
BITMAP
0000
007C
1F80
1000
1000
1000
1000
1000
1000
1000
1000
2000
2000
2000
4000
8000
ENDCHAR
STARTCHAR U_2E82
ENCODING 11906
SWIDTH 1000 0
DWIDTH 16 0
BBX 15 15 2 -2
BITMAP
0000
0000
0000
0000
0000
FFE0
0020
0020
0040
0040
0080
0080
0000
0000
0000
ENDCHAR
STARTCHAR U_2E83
ENCODING 11907
SWIDTH 1000 0
DWIDTH 16 0
BBX 15 16 3 -2
BITMAP
0000
8000
8000
8000
8000
8000
8000
8000
8000
8000
8000
8000
8080
8080
8080
7F80
ENDCHAR
STARTCHAR U_2E84
ENCODING 11908
SWIDTH 1000 0
DWIDTH 16 0
BBX 15 16 0 -2
BITMAP
0000
0000
FFE0
0020
0020
0020
0020
0020
0020
0020
0020
0010
0012
000A
0006
0002
ENDCHAR
STARTCHAR U_2E85
ENCODING 11909
SWIDTH 1000 0
DWIDTH 16 0
BBX 15 16 4 -2
BITMAP
0400
0400
0800
1000
1000
3000
5000
9000
1000
1000
1000
1000
1000
1000
1000
1000
ENDCHAR
STARTCHAR U_2E86
ENCODING 11910
SWIDTH 1000 0
DWIDTH 16 0
BBX 15 16 1 -2
BITMAP
0000
1FE0
1020
1020
1020
1020
1020
1020
1020
1020
1020
2020
2020
2020
40A0
8040
ENDCHAR
STARTCHAR U_2E87
ENCODING 11911
SWIDTH 1000 0
DWIDTH 16 0
BBX 15 16 0 -2
BITMAP
0000
1FF0
1010
1010
1010
1010
1010
1010
1010
1010
1010
2008
200A
200A
4006
8002
ENDCHAR
STARTCHAR U_2E88
ENCODING 11912
SWIDTH 1000 0
DWIDTH 16 0
BBX 15 15 2 -2
BITMAP
1000
1000
1FC0
2080
2100
4000
8000
0000
0000
0000
0000
0000
0000
0000
0000
ENDCHAR
STARTCHAR U_2E89
ENCODING 11913
SWIDTH 1000 0
DWIDTH 16 0
BBX 15 16 9 -2
BITMAP
0800
0800
0800
8800
8800
8800
8800
8800
8800
8800
8800
8800
0800
0800
2800
1000
ENDCHAR
STARTCHAR U_2E8A
ENCODING 11914
SWIDTH 1000 0
DWIDTH 16 0
BBX 15 16 5 -2
BITMAP
8000
8000
8000
8000
8000
8000
8000
FE00
8000
8000
8000
8000
8000
8000
8000
8000
ENDCHAR
STARTCHAR U_2E8B
ENCODING 11915
SWIDTH 1000 0
DWIDTH 16 0
BBX 15 16 2 -2
BITMAP
0000
0000
0000
0000
0000
0000
0000
FFC0
8040
8040
8040
8140
8080
8010
8010
7FF0
ENDCHAR
STARTCHAR U_2E8C
ENCODING 11916
SWIDTH 1000 0
DWIDTH 16 0
BBX 15 15 3 -2
BITMAP
0800
8880
4900
0800
0000
0000
0000
0000
0000
0000
0000
0000
0000
0000
0000
ENDCHAR
STARTCHAR U_2E8D
ENCODING 11917
SWIDTH 1000 0
DWIDTH 16 0
BBX 15 15 2 -2
BITMAP
0820
8420
4240
2080
0000
0000
0000
0000
0000
0000
0000
0000
0000
0000
0000
ENDCHAR
STARTCHAR U_2E8E
ENCODING 11918
SWIDTH 1000 0
DWIDTH 16 0
BBX 15 16 0 -2
BITMAP
0000
0000
0000
FFFE
0440
0440
0440
0440
0440
0840
0840
1042
1042
2042
403E
8000
ENDCHAR
STARTCHAR U_2E8F
ENCODING 11919
SWIDTH 1000 0
DWIDTH 16 0
BBX 15 16 1 -2
BITMAP
0440
0420
0810
1008
2004
C844
0840
0840
0840
0840
0840
0840
1044
1044
2044
C03C
ENDCHAR
STARTCHAR U_2E90
ENCODING 11920
SWIDTH 1000 0
DWIDTH 16 0
BBX 15 16 0 -2
BITMAP
0100
0100
0100
0100
0100
FFFE
0240
0240
0240
0440
0440
0840
0842
1042
2042
C03E
ENDCHAR
STARTCHAR U_2E91
ENCODING 11921
SWIDTH 1000 0
DWIDTH 16 0
BBX 15 16 1 -2
BITMAP
0440
0420
0810
1008
2004
CFC4
0840
0840
0840
0840
0840
0840
1044
1044
2044
C03C
ENDCHAR
STARTCHAR U_2E92
ENCODING 11922
SWIDTH 1000 0
DWIDTH 16 0
BBX 15 15 2 -2
BITMAP
0000
0000
FFC0
8040
8040
8040
8040
FFC0
8000
8000
8000
8010
8010
8010
7FF0
ENDCHAR
STARTCHAR U_2E93
ENCODING 11923
SWIDTH 1000 0
DWIDTH 16 0
BBX 15 16 2 -2
BITMAP
0000
0400
0400
0840
1040
2080
4100
7E00
0400
0800
1080
2040
4020
FFF0
0010
0010
ENDCHAR
STARTCHAR U_2E94
ENCODING 11924
SWIDTH 1000 0
DWIDTH 16 0
BBX 15 15 1 -2
BITMAP
0000
0800
0800
0800
0FE0
0840
1040
1040
1040
1080
3F80
0080
0080
0080
FFF8
ENDCHAR
STARTCHAR U_2E95
ENCODING 11925
SWIDTH 1000 0
DWIDTH 16 0
BBX 15 15 2 -2
BITMAP
0000
0000
0000
0000
FFE0
0020
0020
FFE0
0020
0020
0020
FFE0
0020
0000
0000
ENDCHAR
STARTCHAR U_2E96
ENCODING 11926
SWIDTH 1000 0
DWIDTH 16 0
BBX 15 16 0 -2
BITMAP
0800
0800
0800
0800
0C00
4A00
4A00
8800
0800
0800
0800
0800
0800
0800
0800
0800
ENDCHAR
STARTCHAR U_2E97
ENCODING 11927
SWIDTH 1000 0
DWIDTH 16 0
BBX 15 16 1 -2
BITMAP
0000
0000
0000
0000
0000
0400
0400
0440
0520
2490
2448
4428
4420
8400
1400
0800
ENDCHAR
STARTCHAR U_2E98
ENCODING 11928
SWIDTH 1000 0
DWIDTH 16 0
BBX 15 16 3 -2
BITMAP
0800
0800
0800
FE00
0800
0800
0800
0E00
3800
C800
0800
0800
0800
0800
2800
1000
ENDCHAR
STARTCHAR U_2E99
ENCODING 11929
SWIDTH 1000 0
DWIDTH 16 0
BBX 15 16 0 -2
BITMAP
0800
0800
0800
0FFC
1810
2410
4420
8220
0140
0080
0180
0240
0420
0810
1008
E006
ENDCHAR
STARTCHAR U_2E9B
ENCODING 11931
SWIDTH 1000 0
DWIDTH 16 0
BBX 15 16 0 -2
BITMAP
FFFC
0200
2200
2200
4200
4200
8200
FFFC
0200
0300
0300
0500
0902
1102
2102
C0FE
ENDCHAR
STARTCHAR U_2E9C
ENCODING 11932
SWIDTH 1000 0
DWIDTH 16 0
BBX 15 15 0 -2
BITMAP
FFFE
8002
BFFA
8002
BFFA
8002
0000
0000
0000
0000
0000
0000
0000
0000
0000
ENDCHAR
STARTCHAR U_2E9D
ENCODING 11933
SWIDTH 1000 0
DWIDTH 16 0
BBX 15 16 3 -2
BITMAP
0000
FF80
8080
8080
8080
FF80
8080
8080
8080
FF80
8080
8080
8080
8080
8280
8100
ENDCHAR
STARTCHAR U_2E9E
ENCODING 11934
SWIDTH 1000 0
DWIDTH 16 0
BBX 15 16 0 -2
BITMAP
0100
0100
01FC
0100
0900
0900
1FF8
1008
2008
5010
8810
0420
02C0
0300
1C00
E000
ENDCHAR
STARTCHAR U_2E9F
ENCODING 11935
SWIDTH 1000 0
DWIDTH 16 0
BBX 15 16 1 -2
BITMAP
0000
0000
3FF0
2010
2210
2310
2110
2010
FFF8
4010
4210
4310
4110
4010
7FF0
0020
ENDCHAR
STARTCHAR U_2EA0
ENCODING 11936
SWIDTH 1000 0
DWIDTH 16 0
BBX 15 16 2 -2
BITMAP
0000
0000
FFE0
8020
8020
8020
FFE0
8000
8200
FFF0
8200
8100
8080
8040
E038
C010
ENDCHAR
STARTCHAR U_2EA1
ENCODING 11937
SWIDTH 1000 0
DWIDTH 16 0
BBX 15 16 4 -2
BITMAP
4000
2000
1000
0800
8400
4000
2000
1000
0800
0000
0400
0800
1000
2000
4000
8000
ENDCHAR
STARTCHAR U_2EA2
ENCODING 11938
SWIDTH 1000 0
DWIDTH 16 0
BBX 15 16 0 -2
BITMAP
0100
0100
4102
2104
1108
0910
05A0
0140
0140
0520
0920
1110
2108
C104
0102
0700
ENDCHAR
STARTCHAR U_2EA3
ENCODING 11939
SWIDTH 1000 0
DWIDTH 16 0
BBX 15 15 0 -2
BITMAP
0000
0000
0000
0000
0000
0000
0000
2888
4444
8222
0000
0000
0000
0000
0000
ENDCHAR
STARTCHAR U_2EA4
ENCODING 11940
SWIDTH 1000 0
DWIDTH 16 0
BBX 15 15 0 -2
BITMAP
0010
007C
0780
F808
2108
1890
0890
0000
0000
0000
0000
0000
0000
0000
0000
ENDCHAR
STARTCHAR U_2EA5
ENCODING 11941
SWIDTH 1000 0
DWIDTH 16 0
BBX 15 15 1 -2
BITMAP
00F8
3F20
2220
2220
4210
4208
8004
0000
0000
0000
0000
0000
0000
0000
0000
ENDCHAR
STARTCHAR U_2EA6
ENCODING 11942
SWIDTH 1000 0
DWIDTH 16 0
BBX 15 16 4 -2
BITMAP
0400
0400
4400
2400
2400
1400
1400
1400
0400
0400
0C00
3400
C400
0400
0400
0400
ENDCHAR
STARTCHAR U_2EA7
ENCODING 11943
SWIDTH 1000 0
DWIDTH 16 0
BBX 15 15 0 -2
BITMAP
0100
1100
1FF8
2100
0100
FFFE
0000
0000
0000
0000
0000
0000
0000
0000
0000
ENDCHAR
STARTCHAR U_2EA8
ENCODING 11944
SWIDTH 1000 0
DWIDTH 16 0
BBX 15 16 4 -2
BITMAP
4400
2800
1000
2800
4400
8400
0200
0600
0A00
1200
2200
4200
0200
0400
4400
3800
ENDCHAR
STARTCHAR U_2EA9
ENCODING 11945
SWIDTH 1000 0
DWIDTH 16 0
BBX 15 16 4 -2
BITMAP
FE00
1000
1000
1000
1000
1000
1000
FE00
1000
1000
1000
1000
1000
1600
1800
E000
ENDCHAR
STARTCHAR U_2EAA
ENCODING 11946
SWIDTH 1000 0
DWIDTH 16 0
BBX 15 15 0 -2
BITMAP
0000
0000
FC00
0800
1000
1000
1000
5C00
5000
5000
5000
5000
5C00
F000
4000
ENDCHAR
STARTCHAR U_2EAB
ENCODING 11947
SWIDTH 1000 0
DWIDTH 16 0
BBX 15 15 0 -2
BITMAP
0000
0000
0000
0000
0000
FFFE
8442
8442
8442
8442
FFFE
8002
0000
0000
0000
ENDCHAR
STARTCHAR U_2EAC
ENCODING 11948
SWIDTH 1000 0
DWIDTH 6 0
BBX 6 12 0 -1
BITMAP
7C
00
FC
10
54
54
54
54
54
54
94
10
ENDCHAR
STARTCHAR U_2EAD
ENCODING 11949
SWIDTH 1000 0
DWIDTH 16 0
BBX 15 16 4 -2
BITMAP
2000
1000
1000
FE00
0400
0800
1000
3800
5400
9200
1000
1000
1000
1000
1000
1000
ENDCHAR
STARTCHAR U_2EAE
ENCODING 11950
SWIDTH 1000 0
DWIDTH 16 0
BBX 15 15 0 -2
BITMAP
1020
1020
1F3E
2040
2848
4484
8102
0000
0000
0000
0000
0000
0000
0000
0000
ENDCHAR
STARTCHAR U_2EAF
ENCODING 11951
SWIDTH 1000 0
DWIDTH 16 0
BBX 15 16 0 -2
BITMAP
1000
1000
2000
2400
4400
F800
1000
2800
4800
FC00
8400
0000
2800
5400
5400
8000
ENDCHAR
STARTCHAR U_2EB0
ENCODING 11952
SWIDTH 1000 0
DWIDTH 16 0
BBX 15 16 0 -2
BITMAP
0400
0400
0800
1000
2000
4400
F800
0800
1000
2000
4C00
F000
0000
0000
1C00
E000
ENDCHAR
STARTCHAR U_2EB1
ENCODING 11953
SWIDTH 1000 0
DWIDTH 16 0
BBX 15 15 0 -2
BITMAP
0000
0000
FFFE
800A
9C12
8322
80C2
8732
B80A
0000
0000
0000
0000
0000
0000
ENDCHAR
STARTCHAR U_2EB2
ENCODING 11954
SWIDTH 1000 0
DWIDTH 16 0
BBX 15 15 0 -2
BITMAP
0000
0000
0000
FFFE
8442
8442
8442
FFFE
8002
0000
0000
0000
0000
0000
0000
ENDCHAR
STARTCHAR U_2EB3
ENCODING 11955
SWIDTH 1000 0
DWIDTH 16 0
BBX 15 15 0 -2
BITMAP
0000
7FFE
4002
8444
1830
600C
0000
0000
0000
0000
0000
0000
0000
0000
0000
ENDCHAR
STARTCHAR U_2EB4
ENCODING 11956
SWIDTH 1000 0
DWIDTH 16 0
BBX 15 16 0 -2
BITMAP
0000
7FFE
4444
8448
0440
0440
0440
0440
0440
0840
0840
1040
1042
2042
4042
803E
ENDCHAR
STARTCHAR U_2EB5
ENCODING 11957
SWIDTH 1000 0
DWIDTH 16 0
BBX 15 15 2 -2
BITMAP
0000
0000
0000
FFF0
8910
8910
8910
8910
8910
8910
8910
8910
8910
8010
0000
ENDCHAR
STARTCHAR U_2EB6
ENCODING 11958
SWIDTH 1000 0
DWIDTH 16 0
BBX 15 15 0 -2
BITMAP
1010
0820
3FF8
0100
1FF0
0100
0200
FFFE
0400
0800
1000
E000
0000
0000
0000
ENDCHAR
STARTCHAR U_2EB7
ENCODING 11959
SWIDTH 1000 0
DWIDTH 16 0
BBX 15 15 0 -2
BITMAP
0820
0440
7FFC
0100
1FF0
0100
FFFE
0000
0000
0000
0000
0000
0000
0000
0000
ENDCHAR
STARTCHAR U_2EB8
ENCODING 11960
SWIDTH 1000 0
DWIDTH 16 0
BBX 15 16 0 -2
BITMAP
0440
0440
0440
FC7E
0440
0440
0000
FFFE
0100
0100
7FFC
0100
0100
0100
0100
0100
ENDCHAR
STARTCHAR U_2EB9
ENCODING 11961
SWIDTH 1000 0
DWIDTH 16 0
BBX 15 15 0 -2
BITMAP
0200
0200
0208
3FE8
0210
0220
FFFC
0080
0100
0200
0400
1800
E000
0000
0000
ENDCHAR
STARTCHAR U_2EBA
ENCODING 11962
SWIDTH 1000 0
DWIDTH 16 0
BBX 15 16 1 -2
BITMAP
0200
0200
0200
3FF0
0210
0210
FFFC
0210
0210
3FF0
0200
0200
0200
0200
0200
0200
ENDCHAR
STARTCHAR U_2EBB
ENCODING 11963
SWIDTH 1000 0
DWIDTH 16 0
BBX 15 15 0 -2
BITMAP
0100
0100
1FF8
0108
FFFE
0108
1FF8
0100
FFFE
0000
0000
0000
0000
0000
0000
ENDCHAR
STARTCHAR U_2EBC
ENCODING 11964
SWIDTH 1000 0
DWIDTH 16 0
BBX 15 16 1 -2
BITMAP
0FF0
0810
0A10
0910
0890
08D0
0810
0830
0850
0890
0B10
1110
1010
2010
4050
8020
ENDCHAR
STARTCHAR U_2EBD
ENCODING 11965
SWIDTH 1000 0
DWIDTH 16 0
BBX 15 16 1 -2
BITMAP
0400
1800
E0F8
8008
8008
8008
8008
8008
F9F8
8008
8008
8008
8008
8008
F9F8
8008
ENDCHAR
STARTCHAR U_2EBF
ENCODING 11967
SWIDTH 1000 0
DWIDTH 16 0
BBX 15 15 0 -2
BITMAP
0820
0820
FEFE
0820
0820
0000
0000
0000
0000
0000
0000
0000
0000
0000
0000
ENDCHAR
STARTCHAR U_2EC4
ENCODING 11972
SWIDTH 1000 0
DWIDTH 16 0
BBX 15 16 0 -2
BITMAP
0000
0000
FFFE
0480
0480
0480
7FFC
4484
4484
4484
4484
4894
48F4
5004
4004
7FFC
ENDCHAR
STARTCHAR U_2EC7
ENCODING 11975
SWIDTH 1000 0
DWIDTH 16 0
BBX 15 16 1 -2
BITMAP
0800
0800
0FE0
1040
2080
7FF0
A210
2310
2490
2A50
3310
2490
2850
3010
2050
2020
ENDCHAR
STARTCHAR U_2ECA
ENCODING 11978
SWIDTH 1000 0
DWIDTH 16 0
BBX 15 16 0 -2
BITMAP
0000
7F00
4100
4100
4100
7F00
4900
0800
0800
4F00
4800
4800
4800
4F00
F000
4000
ENDCHAR
STARTCHAR U_2ECD
ENCODING 11981
SWIDTH 1000 0
DWIDTH 16 0
BBX 15 16 0 -2
BITMAP
2000
1000
0800
4000
2000
1000
0000
F000
1000
1000
1000
1000
1000
2800
4400
83FE
ENDCHAR
STARTCHAR U_2ECE
ENCODING 11982
SWIDTH 1000 0
DWIDTH 16 0
BBX 15 16 0 -2
BITMAP
0000
2000
1000
0000
0000
F800
0800
1000
2000
7800
0800
0800
1000
1000
2800
C7FE
ENDCHAR
STARTCHAR U_2ECF
ENCODING 11983
SWIDTH 1000 0
DWIDTH 16 0
BBX 15 16 10 -2
BITMAP
0000
F000
9000
A000
A000
C000
A000
9000
9000
9000
D000
A000
8000
8000
8000
8000
ENDCHAR
STARTCHAR U_2ED5
ENCODING 11989
SWIDTH 1000 0
DWIDTH 16 0
BBX 15 16 3 -2
BITMAP
1000
2000
FF80
8080
8080
FF80
8000
FFC0
8040
8040
FFC0
8000
FFC0
8040
8040
FFC0
ENDCHAR
STARTCHAR U_2ED6
ENCODING 11990
SWIDTH 1000 0
DWIDTH 16 0
BBX 15 16 0 -2
BITMAP
F800
8800
9000
9000
A000
9000
9000
8800
8800
8800
8800
F000
8000
8000
8000
8000
ENDCHAR
STARTCHAR U_2ED7
ENCODING 11991
SWIDTH 1000 0
DWIDTH 16 0
BBX 15 15 0 -2
BITMAP
7FFC
0100
FFFE
9112
8D62
0100
1D70
610C
0000
0000
0000
0000
0000
0000
0000
ENDCHAR
STARTCHAR U_2ED8
ENCODING 11992
SWIDTH 1000 0
DWIDTH 16 0
BBX 15 16 0 -2
BITMAP
0200
0200
7FF8
0200
3FF0
0200
FFFC
0000
1FE0
1020
1FE0
1020
1FE0
1020
1020
10C0
ENDCHAR
STARTCHAR U_2ED9
ENCODING 11993
SWIDTH 1000 0
DWIDTH 16 0
BBX 15 16 0 -2
BITMAP
0100
0100
0104
FFFE
0100
0110
3FF8
0100
0104
7FFE
0104
0104
0104
0128
0110
0100
ENDCHAR
STARTCHAR U_2EDE
ENCODING 11998
SWIDTH 1000 0
DWIDTH 16 0
BBX 15 15 0 -2
BITMAP
1000
1000
2800
4400
FE00
4400
7C00
4400
7C00
4000
7C00
4000
4000
7C00
4000
ENDCHAR
STARTCHAR U_2EE1
ENCODING 12001
SWIDTH 1000 0
DWIDTH 16 0
BBX 15 16 0 -2
BITMAP
0888
0888
1110
2220
1110
0888
FFFE
0200
1FF0
1010
1FF0
1010
1FF0
1010
1FF0
1010
ENDCHAR
STARTCHAR U_2EED
ENCODING 12013
SWIDTH 1000 0
DWIDTH 16 0
BBX 15 16 0 -2
BITMAP
0100
0100
01F8
0100
0100
FFFE
0000
2928
2548
2388
3FF8
2388
2548
2928
2108
3FF8
ENDCHAR
STARTCHAR U_2EEF
ENCODING 12015
SWIDTH 1000 0
DWIDTH 16 0
BBX 15 16 0 -2
BITMAP
0200
0100
7FFC
1010
0820
FFFE
0100
1FF0
1110
1FF0
1110
1110
1FF0
1112
0102
00FE
ENDCHAR
STARTCHAR U_2EF2
ENCODING 12018
SWIDTH 1000 0
DWIDTH 16 0
BBX 15 16 0 -2
BITMAP
0400
0FC0
1080
3FF0
D110
1FF0
1110
1FF0
0100
3FF8
2108
3FF8
2108
3FF8
0102
00FE
ENDCHAR
STARTCHAR U_31C0
ENCODING 12736
SWIDTH 1000 0
DWIDTH 16 0
BBX 15 15 2 -2
BITMAP
0000
0000
0000
0000
0100
0600
1800
E000
4000
0000
0000
0000
0000
0000
0000
ENDCHAR
STARTCHAR U_31C1
ENCODING 12737
SWIDTH 1000 0
DWIDTH 16 0
BBX 15 16 5 -2
BITMAP
8000
4000
4000
2000
2000
2000
2000
2000
2000
2000
2000
2000
2000
2000
A000
4000
ENDCHAR
STARTCHAR U_31C2
ENCODING 12738
SWIDTH 1000 0
DWIDTH 16 0
BBX 15 15 3 -2
BITMAP
8000
8000
8000
8000
4000
4000
4000
2000
2000
1000
1000
0800
0480
0280
0100
ENDCHAR
STARTCHAR U_31C3
ENCODING 12739
SWIDTH 1000 0
DWIDTH 16 0
BBX 15 15 0 -2
BITMAP
0000
0000
0000
0000
0000
8000
4000
2000
1804
0602
01FC
0000
0000
0000
0000
ENDCHAR
STARTCHAR U_31C4
ENCODING 12740
SWIDTH 1000 0
DWIDTH 16 0
BBX 15 15 4 -2
BITMAP
0000
8000
8000
8000
8000
8000
8000
8000
8000
8000
8000
8000
8000
FF00
0000
ENDCHAR
STARTCHAR U_31C5
ENCODING 12741
SWIDTH 1000 0
DWIDTH 16 0
BBX 15 15 2 -2
BITMAP
0000
0000
FC00
0400
0400
0400
0400
0400
0400
0400
0400
0400
0400
07C0
0000
ENDCHAR
STARTCHAR U_31C6
ENCODING 12742
SWIDTH 1000 0
DWIDTH 16 0
BBX 15 15 2 -2
BITMAP
0000
0000
0000
FFC0
0040
0040
0040
0040
0040
0040
0040
0040
0040
0140
0080
ENDCHAR
STARTCHAR U_31C7
ENCODING 12743
SWIDTH 1000 0
DWIDTH 16 0
BBX 15 16 2 -2
BITMAP
0000
0000
FFC0
0040
0040
0040
0040
0080
0080
0100
0100
0200
0200
0400
0800
1000
ENDCHAR
STARTCHAR U_31C8
ENCODING 12744
SWIDTH 1000 0
DWIDTH 16 0
BBX 15 16 1 -2
BITMAP
0000
0000
FF00
0100
0100
0100
0100
0100
0100
0100
0100
0100
0104
0104
0104
00F8
ENDCHAR
STARTCHAR U_31C9
ENCODING 12745
SWIDTH 1000 0
DWIDTH 16 0
BBX 15 16 2 -2
BITMAP
0000
8000
8000
8000
8000
8000
8000
FFE0
0020
0020
0020
0020
0040
0040
0280
0100
ENDCHAR
STARTCHAR U_31CA
ENCODING 12746
SWIDTH 1000 0
DWIDTH 16 0
BBX 15 15 2 -2
BITMAP
0000
0000
F800
0800
0800
0800
0800
0800
0800
0900
0A00
0C00
0800
0000
0000
ENDCHAR
STARTCHAR U_31CB
ENCODING 12747
SWIDTH 1000 0
DWIDTH 16 0
BBX 15 16 2 -2
BITMAP
0000
0000
FFF0
0020
0040
0080
01F0
0010
0010
0010
0020
0020
0040
0080
0100
0200
ENDCHAR
STARTCHAR U_31CC
ENCODING 12748
SWIDTH 1000 0
DWIDTH 16 0
BBX 15 15 6 -2
BITMAP
0000
F800
0800
1000
2000
2000
1000
1000
0800
0800
0800
0800
5000
2000
0000
ENDCHAR
STARTCHAR U_31CD
ENCODING 12749
SWIDTH 1000 0
DWIDTH 16 0
BBX 15 15 1 -2
BITMAP
0000
0000
0000
FF00
0100
0100
0100
0100
0100
0100
0080
007C
0000
0000
0000
ENDCHAR
STARTCHAR U_31CE
ENCODING 12750
SWIDTH 1000 0
DWIDTH 16 0
BBX 15 15 2 -2
BITMAP
0000
0000
FE00
0200
0200
0200
0200
03C0
0040
0040
0040
0040
0040
0040
0040
ENDCHAR
STARTCHAR U_31CF
ENCODING 12751
SWIDTH 1000 0
DWIDTH 16 0
BBX 15 16 4 -2
BITMAP
0000
8000
8000
8000
8000
4000
4000
2000
2000
1000
1000
0800
0400
0200
01C0
0080
ENDCHAR
STARTCHAR U_31D0
ENCODING 12752
SWIDTH 1000 0
DWIDTH 16 0
BBX 15 15 1 -2
BITMAP
0000
0000
0000
0000
0000
0000
0000
FFFC
0000
0000
0000
0000
0000
0000
0000
ENDCHAR
STARTCHAR U_31D1
ENCODING 12753
SWIDTH 1000 0
DWIDTH 16 0
BBX 15 15 7 -2
BITMAP
0000
8000
8000
8000
8000
8000
8000
8000
8000
8000
8000
8000
8000
8000
8000
ENDCHAR
STARTCHAR U_31D2
ENCODING 12754
SWIDTH 1000 0
DWIDTH 16 0
BBX 15 15 5 -2
BITMAP
0000
0000
0400
0400
0800
0800
1000
2000
4000
8000
0000
0000
0000
0000
0000
ENDCHAR
STARTCHAR U_31D3
ENCODING 12755
SWIDTH 1000 0
DWIDTH 16 0
BBX 15 15 4 -2
BITMAP
0000
0400
0400
0400
0400
0400
0400
0400
0800
0800
1000
1000
2000
4000
8000
ENDCHAR
STARTCHAR U_31D4
ENCODING 12756
SWIDTH 1000 0
DWIDTH 16 0
BBX 15 15 5 -2
BITMAP
0000
0000
0000
0000
8000
4000
2000
1000
0800
0800
0000
0000
0000
0000
0000
ENDCHAR
STARTCHAR U_31D5
ENCODING 12757
SWIDTH 1000 0
DWIDTH 16 0
BBX 15 15 3 -2
BITMAP
0000
0000
0000
FFC0
0040
0040
0040
0040
0040
0040
0040
0040
0040
0040
0000
ENDCHAR
STARTCHAR U_31D6
ENCODING 12758
SWIDTH 1000 0
DWIDTH 16 0
BBX 15 15 1 -2
BITMAP
0000
0000
0000
FFF8
0010
0020
0000
0000
0000
0000
0000
0000
0000
0000
0000
ENDCHAR
STARTCHAR U_31D7
ENCODING 12759
SWIDTH 1000 0
DWIDTH 16 0
BBX 15 15 3 -2
BITMAP
0000
0000
8000
8000
8000
8000
8000
8000
8000
8000
8000
8000
8000
FFE0
0000
ENDCHAR
STARTCHAR U_31D8
ENCODING 12760
SWIDTH 1000 0
DWIDTH 16 0
BBX 15 15 2 -2
BITMAP
0000
0040
0040
0040
0040
0040
0040
0040
0040
0040
0040
0040
FFC0
0040
0000
ENDCHAR
STARTCHAR U_31D9
ENCODING 12761
SWIDTH 1000 0
DWIDTH 16 0
BBX 15 15 5 -2
BITMAP
0000
8000
8000
8000
8000
8000
8000
8000
8400
8800
9000
A000
C000
8000
0000
ENDCHAR
STARTCHAR U_31DA
ENCODING 12762
SWIDTH 1000 0
DWIDTH 16 0
BBX 15 15 6 -2
BITMAP
0000
2000
2000
2000
2000
2000
2000
2000
2000
2000
2000
2000
2000
A000
4000
ENDCHAR
STARTCHAR U_31DB
ENCODING 12763
SWIDTH 1000 0
DWIDTH 16 0
BBX 15 15 5 -2
BITMAP
0000
0800
0800
1000
1000
2000
4000
8000
4000
2000
1000
0800
0400
0000
0000
ENDCHAR
STARTCHAR U_31DC
ENCODING 12764
SWIDTH 1000 0
DWIDTH 16 0
BBX 15 15 3 -2
BITMAP
0000
0200
0200
0400
0400
0800
0800
1000
2000
4000
FFC0
0000
0000
0000
0000
ENDCHAR
STARTCHAR U_31DD
ENCODING 12765
SWIDTH 1000 0
DWIDTH 16 0
BBX 15 15 2 -2
BITMAP
0000
2000
2000
5000
9000
0800
0800
0400
0400
0200
0100
0080
0040
0038
0010
ENDCHAR
STARTCHAR U_31DE
ENCODING 12766
SWIDTH 1000 0
DWIDTH 16 0
BBX 15 15 2 -2
BITMAP
0000
8000
8000
8000
8000
8000
8000
FFE0
0020
0020
0020
0020
0020
0020
0020
ENDCHAR
STARTCHAR U_31DF
ENCODING 12767
SWIDTH 1000 0
DWIDTH 16 0
BBX 15 15 4 -2
BITMAP
0000
8000
8000
8000
8000
8000
8000
8000
8000
8000
8000
8080
8080
8080
7F80
ENDCHAR
STARTCHAR U_31E0
ENCODING 12768
SWIDTH 1000 0
DWIDTH 16 0
BBX 15 15 1 -2
BITMAP
0000
FFE0
0040
0080
0100
0200
0400
0800
1000
2000
4000
8008
8008
800C
7FF8
ENDCHAR
STARTCHAR U_31E1
ENCODING 12769
SWIDTH 1000 0
DWIDTH 16 0
BBX 15 15 2 -2
BITMAP
0000
0000
FFE0
0040
0040
0080
01F0
0010
0010
0010
0010
0010
0020
00A0
0040
ENDCHAR
STARTCHAR U_31E2
ENCODING 12770
SWIDTH 1000 0
DWIDTH 16 0
BBX 15 15 2 -2
BITMAP
0000
0000
0040
0040
0080
0080
0100
0100
0200
0200
0400
0400
8800
9000
E000
ENDCHAR
STARTCHAR U_31E3
ENCODING 12771
SWIDTH 1000 0
DWIDTH 16 0
BBX 15 15 1 -2
BITMAP
0000
0000
0000
3FE0
4010
8008
8008
8008
8008
8008
4010
3FE0
0000
0000
0000
ENDCHAR
STARTCHAR U_3244
ENCODING 12868
SWIDTH 1000 0
DWIDTH 16 0
BBX 15 15 0 -2
BITMAP
07C0
1830
2008
5EF4
5294
9EF2
9292
9EF2
97D2
9452
57D4
5034
2008
1830
07C0
ENDCHAR
STARTCHAR U_3245
ENCODING 12869
SWIDTH 1000 0
DWIDTH 16 0
BBX 15 15 0 -2
BITMAP
07C0
1830
2888
4884
5094
93FA
A492
B892
8892
9492
6D14
7354
2228
1830
07C0
ENDCHAR
STARTCHAR U_3246
ENCODING 12870
SWIDTH 1000 0
DWIDTH 16 0
BBX 15 15 0 -2
BITMAP
07C0
1830
2208
4124
5FF4
8042
8442
8282
8102
8282
4444
5834
2008
1830
07C0
ENDCHAR
STARTCHAR U_3247
ENCODING 12871
SWIDTH 1000 0
DWIDTH 16 0
BBX 15 15 0 -2
BITMAP
07C0
1830
2848
5EF4
6524
81E2
9E02
8922
87C2
8142
4FE4
4144
27C8
1B30
07C0
ENDCHAR
STARTCHAR U_32D0
ENCODING 13008
SWIDTH 1000 0
DWIDTH 16 0
BBX 15 16 0 -2
BITMAP
0FE0
3018
4004
5FF4
8012
8122
8142
8102
8102
8202
8202
8402
4804
4004
3018
0FE0
ENDCHAR
STARTCHAR U_337C
ENCODING 13180
SWIDTH 1000 0
DWIDTH 16 0
BBX 15 16 0 -2
BITMAP
1E10
0A20
0AE0
EA20
AA2E
B22A
B2FA
B66A
E06A
BE7A
B2BA
B2AA
B2AE
F2A0
12A0
1E20
ENDCHAR
STARTCHAR U_337F
ENCODING 13183
SWIDTH 1000 0
DWIDTH 16 0
BBX 15 16 0 -2
BITMAP
2A0A
2F08
F27E
7F08
A674
AB24
2234
2242
1044
2824
7CE4
824E
7CC4
1064
2444
7C5E
ENDCHAR
STARTCHAR U_3400
ENCODING 13312
SWIDTH 1000 0
DWIDTH 16 0
BBX 15 15 0 -2
BITMAP
0000
0420
0420
0420
0420
0420
7C3E
0420
0420
0420
0420
0420
0420
0420
FFFF
ENDCHAR
STARTCHAR U_3401
ENCODING 13313
SWIDTH 1000 0
DWIDTH 16 0
BBX 16 16 0 -2
BITMAP 
0000
FFFE
0100
0100
3FF8
2108
2108
2108
2288
2248
2428
2828
2008
2008
3FF8
2008
ENDCHAR
STARTCHAR U_3402
ENCODING 13314
SWIDTH 1000 0
DWIDTH 16 0
BBX 16 16 0 -2
BITMAP 
0100
0100
01F8
3F00
0104
0104
00FC
1000
1020
1020
163C
F8E0
1022
1122
161E
1800
ENDCHAR
STARTCHAR U_3403
ENCODING 13315
SWIDTH 1000 0
DWIDTH 16 0
BBX 16 16 0 -2
BITMAP 
0100
0280
0440
0820
1010
2008
4004
FFFE
0100
0100
0100
0100
0100
0100
0100
0100
ENDCHAR
STARTCHAR U_3404
ENCODING 13316
SWIDTH 1000 0
DWIDTH 16 0
BBX 16 16 0 -2
BITMAP 
0100
0100
0100
0100
3FF8
0100
2100
2100
4100
7FFE
0100
0100
0100
0100
0100
0100
ENDCHAR
STARTCHAR U_3405
ENCODING 13317
SWIDTH 1000 0
DWIDTH 16 0
BBX 16 16 0 -2
BITMAP 
0000
0010
0010
2020
1020
0840
0440
0280
0100
0280
0440
0820
1010
2008
4000
0000
ENDCHAR
STARTCHAR U_3406
ENCODING 13318
SWIDTH 1000 0
DWIDTH 16 0
BBX 16 16 0 -2
BITMAP 
0010
00F8
1F00
1000
1FF8
1008
1FF8
1008
1FF8
1000
1FFC
1004
2004
2004
4028
8010
ENDCHAR
STARTCHAR U_3407
ENCODING 13319
SWIDTH 1000 0
DWIDTH 16 0
BBX 16 16 0 -2
BITMAP 
0200
0200
3FE0
0420
0420
0822
3022
C01E
0000
7FF0
0060
0180
0600
1804
2004
1FFC
ENDCHAR
STARTCHAR U_3408
ENCODING 13320
SWIDTH 1000 0
DWIDTH 16 0
BBX 16 16 0 -2
BITMAP 
0600
0100
0280
0440
0820
3018
C006
3FF8
0010
0060
0180
0600
1804
2004
1FFC
0000
ENDCHAR
STARTCHAR U_3409
ENCODING 13321
SWIDTH 1000 0
DWIDTH 16 0
BBX 16 16 0 -2
BITMAP 
0000
7FFC
0100
0100
0100
0100
0100
0500
0200
7FF0
0060
0180
0600
1804
2004
1FFC
ENDCHAR
STARTCHAR U_340A
ENCODING 13322
SWIDTH 1000 0
DWIDTH 16 0
BBX 16 16 0 -2
BITMAP 
0100
0100
0100
FFFE
0100
0100
3FF8
0000
0000
7FF0
0060
0180
0600
1804
2004
1FFC
ENDCHAR
STARTCHAR U_340B
ENCODING 13323
SWIDTH 1000 0
DWIDTH 16 0
BBX 16 16 0 -2
BITMAP 
0100
0100
0100
3FF8
0100
0100
FFFE
0000
0000
7FF0
0060
0180
0600
1804
2004
1FFC
ENDCHAR
STARTCHAR U_340C
ENCODING 13324
SWIDTH 1000 0
DWIDTH 16 0
BBX 16 16 0 -2
BITMAP 
0800
0800
1FFC
2000
4100
8100
1170
1390
1D10
F110
1150
1122
1102
1002
0FFE
0000
ENDCHAR
STARTCHAR U_340D
ENCODING 13325
SWIDTH 1000 0
DWIDTH 16 0
BBX 16 16 0 -2
BITMAP 
00FC
7F00
0208
2108
1110
1020
0000
3FF8
0010
0060
0180
0600
1804
2004
1FFC
0000
ENDCHAR
STARTCHAR U_340E
ENCODING 13326
SWIDTH 1000 0
DWIDTH 16 0
BBX 16 16 0 -2
BITMAP 
0200
0100
7FFC
0820
0440
0380
1C70
E00E
0000
3FF8
0010
0060
0380
1C04
2004
1FFC
ENDCHAR
STARTCHAR U_340F
ENCODING 13327
SWIDTH 1000 0
DWIDTH 16 0
BBX 16 16 0 -2
BITMAP 
0000
3FFC
0100
0100
1FF0
0210
0410
7FFE
0000
7FF0
0060
0180
0600
1804
2004
1FFC
ENDCHAR
STARTCHAR U_3410
ENCODING 13328
SWIDTH 1000 0
DWIDTH 16 0
BBX 16 16 0 -2
BITMAP 
1000
1000
FEFC
2284
4488
2850
1020
2858
C586
0000
7FF0
0060
0380
1C04
2004
1FFC
ENDCHAR
STARTCHAR U_3411
ENCODING 13329
SWIDTH 1000 0
DWIDTH 16 0
BBX 16 16 0 -2
BITMAP 
0800
1FF0
2820
07C0
1830
E18E
0C40
0300
0080
7FF0
0060
0180
0600
1804
2004
1FFC
ENDCHAR
STARTCHAR U_3412
ENCODING 13330
SWIDTH 1000 0
DWIDTH 16 0
BBX 16 16 0 -2
BITMAP 
0000
7FF8
0408
0850
3020
DFF8
1008
1008
1FF8
0000
7FF0
0060
0380
1C04
2004
1FFC
ENDCHAR
STARTCHAR U_3413
ENCODING 13331
SWIDTH 1000 0
DWIDTH 16 0
BBX 16 16 0 -2
BITMAP 
0000
FFFE
0010
1F90
1090
1090
1F90
0050
0020
7FF0
0060
0180
0600
1804
2004
1FFC
ENDCHAR
STARTCHAR U_3414
ENCODING 13332
SWIDTH 1000 0
DWIDTH 16 0
BBX 16 16 0 -2
BITMAP 
0200
0100
FFFE
0000
1FF0
1010
1010
1FF0
0000
7FF0
0060
0180
0600
1804
2004
1FFC
ENDCHAR
STARTCHAR U_3415
ENCODING 13333
SWIDTH 1000 0
DWIDTH 16 0
BBX 16 16 0 -2
BITMAP 
0100
0100
3FF8
2108
2108
3FF8
2108
2108
3FF8
0000
7FF0
0060
0380
1C04
2004
1FFC
ENDCHAR
STARTCHAR U_3416
ENCODING 13334
SWIDTH 1000 0
DWIDTH 16 0
BBX 16 16 0 -2
BITMAP 
0820
0820
0820
FFA0
0820
0820
7F20
0020
0020
7F20
4120
4122
4122
7F22
411E
0000
ENDCHAR
STARTCHAR U_3417
ENCODING 13335
SWIDTH 1000 0
DWIDTH 16 0
BBX 16 16 0 -2
BITMAP 
0208
3FD0
0220
FFFE
0200
0C70
3F84
C804
07FC
0000
7FF0
0060
0380
1C04
2004
1FFC
ENDCHAR
STARTCHAR U_3418
ENCODING 13336
SWIDTH 1000 0
DWIDTH 16 0
BBX 16 16 0 -2
BITMAP 
0100
1110
0920
FFFE
0540
0920
3118
C106
0000
7FF0
0060
0180
0600
1804
2004
1FFC
ENDCHAR
STARTCHAR U_3419
ENCODING 13337
SWIDTH 1000 0
DWIDTH 16 0
BBX 16 16 0 -2
BITMAP 
0000
7FFC
0000
1FF0
1010
1FF0
0820
0440
FFFE
0000
7FF0
0060
0380
1C04
2004
1FFC
ENDCHAR
STARTCHAR U_341A
ENCODING 13338
SWIDTH 1000 0
DWIDTH 16 0
BBX 16 16 0 -2
BITMAP 
7FFC
0200
3FF0
0410
FFFE
0000
1FF0
1010
1FF0
0000
7FF0
0060
0380
1C04
2004
1FFC
ENDCHAR
STARTCHAR U_341B
ENCODING 13339
SWIDTH 1000 0
DWIDTH 16 0
BBX 16 16 0 -2
BITMAP 
0840
0840
17FC
3080
5100
93F8
1508
1108
11F8
0000
7FF0
0060
0380
1C04
2004
1FFC
ENDCHAR
STARTCHAR U_341C
ENCODING 13340
SWIDTH 1000 0
DWIDTH 16 0
BBX 16 16 0 -2
BITMAP 
1040
1440
1240
1040
FEF8
1048
1048
9248
5448
1048
3848
548A
928A
110A
5206
2400
ENDCHAR
STARTCHAR U_341D
ENCODING 13341
SWIDTH 1000 0
DWIDTH 16 0
BBX 16 16 0 -2
BITMAP 
1100
1100
F9F8
1208
19E8
3128
D1E8
1008
5050
2020
7FF0
0060
0380
1C04
2004
1FFC
ENDCHAR
STARTCHAR U_341E
ENCODING 13342
SWIDTH 1000 0
DWIDTH 16 0
BBX 16 16 0 -2
BITMAP 
0820
0820
7FFC
0820
0FE0
0820
0FE0
0820
FFFE
1010
2FE8
4044
8382
0C08
1008
0FF8
ENDCHAR
STARTCHAR U_341F
ENCODING 13343
SWIDTH 1000 0
DWIDTH 16 0
BBX 16 16 0 -2
BITMAP 
0440
0440
7C7C
0440
3C78
0440
7C7C
0440
0440
7FF0
0060
0180
0600
1804
2004
1FFC
ENDCHAR
STARTCHAR U_3420
ENCODING 13344
SWIDTH 1000 0
DWIDTH 16 0
BBX 16 16 0 -2
BITMAP 
07A0
F820
48A0
2520
7F20
0220
07A2
FC22
4422
0C1E
0000
3FF0
01C0
1E04
2004
1FFC
ENDCHAR
STARTCHAR U_3421
ENCODING 13345
SWIDTH 1000 0
DWIDTH 16 0
BBX 16 16 0 -2
BITMAP 
2000
27FC
2040
23F8
FAA8
2AA8
2AA8
2A18
2840
2FFC
28A0
2912
2A0A
4802
47FE
8000
ENDCHAR
STARTCHAR U_3422
ENCODING 13346
SWIDTH 1000 0
DWIDTH 16 0
BBX 16 16 0 -2
BITMAP 
203C
17C0
8244
4928
13F8
E010
27FE
2020
20A0
0040
7FF0
0060
0380
1C04
2004
1FFC
ENDCHAR
STARTCHAR U_3423
ENCODING 13347
SWIDTH 1000 0
DWIDTH 16 0
BBX 16 16 0 -2
BITMAP 
0080
3FFE
2080
2FF8
2080
27F0
2490
27F0
2490
3FFC
2080
2FF8
4060
4380
8404
03FC
ENDCHAR
STARTCHAR U_3424
ENCODING 13348
SWIDTH 1000 0
DWIDTH 16 0
BBX 16 16 0 -2
BITMAP 
2040
23F8
2040
21F0
F910
29F0
2910
29F0
2910
29F0
2910
2BFA
28A2
4912
47FE
8000
ENDCHAR
STARTCHAR U_3425
ENCODING 13349
SWIDTH 1000 0
DWIDTH 16 0
BBX 16 16 0 -2
BITMAP 
1008
29C8
455E
B94A
11CA
7D4A
11CA
5552
3D6A
E384
0000
3FF0
01C0
1E04
2004
1FFC
ENDCHAR
STARTCHAR U_3426
ENCODING 13350
SWIDTH 1000 0
DWIDTH 16 0
BBX 16 16 0 -2
BITMAP 
3BB8
2208
3BB8
2488
FFFE
1050
2788
C106
1FF0
0100
0300
3FF0
01C0
1E04
2004
1FFC
ENDCHAR
STARTCHAR U_3427
ENCODING 13351
SWIDTH 1000 0
DWIDTH 16 0
BBX 16 16 0 -2
BITMAP 
0080
1080
0880
0480
0480
0080
7FFC
0184
0288
0490
0880
3080
C080
0080
0280
0100
ENDCHAR
STARTCHAR U_3428
ENCODING 13352
SWIDTH 1000 0
DWIDTH 16 0
BBX 16 16 0 -2
BITMAP 
0000
7CFC
0404
2828
1010
0808
FEFE
1212
1414
1010
1010
1010
1010
1010
5050
2020
ENDCHAR
STARTCHAR U_3429
ENCODING 13353
SWIDTH 1000 0
DWIDTH 16 0
BBX 16 16 0 -2
BITMAP 
2424
2424
2424
2424
7E7E
2424
2424
2424
FEFE
2424
2424
2424
2424
4444
4444
8484
ENDCHAR
STARTCHAR U_342A
ENCODING 13354
SWIDTH 1000 0
DWIDTH 16 0
BBX 16 16 0 -2
BITMAP 
0200
0100
0100
FFFE
0000
0100
2108
2108
2108
2108
3FF8
0288
0440
0820
3018
C006
ENDCHAR
STARTCHAR U_342B
ENCODING 13355
SWIDTH 1000 0
DWIDTH 16 0
BBX 16 16 0 -2
BITMAP 
0200
0100
0100
FFFE
0000
0820
0440
2288
2108
2288
2448
2828
2008
2008
3FF8
0008
ENDCHAR
STARTCHAR U_342C
ENCODING 13356
SWIDTH 1000 0
DWIDTH 16 0
BBX 16 16 0 -2
BITMAP 
0200
0100
FFFE
0400
0820
1010
3FF8
1008
0000
1110
1110
1110
2110
2112
4112
800E
ENDCHAR
STARTCHAR U_342D
ENCODING 13357
SWIDTH 1000 0
DWIDTH 16 0
BBX 16 16 0 -2
BITMAP 
0200
0100
FFFE
0000
0000
3FF8
2008
2008
27C8
2448
2448
27C8
2008
2008
3FF8
2008
ENDCHAR
STARTCHAR U_342E
ENCODING 13358
SWIDTH 1000 0
DWIDTH 16 0
BBX 16 16 0 -2
BITMAP 
0200
0100
FFFE
1010
2448
4444
1FF0
0440
1FF0
0440
7FFC
0490
0C60
3518
C606
0400
ENDCHAR
STARTCHAR U_342F
ENCODING 13359
SWIDTH 1000 0
DWIDTH 16 0
BBX 16 16 0 -2
BITMAP 
0100
7FFC
0820
1FF0
1010
1FF0
0000
1FE0
0100
7FFC
0920
3FF8
C826
0FE0
0820
0FE0
ENDCHAR
STARTCHAR U_3430
ENCODING 13360
SWIDTH 1000 0
DWIDTH 16 0
BBX 16 16 0 -2
BITMAP 
0800
09FC
0904
1104
1104
3104
3104
5104
9104
1104
1104
1104
1104
11FC
1104
1000
ENDCHAR
STARTCHAR U_3431
ENCODING 13361
SWIDTH 1000 0
DWIDTH 16 0
BBX 16 16 0 -2
BITMAP 
0100
0100
0280
0440
0820
1050
2188
C606
3820
00C0
0700
3818
0060
0380
7C00
0000
ENDCHAR
STARTCHAR U_3432
ENCODING 13362
SWIDTH 1000 0
DWIDTH 16 0
BBX 16 16 0 -2
BITMAP 
0840
0840
0840
1040
1040
37FE
3040
5040
9040
10A0
10A0
1090
1110
1108
1204
1402
ENDCHAR
STARTCHAR U_3433
ENCODING 13363
SWIDTH 1000 0
DWIDTH 16 0
BBX 16 16 0 -2
BITMAP 
0800
0800
0BFC
1090
1090
3090
3090
5090
9090
1090
1090
1092
1112
1112
120E
1400
ENDCHAR
STARTCHAR U_3434
ENCODING 13364
SWIDTH 1000 0
DWIDTH 16 0
BBX 16 16 0 -2
BITMAP 
0880
0880
0880
10FC
1104
3104
3284
5448
9028
1010
1010
1020
1040
1080
1100
1600
ENDCHAR
STARTCHAR U_3435
ENCODING 13365
SWIDTH 1000 0
DWIDTH 16 0
BBX 16 16 0 -2
BITMAP 
0800
0BFC
0840
1040
1040
3040
3FFE
5040
9040
1040
1040
1040
1040
1040
1140
1080
ENDCHAR
STARTCHAR U_3436
ENCODING 13366
SWIDTH 1000 0
DWIDTH 16 0
BBX 16 16 0 -2
BITMAP 
0800
0800
0BFC
1204
1204
3204
3204
53FC
9204
1200
1200
1202
1202
1202
11FE
1000
ENDCHAR
STARTCHAR U_3437
ENCODING 13367
SWIDTH 1000 0
DWIDTH 16 0
BBX 16 16 0 -2
BITMAP 
0800
0FF0
0810
1010
1210
3210
3210
53FC
9004
1004
1004
17F4
1004
1004
1028
1010
ENDCHAR
STARTCHAR U_3438
ENCODING 13368
SWIDTH 1000 0
DWIDTH 16 0
BBX 16 16 0 -2
BITMAP 
0880
0880
0880
10FC
1104
3108
3240
5440
9040
10A0
10A0
1090
1110
1108
1204
1402
ENDCHAR
STARTCHAR U_3439
ENCODING 13369
SWIDTH 1000 0
DWIDTH 16 0
BBX 16 16 0 -2
BITMAP 
0900
0900
09FC
1200
1400
31F8
3000
5000
93F8
1008
1008
1008
100A
100A
1006
1002
ENDCHAR
STARTCHAR U_343A
ENCODING 13370
SWIDTH 1000 0
DWIDTH 16 0
BBX 16 16 0 -2
BITMAP 
1120
1120
1120
2220
2220
6620
6620
AA20
2220
2250
2250
2250
2248
2288
2284
2302
ENDCHAR
STARTCHAR U_343B
ENCODING 13371
SWIDTH 1000 0
DWIDTH 16 0
BBX 16 16 0 -2
BITMAP 
0820
0820
0820
1020
13FE
3222
3222
5222
9252
124A
128A
1302
1202
1202
120A
1204
ENDCHAR
STARTCHAR U_343C
ENCODING 13372
SWIDTH 1000 0
DWIDTH 16 0
BBX 16 16 0 -2
BITMAP 
0808
0868
0B88
1088
1088
3088
3088
53FE
9088
1088
1088
1088
1108
1108
1208
1408
ENDCHAR
STARTCHAR U_343D
ENCODING 13373
SWIDTH 1000 0
DWIDTH 16 0
BBX 16 16 0 -2
BITMAP 
0800
0BF8
0A08
1208
1328
32A8
32A8
5248
9248
12A8
12A8
132A
140A
140A
1806
1002
ENDCHAR
STARTCHAR U_343E
ENCODING 13374
SWIDTH 1000 0
DWIDTH 16 0
BBX 16 16 0 -2
BITMAP 
0800
0800
0BF8
1000
1000
3000
37FC
5120
9120
1120
1120
1120
1222
1222
141E
1800
ENDCHAR
STARTCHAR U_343F
ENCODING 13375
SWIDTH 1000 0
DWIDTH 16 0
BBX 16 16 0 -2
BITMAP 
0810
0878
0BC0
1040
1040
33F8
3040
5040
9040
17FE
1040
1040
1040
1040
1140
1080
ENDCHAR
STARTCHAR U_3440
ENCODING 13376
SWIDTH 1000 0
DWIDTH 16 0
BBX 16 16 0 -2
BITMAP 
0840
0840
0840
1040
17FE
3040
3040
50A0
90A0
10A0
1110
1110
1288
1248
1444
1802
ENDCHAR
STARTCHAR U_3441
ENCODING 13377
SWIDTH 1000 0
DWIDTH 16 0
BBX 16 16 0 -2
BITMAP 
0840
0840
0A48
1248
1248
3248
33F8
5048
9040
1040
1444
1444
1444
1444
17FC
1004
ENDCHAR
STARTCHAR U_3442
ENCODING 13378
SWIDTH 1000 0
DWIDTH 16 0
BBX 16 16 0 -2
BITMAP 
1000
17FC
1040
2040
2040
67FC
6444
A444
24A4
2494
2514
2604
2404
2404
2414
2408
ENDCHAR
STARTCHAR U_3443
ENCODING 13379
SWIDTH 1000 0
DWIDTH 16 0
BBX 16 16 0 -2
BITMAP 
1220
1220
1220
2420
257C
6924
6E24
A224
2424
2424
2924
2F24
2144
2044
2094
2108
ENDCHAR
STARTCHAR U_3444
ENCODING 13380
SWIDTH 1000 0
DWIDTH 16 0
BBX 16 16 0 -2
BITMAP 
0800
09F8
0908
1148
1128
3128
37FE
5208
9248
1228
1228
13FE
1008
1008
1050
1020
ENDCHAR
STARTCHAR U_3445
ENCODING 13381
SWIDTH 1000 0
DWIDTH 16 0
BBX 16 16 0 -2
BITMAP 
0900
0900
0900
11FE
1240
3240
3440
5040
907C
1040
1040
1040
1040
1040
17FE
1000
ENDCHAR
STARTCHAR U_3446
ENCODING 13382
SWIDTH 1000 0
DWIDTH 16 0
BBX 16 16 0 -2
BITMAP 
0800
0BFC
0A04
1204
1204
3204
33FC
5090
9090
1090
1090
1112
1112
1212
140E
1800
ENDCHAR
STARTCHAR U_3447
ENCODING 13383
SWIDTH 1000 0
DWIDTH 16 0
BBX 16 16 0 -2
BITMAP 
0880
0880
08F8
1108
1210
3420
33FC
5004
9004
1004
11FC
1004
1004
1004
13FC
1004
ENDCHAR
STARTCHAR U_3448
ENCODING 13384
SWIDTH 1000 0
DWIDTH 16 0
BBX 16 16 0 -2
BITMAP 
0840
0840
0840
17FE
1080
3120
3120
5220
93FC
1020
1128
1124
1222
1422
10A0
1040
ENDCHAR
STARTCHAR U_3449
ENCODING 13385
SWIDTH 1000 0
DWIDTH 16 0
BBX 16 16 0 -2
BITMAP 
1000
17F8
1408
2408
27F8
6488
6488
A4E8
2528
2528
26A8
244A
244A
288A
2906
3202
ENDCHAR
STARTCHAR U_344A
ENCODING 13386
SWIDTH 1000 0
DWIDTH 16 0
BBX 16 16 0 -2
BITMAP 
0840
0820
0820
17FE
1090
3090
3090
5294
9292
1292
1492
1090
1110
1110
1250
1420
ENDCHAR
STARTCHAR U_344B
ENCODING 13387
SWIDTH 1000 0
DWIDTH 16 0
BBX 16 16 0 -2
BITMAP 
10A0
10A0
10A0
20A0
27FC
64A4
64A4
A4A4
24A4
27FC
24A4
24A4
24A4
24A4
27FC
2404
ENDCHAR
STARTCHAR U_344C
ENCODING 13388
SWIDTH 1000 0
DWIDTH 16 0
BBX 16 16 0 -2
BITMAP 
0800
0BFE
0A00
1200
13FC
3220
3220
52F8
9220
1220
1220
13FC
1200
1200
13FE
1000
ENDCHAR
STARTCHAR U_344D
ENCODING 13389
SWIDTH 1000 0
DWIDTH 16 0
BBX 16 16 0 -2
BITMAP 
1040
1040
17FC
2040
2040
63F8
6040
A040
27FE
20E0
2150
2150
2248
2444
2842
2040
ENDCHAR
STARTCHAR U_344E
ENCODING 13390
SWIDTH 1000 0
DWIDTH 16 0
BBX 16 16 0 -2
BITMAP 
1000
1248
1248
2490
2490
6248
6248
A000
2040
2444
2444
2444
2444
2444
27FC
2004
ENDCHAR
STARTCHAR U_344F
ENCODING 13391
SWIDTH 1000 0
DWIDTH 16 0
BBX 16 16 0 -2
BITMAP 
0840
0820
0BFE
1202
1414
3010
3010
53FE
9010
1110
1090
1090
1010
1010
1050
1020
ENDCHAR
STARTCHAR U_3450
ENCODING 13392
SWIDTH 1000 0
DWIDTH 16 0
BBX 16 16 0 -2
BITMAP 
0840
0840
0840
107C
1040
3040
37FE
5000
9040
1040
1250
1248
1444
1844
1140
1080
ENDCHAR
STARTCHAR U_3451
ENCODING 13393
SWIDTH 1000 0
DWIDTH 16 0
BBX 16 16 0 -2
BITMAP 
0840
0840
0880
13FC
1204
3204
3204
53FC
9204
1204
13FC
1204
1204
1204
13FC
1204
ENDCHAR
STARTCHAR U_3452
ENCODING 13394
SWIDTH 1000 0
DWIDTH 16 0
BBX 16 16 0 -2
BITMAP 
0100
0280
0440
0820
3018
CFE6
0100
0100
1FF0
1110
1110
1FF0
0280
0440
1830
E00E
ENDCHAR
STARTCHAR U_3453
ENCODING 13395
SWIDTH 1000 0
DWIDTH 16 0
BBX 16 16 0 -2
BITMAP 
0820
0840
0888
1104
13FE
3042
3040
57FE
9080
10FC
1144
1144
1228
1210
1468
1186
ENDCHAR
STARTCHAR U_3454
ENCODING 13396
SWIDTH 1000 0
DWIDTH 16 0
BBX 16 16 0 -2
BITMAP 
0800
0BFE
0820
1040
11FC
3104
3104
5124
9124
1124
1124
1144
1050
1088
1104
1204
ENDCHAR
STARTCHAR U_3455
ENCODING 13397
SWIDTH 1000 0
DWIDTH 16 0
BBX 16 16 0 -2
BITMAP 
0820
0820
0A22
1222
1222
33FE
3040
5040
90FC
1104
1284
1448
1050
1020
10C0
1700
ENDCHAR
STARTCHAR U_3456
ENCODING 13398
SWIDTH 1000 0
DWIDTH 16 0
BBX 16 16 0 -2
BITMAP 
1110
1110
1110
2210
22FE
6692
6692
AA92
2292
22FE
2292
2210
2210
2210
2210
2210
ENDCHAR
STARTCHAR U_3457
ENCODING 13399
SWIDTH 1000 0
DWIDTH 16 0
BBX 16 16 0 -2
BITMAP 
0880
0900
0BF8
1208
13F8
3208
33FA
520A
920C
17F8
1018
1028
1048
1188
1E28
1010
ENDCHAR
STARTCHAR U_3458
ENCODING 13400
SWIDTH 1000 0
DWIDTH 16 0
BBX 16 16 0 -2
BITMAP 
1014
1012
1010
2FFE
2010
6290
6292
A292
2FD2
2294
2294
2288
228A
249A
2426
2842
ENDCHAR
STARTCHAR U_3459
ENCODING 13401
SWIDTH 1000 0
DWIDTH 16 0
BBX 16 16 0 -2
BITMAP 
1000
1FFE
1480
2490
2490
6790
6490
A490
2490
2790
2490
2492
24D2
2F92
208E
2080
ENDCHAR
STARTCHAR U_345A
ENCODING 13402
SWIDTH 1000 0
DWIDTH 16 0
BBX 16 16 0 -2
BITMAP 
1000
17DE
1252
2252
2254
67D4
6258
A254
2252
2FD2
2252
225A
2254
2450
2550
2890
ENDCHAR
STARTCHAR U_345B
ENCODING 13403
SWIDTH 1000 0
DWIDTH 16 0
BBX 16 16 0 -2
BITMAP 
0840
0840
0FFE
1040
1040
37FC
3444
5444
97FC
1040
10E0
1150
1248
1C46
1040
1040
ENDCHAR
STARTCHAR U_345C
ENCODING 13404
SWIDTH 1000 0
DWIDTH 16 0
BBX 16 16 0 -2
BITMAP 
1208
121C
1260
2240
2FC0
6240
627E
A2C8
2348
2E48
2248
2248
2248
2248
2A88
2508
ENDCHAR
STARTCHAR U_345D
ENCODING 13405
SWIDTH 1000 0
DWIDTH 16 0
BBX 16 16 0 -2
BITMAP 
1000
17FC
1040
2040
23F8
6040
6040
A7FC
2110
2110
2FFE
2110
2110
2210
2210
2410
ENDCHAR
STARTCHAR U_345E
ENCODING 13406
SWIDTH 1000 0
DWIDTH 16 0
BBX 16 16 0 -2
BITMAP 
1040
1040
1244
2244
24A8
6110
6208
AC06
2110
2110
2FFE
2110
2110
2210
2210
2410
ENDCHAR
STARTCHAR U_345F
ENCODING 13407
SWIDTH 1000 0
DWIDTH 16 0
BBX 16 16 0 -2
BITMAP 
0808
081C
09E0
1100
1100
31FE
3110
5110
9110
1110
17FE
1000
1090
1108
1204
1402
ENDCHAR
STARTCHAR U_3460
ENCODING 13408
SWIDTH 1000 0
DWIDTH 16 0
BBX 16 16 0 -2
BITMAP 
0880
0AFC
0AA4
12A4
12A8
3290
32A8
50C6
9020
1020
11FC
1020
1020
1020
13FE
1000
ENDCHAR
STARTCHAR U_3461
ENCODING 13409
SWIDTH 1000 0
DWIDTH 16 0
BBX 16 16 0 -2
BITMAP 
1000
17BC
14A4
24A4
24A4
67A4
64A4
A4A4
24A4
27A4
2434
2528
24A0
2560
2620
2020
ENDCHAR
STARTCHAR U_3462
ENCODING 13410
SWIDTH 1000 0
DWIDTH 16 0
BBX 16 16 0 -2
BITMAP 
0900
0900
091E
1392
1112
3112
3112
57D2
9112
1112
121A
1294
17D0
1250
1010
1010
ENDCHAR
STARTCHAR U_3463
ENCODING 13411
SWIDTH 1000 0
DWIDTH 16 0
BBX 16 16 0 -2
BITMAP 
0910
0910
0910
1110
17BC
3110
3110
5338
93B8
1554
1554
1992
1110
1110
1110
1110
ENDCHAR
STARTCHAR U_3464
ENCODING 13412
SWIDTH 1000 0
DWIDTH 16 0
BBX 16 16 0 -2
BITMAP 
1208
1208
1FFE
2208
2208
6000
67FC
A444
2444
2444
27FC
2444
2444
2444
27FC
2404
ENDCHAR
STARTCHAR U_3465
ENCODING 13413
SWIDTH 1000 0
DWIDTH 16 0
BBX 16 16 0 -2
BITMAP 
0800
0BF8
0A08
13F8
1208
33F8
3100
5100
93FC
1494
1894
1124
1244
1484
1128
1210
ENDCHAR
STARTCHAR U_3466
ENCODING 13414
SWIDTH 1000 0
DWIDTH 16 0
BBX 16 16 0 -2
BITMAP 
0840
0820
0BFC
1204
1204
33FC
3200
5228
9224
13FE
1220
1250
1250
1488
1504
1A02
ENDCHAR
STARTCHAR U_3467
ENCODING 13415
SWIDTH 1000 0
DWIDTH 16 0
BBX 16 16 0 -2
BITMAP 
1038
13C0
1040
27FC
20E0
6150
6248
AC46
23F0
2020
2040
27FC
2040
2040
2140
2080
ENDCHAR
STARTCHAR U_3468
ENCODING 13416
SWIDTH 1000 0
DWIDTH 16 0
BBX 16 16 0 -2
BITMAP 
0800
0BF8
0A08
1208
13F8
3100
3100
53F8
9440
1040
1FFE
1040
10A0
1110
1208
1C06
ENDCHAR
STARTCHAR U_3469
ENCODING 13417
SWIDTH 1000 0
DWIDTH 16 0
BBX 16 16 0 -2
BITMAP 
0800
0BFE
0A52
1252
1252
33FE
3020
5040
90FC
1104
1288
1050
1020
1040
1180
1600
ENDCHAR
STARTCHAR U_346A
ENCODING 13418
SWIDTH 1000 0
DWIDTH 16 0
BBX 16 16 0 -2
BITMAP 
0840
0820
0FFE
1108
1090
3060
3198
5606
9108
11F8
1108
11F8
1108
1108
1208
1408
ENDCHAR
STARTCHAR U_346B
ENCODING 13419
SWIDTH 1000 0
DWIDTH 16 0
BBX 16 16 0 -2
BITMAP 
0840
0840
08A0
1110
1288
3446
33F0
5010
90A0
1040
1148
1504
1514
1514
18F0
1000
ENDCHAR
STARTCHAR U_346C
ENCODING 13420
SWIDTH 1000 0
DWIDTH 16 0
BBX 16 16 0 -2
BITMAP 
1210
1210
1210
2210
2F7E
6510
6510
A510
257C
2944
2544
2244
2244
2544
257C
2844
ENDCHAR
STARTCHAR U_346D
ENCODING 13421
SWIDTH 1000 0
DWIDTH 16 0
BBX 16 16 0 -2
BITMAP 
1000
17FC
1444
2444
27FC
6444
6444
A7FC
2000
2000
2FFE
2208
2208
2208
2408
2808
ENDCHAR
STARTCHAR U_346E
ENCODING 13422
SWIDTH 1000 0
DWIDTH 16 0
BBX 16 16 0 -2
BITMAP 
0800
0BFE
0A22
1020
13FE
3020
31FC
5124
91FC
1124
11FC
1020
13FE
1020
1020
1020
ENDCHAR
STARTCHAR U_346F
ENCODING 13423
SWIDTH 1000 0
DWIDTH 16 0
BBX 16 16 0 -2
BITMAP 
0800
0FFE
0840
1080
13FC
3204
3204
53FC
9204
13FC
1204
1204
13FC
1000
1108
1204
ENDCHAR
STARTCHAR U_3470
ENCODING 13424
SWIDTH 1000 0
DWIDTH 16 0
BBX 16 16 0 -2
BITMAP 
0900
09F8
0A08
13F0
1010
37FE
3080
5144
9668
10B0
1128
1668
10A4
1122
16A0
1040
ENDCHAR
STARTCHAR U_3471
ENCODING 13425
SWIDTH 1000 0
DWIDTH 16 0
BBX 16 16 0 -2
BITMAP 
0800
0BF8
0890
1060
17FC
30A4
3128
5220
9460
1040
17FC
10E0
1150
1248
1C46
1040
ENDCHAR
STARTCHAR U_3472
ENCODING 13426
SWIDTH 1000 0
DWIDTH 16 0
BBX 16 16 0 -2
BITMAP 
1040
1040
1FFE
2040
2040
67FC
6514
A4A4
25F4
2444
2444
25F4
2444
2444
2454
2408
ENDCHAR
STARTCHAR U_3473
ENCODING 13427
SWIDTH 1000 0
DWIDTH 16 0
BBX 16 16 0 -2
BITMAP 
0900
0900
0BFE
1442
1252
33F2
3082
5114
9608
13FE
1442
1A52
13F2
1082
1114
1608
ENDCHAR
STARTCHAR U_3474
ENCODING 13428
SWIDTH 1000 0
DWIDTH 16 0
BBX 16 16 0 -2
BITMAP 
0BF8
0808
09F8
1008
13F8
3000
37FC
5444
93F8
1248
1258
1040
13F8
1110
10E0
171E
ENDCHAR
STARTCHAR U_3475
ENCODING 13429
SWIDTH 1000 0
DWIDTH 16 0
BBX 16 16 0 -2
BITMAP 
0820
0810
09FE
1100
1120
3520
333C
5150
9190
1310
15FE
1110
1128
1228
1244
1482
ENDCHAR
STARTCHAR U_3476
ENCODING 13430
SWIDTH 1000 0
DWIDTH 16 0
BBX 16 16 0 -2
BITMAP 
0900
0900
09FC
1200
15F8
3000
33F8
5088
92A8
11C8
17F8
108A
11CA
16AA
1086
1082
ENDCHAR
STARTCHAR U_3477
ENCODING 13431
SWIDTH 1000 0
DWIDTH 16 0
BBX 16 16 0 -2
BITMAP 
1110
1212
1454
27D8
2010
6012
67D2
A44E
2440
27D2
2454
2458
27D0
2452
2552
248E
ENDCHAR
STARTCHAR U_3478
ENCODING 13432
SWIDTH 1000 0
DWIDTH 16 0
BBX 16 16 0 -2
BITMAP 
0840
0840
0FFC
1040
13F8
3208
33F8
5000
9FFE
1008
13E8
1228
13E8
1008
1028
1010
ENDCHAR
STARTCHAR U_3479
ENCODING 13433
SWIDTH 1000 0
DWIDTH 16 0
BBX 16 16 0 -2
BITMAP 
0100
0280
0440
0FE0
3118
DFF6
1110
1FF0
1110
1FF0
0000
0FE0
0820
0FE0
0820
0FE0
ENDCHAR
STARTCHAR U_347A
ENCODING 13434
SWIDTH 1000 0
DWIDTH 16 0
BBX 16 16 0 -2
BITMAP 
08A0
0890
09FE
1320
15FC
3120
31FC
5120
91FE
1100
13FC
1088
109E
1102
120A
1404
ENDCHAR
STARTCHAR U_347B
ENCODING 13435
SWIDTH 1000 0
DWIDTH 16 0
BBX 16 16 0 -2
BITMAP 
1080
1040
17FE
2402
2894
6050
6524
A54A
28FA
2300
2040
2444
2444
2444
27FC
2004
ENDCHAR
STARTCHAR U_347C
ENCODING 13436
SWIDTH 1000 0
DWIDTH 16 0
BBX 16 16 0 -2
BITMAP 
1010
1010
103C
2FA4
2AC4
6AA8
6A90
AFA8
2AC6
2A80
2ABC
2AA4
2FA4
28A4
203C
2024
ENDCHAR
STARTCHAR U_347D
ENCODING 13437
SWIDTH 1000 0
DWIDTH 16 0
BBX 16 16 0 -2
BITMAP 
1040
1444
1248
2FFE
2802
63F8
6208
A208
23F8
2040
2040
27FC
2040
2040
2FFE
2000
ENDCHAR
STARTCHAR U_347E
ENCODING 13438
SWIDTH 1000 0
DWIDTH 16 0
BBX 16 16 0 -2
BITMAP 
0840
08FC
0908
1650
1120
30C0
3320
5FFE
9000
13FC
1000
13FC
1000
13FC
1204
13FC
ENDCHAR
STARTCHAR U_347F
ENCODING 13439
SWIDTH 1000 0
DWIDTH 16 0
BBX 16 16 0 -2
BITMAP 
1248
1490
1248
2000
23F8
6248
63F8
A248
23F8
2040
27FC
20E0
2150
2248
2C46
2040
ENDCHAR
STARTCHAR U_3480
ENCODING 13440
SWIDTH 1000 0
DWIDTH 16 0
BBX 16 16 0 -2
BITMAP 
1080
1040
17FC
2110
20A0
67FC
6444
A5F4
2444
25F4
2514
2514
25F4
2404
2414
2408
ENDCHAR
STARTCHAR U_3481
ENCODING 13441
SWIDTH 1000 0
DWIDTH 16 0
BBX 16 16 0 -2
BITMAP 
1000
17FC
1444
2444
25F4
6444
67FC
A514
24A4
25F4
2444
27FC
2444
2444
27FC
2404
ENDCHAR
STARTCHAR U_3482
ENCODING 13442
SWIDTH 1000 0
DWIDTH 16 0
BBX 16 16 0 -2
BITMAP 
0908
0908
0FFE
1108
1044
33F4
3048
5050
97FE
1080
11FC
1304
15FC
1904
11FC
1104
ENDCHAR
STARTCHAR U_3483
ENCODING 13443
SWIDTH 1000 0
DWIDTH 16 0
BBX 16 16 0 -2
BITMAP 
0814
0BFE
0810
13D0
1010
33D0
3010
53D0
9250
13D0
1250
13C8
124A
13CA
1186
1242
ENDCHAR
STARTCHAR U_3484
ENCODING 13444
SWIDTH 1000 0
DWIDTH 16 0
BBX 16 16 0 -2
BITMAP 
0910
0914
09D2
1250
127E
3550
3090
52A8
9128
1144
1244
1482
1008
12A4
1252
1452
ENDCHAR
STARTCHAR U_3485
ENCODING 13445
SWIDTH 1000 0
DWIDTH 16 0
BBX 16 16 0 -2
BITMAP 
0820
0BFE
0840
10F8
1348
3030
33D0
503C
91C4
1048
1030
13C4
10A8
1190
16A8
10C6
ENDCHAR
STARTCHAR U_3486
ENCODING 13446
SWIDTH 1000 0
DWIDTH 16 0
BBX 16 16 0 -2
BITMAP 
0840
08A0
0918
16E6
1000
33F8
3208
53F8
9000
17BC
1084
14A4
1294
14A4
1294
1108
ENDCHAR
STARTCHAR U_3487
ENCODING 13447
SWIDTH 1000 0
DWIDTH 16 0
BBX 16 16 0 -2
BITMAP 
1100
1100
13FC
26A8
2AA8
62A8
67FC
A2A8
22A8
22A8
2FFE
2000
22A8
2254
2454
2000
ENDCHAR
STARTCHAR U_3488
ENCODING 13448
SWIDTH 1000 0
DWIDTH 16 0
BBX 16 16 0 -2
BITMAP 
1008
1788
1088
2110
2FDE
6494
64A4
A794
2494
2794
2494
24C8
2788
2C94
20A4
20C2
ENDCHAR
STARTCHAR U_3489
ENCODING 13449
SWIDTH 1000 0
DWIDTH 16 0
BBX 16 16 0 -2
BITMAP 
0840
0A48
0950
17FC
1404
31F0
3110
5110
91F0
1040
17FC
10E0
1150
1248
1446
1040
ENDCHAR
STARTCHAR U_348A
ENCODING 13450
SWIDTH 1000 0
DWIDTH 16 0
BBX 16 16 0 -2
BITMAP 
1000
17BC
1294
26B4
2AD4
64A4
65AC
A840
2108
2108
25A8
252C
2528
25A8
2E7E
2000
ENDCHAR
STARTCHAR U_348B
ENCODING 13451
SWIDTH 1000 0
DWIDTH 16 0
BBX 16 16 0 -2
BITMAP 
1480
1482
149C
2FD0
2490
6790
649E
A794
2494
2494
2FD4
2014
2514
28A4
3024
2044
ENDCHAR
STARTCHAR U_348C
ENCODING 13452
SWIDTH 1000 0
DWIDTH 16 0
BBX 16 16 0 -2
BITMAP 
1110
1554
15B8
2910
22A8
6444
6000
A7FC
2404
29E8
2120
2120
2120
2222
2422
281E
ENDCHAR
STARTCHAR U_348D
ENCODING 13453
SWIDTH 1000 0
DWIDTH 16 0
BBX 16 16 0 -2
BITMAP 
0880
0910
0BF8
1210
14A4
37BC
3080
5110
93E0
1040
1088
17FC
1044
1248
1544
1080
ENDCHAR
STARTCHAR U_348E
ENCODING 13454
SWIDTH 1000 0
DWIDTH 16 0
BBX 16 16 0 -2
BITMAP 
0800
0BF8
0880
17FC
1110
3208
3CA6
50A0
97BC
10A0
13B8
10A0
17BC
10A0
10A0
10A0
ENDCHAR
STARTCHAR U_348F
ENCODING 13455
SWIDTH 1000 0
DWIDTH 16 0
BBX 16 16 0 -2
BITMAP 
0840
0820
0FFE
1492
13FC
3090
33FC
5090
97FE
1108
1204
1462
1010
1180
1060
1010
ENDCHAR
STARTCHAR U_3490
ENCODING 13456
SWIDTH 1000 0
DWIDTH 16 0
BBX 16 16 0 -2
BITMAP 
0910
0910
09DE
12A8
1444
3100
31FC
5204
95F4
1114
11F4
1114
11F4
1114
1028
1010
ENDCHAR
STARTCHAR U_3491
ENCODING 13457
SWIDTH 1000 0
DWIDTH 16 0
BBX 16 16 0 -2
BITMAP 
1000
17FE
1428
2624
257E
6448
64C8
A47E
2648
257E
2448
2448
257E
2640
27FE
2000
ENDCHAR
STARTCHAR U_3492
ENCODING 13458
SWIDTH 1000 0
DWIDTH 16 0
BBX 16 16 0 -2
BITMAP 
10A0
14A4
12A8
20A0
27FC
6110
60A0
A7FC
2040
23F8
2040
27FC
2150
2248
2C46
2040
ENDCHAR
STARTCHAR U_3493
ENCODING 13459
SWIDTH 1000 0
DWIDTH 16 0
BBX 16 16 0 -2
BITMAP 
1010
1410
127C
2010
20FE
6044
6628
A2FE
2210
227C
2210
22FE
2210
2210
25FE
2800
ENDCHAR
STARTCHAR U_3494
ENCODING 13460
SWIDTH 1000 0
DWIDTH 16 0
BBX 16 16 0 -2
BITMAP 
1000
17FC
14A4
24A4
27FC
6200
63FE
A442
2BFA
224A
23FA
2052
207A
278A
2214
2008
ENDCHAR
STARTCHAR U_3495
ENCODING 13461
SWIDTH 1000 0
DWIDTH 16 0
BBX 16 16 0 -2
BITMAP 
1040
1020
17FE
2028
2224
627E
64C8
A748
217E
2248
24C8
2F7E
2148
2248
247E
2840
ENDCHAR
STARTCHAR U_3496
ENCODING 13462
SWIDTH 1000 0
DWIDTH 16 0
BBX 16 16 0 -2
BITMAP 
1110
1110
17FC
2110
23F8
6248
63F8
A248
23F8
2040
27FC
2444
2454
25F4
2414
240C
ENDCHAR
STARTCHAR U_3497
ENCODING 13463
SWIDTH 1000 0
DWIDTH 16 0
BBX 16 16 0 -2
BITMAP 
1110
17FC
1110
21F0
2110
61F0
6110
A7FE
2402
2BFC
2110
23F8
2040
23F8
2040
27FC
ENDCHAR
STARTCHAR U_3498
ENCODING 13464
SWIDTH 1000 0
DWIDTH 16 0
BBX 16 16 0 -2
BITMAP 
1000
17BC
1514
2794
2488
6788
6514
A7A2
2080
2040
27FC
2000
2208
2110
2FFE
2000
ENDCHAR
STARTCHAR U_3499
ENCODING 13465
SWIDTH 1000 0
DWIDTH 16 0
BBX 16 16 0 -2
BITMAP 
1108
1110
123E
22A2
24BE
6F22
613E
A208
24BE
2FAA
20AA
202A
2AAA
2AAE
2808
2008
ENDCHAR
STARTCHAR U_349A
ENCODING 13466
SWIDTH 1000 0
DWIDTH 16 0
BBX 16 16 0 -2
BITMAP 
103E
17C0
1244
2128
23F8
6040
67FC
A000
23F8
2008
23F8
2008
23F8
2544
252A
28FA
ENDCHAR
STARTCHAR U_349B
ENCODING 13467
SWIDTH 1000 0
DWIDTH 16 0
BBX 16 16 0 -2
BITMAP 
1000
17BC
1084
24A4
2294
64A4
6120
A210
27FC
2A20
23FC
2220
23FC
2220
23FE
2200
ENDCHAR
STARTCHAR U_349C
ENCODING 13468
SWIDTH 1000 0
DWIDTH 16 0
BBX 16 16 0 -2
BITMAP 
0940
0A4C
0A64
1244
134C
3264
32A4
53AC
92A4
12A4
17FE
1000
1110
1108
1204
1404
ENDCHAR
STARTCHAR U_349D
ENCODING 13469
SWIDTH 1000 0
DWIDTH 16 0
BBX 16 16 0 -2
BITMAP 
0908
0FFE
0908
1000
13FC
3294
3294
53FC
9028
13FE
1220
1324
12A8
1292
142A
18C6
ENDCHAR
STARTCHAR U_349E
ENCODING 13470
SWIDTH 1000 0
DWIDTH 16 0
BBX 16 16 0 -2
BITMAP 
0820
0A22
0BFE
1090
11FE
3310
35FE
5110
91FE
1110
11FE
1100
13DE
1252
1272
1206
ENDCHAR
STARTCHAR U_349F
ENCODING 13471
SWIDTH 1000 0
DWIDTH 16 0
BBX 16 16 0 -2
BITMAP 
1040
17FE
1000
23FC
2240
63F8
6240
A3F8
2240
23FC
2004
2554
20A8
2310
2D48
2186
ENDCHAR
STARTCHAR U_34A0
ENCODING 13472
SWIDTH 1000 0
DWIDTH 16 0
BBX 16 16 0 -2
BITMAP 
1100
11BC
1524
27A8
2490
6AA8
6146
A2A0
27BC
20A0
23B8
20A0
27BC
20A0
2FFE
2000
ENDCHAR
STARTCHAR U_34A1
ENCODING 13473
SWIDTH 1000 0
DWIDTH 16 0
BBX 16 16 0 -2
BITMAP 
1182
1E3C
1088
2A90
2522
643C
6788
AA12
223E
2F88
2208
2AAC
2AAA
2BCA
2EA8
2090
ENDCHAR
STARTCHAR U_34A2
ENCODING 13474
SWIDTH 1000 0
DWIDTH 16 0
BBX 16 16 0 -2
BITMAP 
1040
10A0
1110
2208
2DF6
6000
6EEE
AAAA
2EEE
2000
2FFE
2922
2FFE
2922
292A
2804
ENDCHAR
STARTCHAR U_34A3
ENCODING 13475
SWIDTH 1000 0
DWIDTH 16 0
BBX 16 16 0 -2
BITMAP 
1040
1020
17FE
24A8
24FE
6550
677C
A550
257C
2550
257E
2540
28A4
2A8A
328A
2478
ENDCHAR
STARTCHAR U_34A4
ENCODING 13476
SWIDTH 1000 0
DWIDTH 16 0
BBX 16 16 0 -2
BITMAP 
0BFC
0908
09F8
1108
11F8
310E
37F8
5008
97FE
1294
139C
1294
139C
12D6
17BC
1084
ENDCHAR
STARTCHAR U_34A5
ENCODING 13477
SWIDTH 1000 0
DWIDTH 16 0
BBX 16 16 0 -2
BITMAP 
1150
13F8
1554
27FC
2554
67FC
6554
A7FC
2000
27FC
2000
23F8
2208
23F8
2110
2FFE
ENDCHAR
STARTCHAR U_34A6
ENCODING 13478
SWIDTH 1000 0
DWIDTH 16 0
BBX 16 16 0 -2
BITMAP 
17FC
1444
17FC
2444
27FC
6000
6FBE
AAAA
2FBE
2AAA
2FBE
2040
2040
27FC
2040
2FFE
ENDCHAR
STARTCHAR U_34A7
ENCODING 13479
SWIDTH 1000 0
DWIDTH 16 0
BBX 16 16 0 -2
BITMAP 
1418
1214
1F90
253E
2AA8
6DE8
68BE
AFA8
2228
2FBE
2AA8
2AA8
2BA8
28BE
2AA0
2920
ENDCHAR
STARTCHAR U_34A8
ENCODING 13480
SWIDTH 1000 0
DWIDTH 16 0
BBX 16 16 0 -2
BITMAP 
1040
15F6
1912
29B2
2D56
69B2
6912
ADF6
2080
2FFE
2208
25F4
2912
21F0
2104
20FC
ENDCHAR
STARTCHAR U_34A9
ENCODING 13481
SWIDTH 1000 0
DWIDTH 16 0
BBX 16 16 0 -2
BITMAP 
11F0
1210
13E0
2020
27FC
6188
6650
A1A8
2664
21A0
2248
2FBE
2AAA
2FBE
228A
2FBE
ENDCHAR
STARTCHAR U_34AA
ENCODING 13482
SWIDTH 1000 0
DWIDTH 16 0
BBX 16 16 0 -2
BITMAP 
0380
0C60
3EF8
E8A6
3EF8
2288
3EF8
28A0
3EF8
1000
11FC
5CA0
5154
50B8
5D54
E0B2
ENDCHAR
STARTCHAR U_34AB
ENCODING 13483
SWIDTH 1000 0
DWIDTH 16 0
BBX 16 16 0 -2
BITMAP 
0000
0FF8
0800
0800
0FF0
0800
0800
FFFE
0440
0440
0440
0440
0844
0844
1044
603C
ENDCHAR
STARTCHAR U_34AC
ENCODING 13484
SWIDTH 1000 0
DWIDTH 16 0
BBX 16 16 0 -2
BITMAP 
0000
7DFC
0020
0020
0020
FCF8
2820
2820
2820
2820
29FC
2800
2800
4802
47FE
8000
ENDCHAR
STARTCHAR U_34AD
ENCODING 13485
SWIDTH 1000 0
DWIDTH 16 0
BBX 16 16 0 -2
BITMAP 
0000
3E7C
2244
2244
2244
2244
3E7C
1428
1428
1428
1428
144A
254A
268A
4486
8100
ENDCHAR
STARTCHAR U_34AE
ENCODING 13486
SWIDTH 1000 0
DWIDTH 16 0
BBX 16 16 0 -2
BITMAP 
0000
01FE
7820
0040
00A2
0334
FC58
2894
2B34
2852
2892
2B50
2822
4802
47FE
8000
ENDCHAR
STARTCHAR U_34AF
ENCODING 13487
SWIDTH 1000 0
DWIDTH 16 0
BBX 16 16 0 -2
BITMAP 
1088
13FE
9088
5400
59FC
10A8
FCA8
2BFE
28A8
28A8
29FC
2820
2BFE
4C20
4820
8020
ENDCHAR
STARTCHAR U_34B0
ENCODING 13488
SWIDTH 1000 0
DWIDTH 16 0
BBX 16 16 0 -2
BITMAP 
0600
0100
0280
0440
0820
3018
C006
0000
1FF0
0100
0100
0100
0100
0100
7FFC
0000
ENDCHAR
STARTCHAR U_34B1
ENCODING 13489
SWIDTH 1000 0
DWIDTH 16 0
BBX 16 16 0 -2
BITMAP 
0600
0100
0280
0440
0820
3218
C206
07F0
0810
1410
2220
0140
0080
0300
1C00
E000
ENDCHAR
STARTCHAR U_34B2
ENCODING 13490
SWIDTH 1000 0
DWIDTH 16 0
BBX 16 16 0 -2
BITMAP 
0600
0100
0280
0440
0820
3018
DFF6
1010
1010
1010
1FF0
1010
1010
1010
1FF0
1010
ENDCHAR
STARTCHAR U_34B3
ENCODING 13491
SWIDTH 1000 0
DWIDTH 16 0
BBX 16 16 0 -2
BITMAP 
0000
7FFC
4104
4104
4104
5144
4924
4924
5554
638C
4104
4104
4104
4104
4114
4108
ENDCHAR
STARTCHAR U_34B4
ENCODING 13492
SWIDTH 1000 0
DWIDTH 16 0
BBX 16 16 0 -2
BITMAP 
0600
0100
0280
0440
0820
3118
D116
1110
1110
1FF0
0100
2108
2108
2108
3FF8
0008
ENDCHAR
STARTCHAR U_34B5
ENCODING 13493
SWIDTH 1000 0
DWIDTH 16 0
BBX 16 16 0 -2
BITMAP 
0400
0800
3FF8
2008
2008
3FF8
2008
2008
3FF8
0000
0000
0440
0820
1010
2008
4004
ENDCHAR
STARTCHAR U_34B6
ENCODING 13494
SWIDTH 1000 0
DWIDTH 16 0
BBX 16 16 0 -2
BITMAP 
0440
0440
0820
1010
2108
C206
1FF0
1010
1010
1010
1FF0
1010
1010
1010
1FF0
1010
ENDCHAR
STARTCHAR U_34B7
ENCODING 13495
SWIDTH 1000 0
DWIDTH 16 0
BBX 16 16 0 -2
BITMAP 
0000
1FF0
1010
1110
1110
1110
1290
1450
1010
1010
7FFC
0000
0440
0820
1010
2008
ENDCHAR
STARTCHAR U_34B8
ENCODING 13496
SWIDTH 1000 0
DWIDTH 16 0
BBX 16 16 0 -2
BITMAP 
0820
0420
0440
7FFC
0200
0600
1908
6290
04A0
18C0
61A0
0298
0C86
3080
C280
0100
ENDCHAR
STARTCHAR U_34B9
ENCODING 13497
SWIDTH 1000 0
DWIDTH 16 0
BBX 16 16 0 -2
BITMAP 
1010
1010
FEFE
1010
7C7C
4444
7C7C
4444
7C7C
4444
7C7C
4444
FEFE
2828
4444
8282
ENDCHAR
STARTCHAR U_34BA
ENCODING 13498
SWIDTH 1000 0
DWIDTH 16 0
BBX 16 16 0 -2
BITMAP 
0000
7FFC
4004
4824
4444
5FF4
4004
4884
4884
4944
4A24
4804
4FF4
4004
4014
4008
ENDCHAR
STARTCHAR U_34BB
ENCODING 13499
SWIDTH 1000 0
DWIDTH 16 0
BBX 16 16 0 -2
BITMAP 
7FFC
4004
5FF4
4004
5FF4
0000
1FF0
1010
1FF0
1010
1FF0
1010
1FF0
0442
1842
E03E
ENDCHAR
STARTCHAR U_34BC
ENCODING 13500
SWIDTH 1000 0
DWIDTH 16 0
BBX 16 16 0 -2
BITMAP 
0820
0820
FFFE
0820
0820
0FE0
0100
7FFC
4104
5144
4924
5554
638C
4104
4114
4108
ENDCHAR
STARTCHAR U_34BD
ENCODING 13501
SWIDTH 1000 0
DWIDTH 16 0
BBX 16 16 0 -2
BITMAP 
3FF8
2008
2FE8
2008
2FE8
1110
0920
7FFC
0400
FFFE
1010
2FE8
C826
08A0
0848
07F8
ENDCHAR
STARTCHAR U_34BE
ENCODING 13502
SWIDTH 1000 0
DWIDTH 16 0
BBX 16 16 0 -2
BITMAP 
0000
3FF8
2008
2FE8
2008
2FE8
2040
1040
FEFE
2120
3CAC
24F4
27A4
44AC
54A2
887E
ENDCHAR
STARTCHAR U_34BF
ENCODING 13503
SWIDTH 1000 0
DWIDTH 16 0
BBX 16 16 0 -2
BITMAP 
3FF8
2008
2FE8
2008
2FE8
0800
7F28
1424
497E
55C8
7F7E
0848
7F7E
5548
5D7E
4340
ENDCHAR
STARTCHAR U_34C0
ENCODING 13504
SWIDTH 1000 0
DWIDTH 16 0
BBX 16 16 0 -2
BITMAP 
0000
7FFE
4002
8004
0200
0200
0200
0200
0280
0240
0220
0210
0200
0200
0200
0200
ENDCHAR
STARTCHAR U_34C1
ENCODING 13505
SWIDTH 1000 0
DWIDTH 16 0
BBX 16 16 0 -2
BITMAP 
0000
0000
7FFE
4002
8444
0820
1010
0000
0000
0000
0000
0000
0000
0000
0000
0000
ENDCHAR
STARTCHAR U_34C2
ENCODING 13506
SWIDTH 1000 0
DWIDTH 16 0
BBX 16 16 0 -2
BITMAP 
0000
7FFE
4002
8024
3E20
01FE
0044
7E44
14C8
1428
1410
146A
2586
2402
43FE
8000
ENDCHAR
STARTCHAR U_34C3
ENCODING 13507
SWIDTH 1000 0
DWIDTH 16 0
BBX 16 16 0 -2
BITMAP 
0000
7FFE
4002
9004
0800
7F1C
00E0
3E20
0020
3E3E
01E0
3E22
2222
2222
3E1E
2200
ENDCHAR
STARTCHAR U_34C4
ENCODING 13508
SWIDTH 1000 0
DWIDTH 16 0
BBX 16 16 0 -2
BITMAP 
1010
2210
7F10
4210
94FE
F792
0892
3610
C928
30A8
C428
1928
6248
0C4A
308A
C106
ENDCHAR
STARTCHAR U_34C5
ENCODING 13509
SWIDTH 1000 0
DWIDTH 16 0
BBX 16 16 0 -2
BITMAP 
0000
4000
23FE
2020
0020
0820
0820
1020
1020
E020
2020
2020
2020
2020
20A0
0040
ENDCHAR
STARTCHAR U_34C6
ENCODING 13510
SWIDTH 1000 0
DWIDTH 16 0
BBX 16 16 0 -2
BITMAP 
0040
4040
20A0
20A0
0110
0A08
0C06
1110
1120
E140
2180
2100
2104
2104
20FC
0000
ENDCHAR
STARTCHAR U_34C7
ENCODING 13511
SWIDTH 1000 0
DWIDTH 16 0
BBX 16 16 0 -2
BITMAP 
0010
4078
27C0
2040
0040
0840
0840
17FE
1040
E0A0
20A0
2110
2110
2208
2404
0802
ENDCHAR
STARTCHAR U_34C8
ENCODING 13512
SWIDTH 1000 0
DWIDTH 16 0
BBX 16 16 0 -2
BITMAP 
0000
4000
27FE
2040
0040
0880
0880
11F8
1308
E508
2908
2108
2108
2108
21F8
0108
ENDCHAR
STARTCHAR U_34C9
ENCODING 13513
SWIDTH 1000 0
DWIDTH 16 0
BBX 16 16 0 -2
BITMAP 
0010
4078
23C0
2040
0040
07FE
1040
1040
2040
E3F8
2208
2208
2208
2208
23F8
0208
ENDCHAR
STARTCHAR U_34CA
ENCODING 13514
SWIDTH 1000 0
DWIDTH 16 0
BBX 16 16 0 -2
BITMAP 
0000
47FC
2404
2404
05F4
0404
1404
15F4
2514
E514
2514
25F4
2404
2404
2414
0408
ENDCHAR
STARTCHAR U_34CB
ENCODING 13515
SWIDTH 1000 0
DWIDTH 16 0
BBX 16 16 0 -2
BITMAP 
0110
4110
2110
2110
07FC
0110
1110
1110
2110
EFFE
2000
2110
2108
2208
2404
0804
ENDCHAR
STARTCHAR U_34CC
ENCODING 13516
SWIDTH 1000 0
DWIDTH 16 0
BBX 16 16 0 -2
BITMAP 
0040
4040
20A0
2110
0208
0406
13F8
1040
2040
E040
23F8
2040
2040
2040
27FE
0000
ENDCHAR
STARTCHAR U_34CD
ENCODING 13517
SWIDTH 1000 0
DWIDTH 16 0
BBX 16 16 0 -2
BITMAP 
0080
4040
2040
27FE
0080
0110
1208
17FC
2124
E120
2120
2120
2222
2222
241E
0800
ENDCHAR
STARTCHAR U_34CE
ENCODING 13518
SWIDTH 1000 0
DWIDTH 16 0
BBX 16 16 0 -2
BITMAP 
0000
43F8
2008
21F8
0008
0BF8
0800
17FC
1404
E3F0
2110
2110
20A0
2040
21B0
060E
ENDCHAR
STARTCHAR U_34CF
ENCODING 13519
SWIDTH 1000 0
DWIDTH 16 0
BBX 16 16 0 -2
BITMAP 
0000
47FC
2404
24A4
0514
060C
1404
15F4
2514
E514
2514
25F4
2514
2404
2414
0408
ENDCHAR
STARTCHAR U_34D0
ENCODING 13520
SWIDTH 1000 0
DWIDTH 16 0
BBX 16 16 0 -2
BITMAP 
0040
4040
23F8
2040
0040
07FC
1110
1208
2444
E040
23F8
2040
2040
2040
27FC
0000
ENDCHAR
STARTCHAR U_34D1
ENCODING 13521
SWIDTH 1000 0
DWIDTH 16 0
BBX 16 16 0 -2
BITMAP 
0040
4040
27FC
2040
0040
0FFE
1110
10A0
27FC
E040
2040
2FFE
2040
2040
2040
0040
ENDCHAR
STARTCHAR U_34D2
ENCODING 13522
SWIDTH 1000 0
DWIDTH 16 0
BBX 16 16 0 -2
BITMAP 
2040
1040
0478
0BC4
7044
103C
1100
1280
0C60
3118
C106
0990
1148
2148
0500
0200
ENDCHAR
STARTCHAR U_34D3
ENCODING 13523
SWIDTH 1000 0
DWIDTH 16 0
BBX 16 16 0 -2
BITMAP 
0040
4040
2FFE
2040
0040
07FC
1514
14A4
25F4
E444
2444
25F4
2444
2444
2454
0408
ENDCHAR
STARTCHAR U_34D4
ENCODING 13524
SWIDTH 1000 0
DWIDTH 16 0
BBX 16 16 0 -2
BITMAP 
0108
4208
2788
2488
07BE
0488
1788
14C8
24A8
EFA8
2188
2288
2488
2888
22A8
0110
ENDCHAR
STARTCHAR U_34D5
ENCODING 13525
SWIDTH 1000 0
DWIDTH 16 0
BBX 16 16 0 -2
BITMAP 
0014
4012
2010
27FE
0410
0410
17F2
1492
2492
E5B4
26D4
2488
254A
293A
2A26
1042
ENDCHAR
STARTCHAR U_34D6
ENCODING 13526
SWIDTH 1000 0
DWIDTH 16 0
BBX 16 16 0 -2
BITMAP 
0000
47FC
2444
27FC
0444
07FC
1248
1248
2FFE
E248
2248
27FC
2040
2FFE
2040
0040
ENDCHAR
STARTCHAR U_34D7
ENCODING 13527
SWIDTH 1000 0
DWIDTH 16 0
BBX 16 16 0 -2
BITMAP 
0100
47BC
2114
2394
0114
07A4
114C
1080
2110
E3E0
2048
27FC
2044
2248
2544
0080
ENDCHAR
STARTCHAR U_34D8
ENCODING 13528
SWIDTH 1000 0
DWIDTH 16 0
BBX 16 16 0 -2
BITMAP 
0000
3FF8
2008
2FE8
2108
23C8
2448
2A88
2108
2608
3BE8
210A
2FEA
414A
4126
9FF2
ENDCHAR
STARTCHAR U_34D9
ENCODING 13529
SWIDTH 1000 0
DWIDTH 16 0
BBX 16 16 0 -2
BITMAP 
0200
0100
0100
1FF0
4044
4844
4484
4284
4104
4284
4444
4824
5024
4004
7FFC
0004
ENDCHAR
STARTCHAR U_34DA
ENCODING 13530
SWIDTH 1000 0
DWIDTH 16 0
BBX 16 16 0 -2
BITMAP 
0004
0004
7F04
0824
0824
0824
0824
0824
0824
0824
0824
0F24
F004
4004
0014
0008
ENDCHAR
STARTCHAR U_34DB
ENCODING 13531
SWIDTH 1000 0
DWIDTH 16 0
BBX 16 16 0 -2
BITMAP 
0000
01FC
0044
7E44
0844
0844
0844
0844
0844
0844
0E84
F084
4104
0104
0228
0410
ENDCHAR
STARTCHAR U_34DC
ENCODING 13532
SWIDTH 1000 0
DWIDTH 16 0
BBX 16 16 0 -2
BITMAP 
0800
0800
10FC
1024
2224
4224
FC24
0424
0824
1024
2424
4224
FE44
4244
0094
0108
ENDCHAR
STARTCHAR U_34DD
ENCODING 13533
SWIDTH 1000 0
DWIDTH 16 0
BBX 16 16 0 -2
BITMAP 
2204
2204
2204
2224
7F24
2224
2224
2224
FFA4
2224
2224
2224
2204
4204
4214
8208
ENDCHAR
STARTCHAR U_34DE
ENCODING 13534
SWIDTH 1000 0
DWIDTH 16 0
BBX 16 16 0 -2
BITMAP 
0800
0800
08FC
7F24
0824
0824
0824
7F24
0824
0824
0824
FFA4
0844
0844
0894
0908
ENDCHAR
STARTCHAR U_34DF
ENCODING 13535
SWIDTH 1000 0
DWIDTH 16 0
BBX 16 16 0 -2
BITMAP 
0404
0404
0404
3FA4
24A4
2524
2424
3FA4
20A4
2924
2524
2224
2504
4884
9094
0008
ENDCHAR
STARTCHAR U_34E0
ENCODING 13536
SWIDTH 1000 0
DWIDTH 16 0
BBX 16 16 0 -2
BITMAP 
0804
0804
0804
0824
0FA4
0824
0824
0824
7F24
4124
4124
4124
4104
4104
7F14
4108
ENDCHAR
STARTCHAR U_34E1
ENCODING 13537
SWIDTH 1000 0
DWIDTH 16 0
BBX 16 16 0 -2
BITMAP 
2004
2004
3F04
4824
8824
0824
FF24
0824
0824
4924
4924
4904
4F04
7904
0114
0008
ENDCHAR
STARTCHAR U_34E2
ENCODING 13538
SWIDTH 1000 0
DWIDTH 16 0
BBX 16 16 0 -2
BITMAP 
1004
1004
1F04
2124
6124
9224
0C24
1224
2124
C0A4
3F24
2124
2104
2104
3F14
2108
ENDCHAR
STARTCHAR U_34E3
ENCODING 13539
SWIDTH 1000 0
DWIDTH 16 0
BBX 16 16 0 -2
BITMAP 
0804
0804
1404
2224
4124
BEA4
0024
0024
3E24
2224
2224
2224
2204
3E04
2214
0008
ENDCHAR
STARTCHAR U_34E4
ENCODING 13540
SWIDTH 1000 0
DWIDTH 16 0
BBX 16 16 0 -2
BITMAP 
0804
0804
0804
FFA4
0824
0824
7F24
0024
0024
7F24
4124
4124
4104
7F04
4114
0008
ENDCHAR
STARTCHAR U_34E5
ENCODING 13541
SWIDTH 1000 0
DWIDTH 16 0
BBX 16 16 0 -2
BITMAP 
0804
4904
2904
2924
2A24
0824
FF24
0124
0124
0124
7F24
0124
0104
0104
FF14
0108
ENDCHAR
STARTCHAR U_34E6
ENCODING 13542
SWIDTH 1000 0
DWIDTH 16 0
BBX 16 16 0 -2
BITMAP 
0004
FFC4
0804
0824
1024
7F24
4124
4124
4124
7F24
4124
4124
4104
4104
7F14
4108
ENDCHAR
STARTCHAR U_34E7
ENCODING 13543
SWIDTH 1000 0
DWIDTH 16 0
BBX 16 16 0 -2
BITMAP 
0804
0804
1404
2224
5124
88A4
7E24
0224
0424
0824
7F24
4124
4104
4104
7F14
4108
ENDCHAR
STARTCHAR U_34E8
ENCODING 13544
SWIDTH 1000 0
DWIDTH 16 0
BBX 16 16 0 -2
BITMAP 
0804
0804
0804
FFA4
0824
2A24
2A24
2A24
5D24
88A4
0824
1424
1204
2104
4114
8008
ENDCHAR
STARTCHAR U_34E9
ENCODING 13545
SWIDTH 1000 0
DWIDTH 16 0
BBX 16 16 0 -2
BITMAP 
1004
1004
1F04
2124
4224
BFA4
24A4
24A4
3FA4
24A4
24A4
3FA4
2484
4484
4294
8108
ENDCHAR
STARTCHAR U_34EA
ENCODING 13546
SWIDTH 1000 0
DWIDTH 16 0
BBX 16 16 0 -2
BITMAP 
1000
0800
7EFC
4224
4224
7E24
4224
4224
7E24
4024
4824
4424
4A44
5244
6094
4108
ENDCHAR
STARTCHAR U_34EB
ENCODING 13547
SWIDTH 1000 0
DWIDTH 16 0
BBX 16 16 0 -2
BITMAP 
0804
0804
FFC4
1224
2124
40A4
BF24
1224
1224
1224
7FA4
1224
1204
2204
2214
4208
ENDCHAR
STARTCHAR U_34EC
ENCODING 13548
SWIDTH 1000 0
DWIDTH 16 0
BBX 16 16 0 -2
BITMAP 
0804
4904
2A04
7F24
0824
1024
FFA4
2224
4124
80A4
7F24
1124
1104
2104
4A14
8408
ENDCHAR
STARTCHAR U_34ED
ENCODING 13549
SWIDTH 1000 0
DWIDTH 16 0
BBX 16 16 0 -2
BITMAP 
0004
7F04
4104
7F24
4124
7F24
2024
7FA4
88A4
48A4
54A4
40A4
7E84
0084
0514
0208
ENDCHAR
STARTCHAR U_34EE
ENCODING 13550
SWIDTH 1000 0
DWIDTH 16 0
BBX 16 16 0 -2
BITMAP 
0004
3F84
2484
24A4
2EA4
24A4
3FA4
20A4
2EA4
2AA4
2AA4
2EA4
2084
4084
4294
8108
ENDCHAR
STARTCHAR U_34EF
ENCODING 13551
SWIDTH 1000 0
DWIDTH 16 0
BBX 16 16 0 -2
BITMAP 
2484
2484
4904
9224
4924
24A4
24A4
0024
7FA4
48A4
48A4
7FA4
4884
4884
7F94
4088
ENDCHAR
STARTCHAR U_34F0
ENCODING 13552
SWIDTH 1000 0
DWIDTH 16 0
BBX 16 16 0 -2
BITMAP 
0004
FF84
0804
0824
3E24
AAA4
AAA4
BEA4
AAA4
AAA4
AAA4
BEA4
8084
8F84
F094
0008
ENDCHAR
STARTCHAR U_34F1
ENCODING 13553
SWIDTH 1000 0
DWIDTH 16 0
BBX 16 16 0 -2
BITMAP 
0804
1404
2204
4124
BEA4
0024
78A4
4AA4
4AA4
7AA4
4AA4
4AA4
7A84
4884
4A94
5908
ENDCHAR
STARTCHAR U_34F2
ENCODING 13554
SWIDTH 1000 0
DWIDTH 16 0
BBX 16 16 0 -2
BITMAP 
0802
0402
3FC2
2042
2052
3FD2
2012
2012
3FD2
3552
3552
5FD2
5542
5542
944A
10C4
ENDCHAR
STARTCHAR U_34F3
ENCODING 13555
SWIDTH 1000 0
DWIDTH 16 0
BBX 16 16 0 -2
BITMAP 
0008
3E08
2248
3E48
2248
3E48
0048
FF48
0848
0848
2F08
2828
2810
5800
4FFE
8000
ENDCHAR
STARTCHAR U_34F4
ENCODING 13556
SWIDTH 1000 0
DWIDTH 16 0
BBX 16 16 0 -2
BITMAP 
0004
FF84
0804
1024
7F24
5524
5524
5524
5524
4B24
0824
FFA4
1404
2204
4114
8088
ENDCHAR
STARTCHAR U_34F5
ENCODING 13557
SWIDTH 1000 0
DWIDTH 16 0
BBX 16 16 0 -2
BITMAP 
0004
F784
9484
94A4
F7A4
0024
7F24
0024
FFA4
2024
4024
7F24
0104
0104
0A14
0408
ENDCHAR
STARTCHAR U_34F6
ENCODING 13558
SWIDTH 1000 0
DWIDTH 16 0
BBX 16 16 0 -2
BITMAP 
2004
2F04
F504
2524
7524
2524
F524
2924
2324
0824
0824
FFA4
1404
2204
4114
8088
ENDCHAR
STARTCHAR U_34F7
ENCODING 13559
SWIDTH 1000 0
DWIDTH 16 0
BBX 16 16 0 -2
BITMAP 
0804
1004
7F04
4124
7F24
4124
7F24
4124
7F24
0824
FFA4
1C24
2A04
4904
8814
0808
ENDCHAR
STARTCHAR U_34F8
ENCODING 13560
SWIDTH 1000 0
DWIDTH 16 0
BBX 16 16 0 -2
BITMAP 
0004
7704
5504
5524
7724
1424
1424
7724
4124
4124
7724
1424
1404
1F04
F014
4008
ENDCHAR
STARTCHAR U_34F9
ENCODING 13561
SWIDTH 1000 0
DWIDTH 16 0
BBX 16 16 0 -2
BITMAP 
0004
7FC4
4404
54A4
6524
4424
4A24
5124
60A4
4424
54A4
6524
4404
4A04
9114
2088
ENDCHAR
STARTCHAR U_34FA
ENCODING 13562
SWIDTH 1000 0
DWIDTH 16 0
BBX 16 16 0 -2
BITMAP 
0804
0F84
0804
7FA4
48A4
4F24
78A4
47A4
4824
4424
7FA4
4124
5A04
4404
8A14
3108
ENDCHAR
STARTCHAR U_34FB
ENCODING 13563
SWIDTH 1000 0
DWIDTH 16 0
BBX 16 16 0 -2
BITMAP 
0004
FF84
9484
94A4
FFA4
0024
0024
FFA4
0824
0824
4F24
4824
4804
4F84
F814
0008
ENDCHAR
STARTCHAR U_34FC
ENCODING 13564
SWIDTH 1000 0
DWIDTH 16 0
BBX 16 16 0 -2
BITMAP 
0804
0804
FF84
1C24
2B24
C8A4
1424
2224
4924
88A4
4924
2A24
4904
8884
2814
1008
ENDCHAR
STARTCHAR U_34FD
ENCODING 13565
SWIDTH 1000 0
DWIDTH 16 0
BBX 16 16 0 -2
BITMAP 
0804
4904
4904
7F24
1024
0824
FFA4
80A4
3F24
0024
FFA4
0824
2A04
4904
A894
1008
ENDCHAR
STARTCHAR U_34FE
ENCODING 13566
SWIDTH 1000 0
DWIDTH 16 0
BBX 16 16 0 -2
BITMAP 
0002
7FC2
4042
7FC2
4212
4A92
4712
4A92
5052
4A12
4FD2
5212
4202
BFE2
820A
0204
ENDCHAR
STARTCHAR U_34FF
ENCODING 13567
SWIDTH 1000 0
DWIDTH 16 0
BBX 16 16 0 -2
BITMAP 
0704
7804
0804
FFA4
2A24
4924
94A4
2224
4924
88A4
4924
2A24
4904
8884
2814
1008
ENDCHAR
STARTCHAR U_3500
ENCODING 13568
SWIDTH 1000 0
DWIDTH 16 0
BBX 16 16 0 -2
BITMAP 
0004
7F04
4104
7F24
4124
7F24
0824
FFA4
0024
7F24
4124
7F24
0804
4904
8894
1808
ENDCHAR
STARTCHAR U_3501
ENCODING 13569
SWIDTH 1000 0
DWIDTH 16 0
BBX 16 16 0 -2
BITMAP 
0504
7204
1284
5124
2124
5EA4
80A4
3F24
2124
2124
3F24
2124
1204
0784
7814
2008
ENDCHAR
STARTCHAR U_3502
ENCODING 13570
SWIDTH 1000 0
DWIDTH 16 0
BBX 16 16 0 -2
BITMAP 
0404
2484
1504
7FD4
1514
2494
4454
2094
2094
3BF4
4894
AA84
13E4
2084
4094
8088
ENDCHAR
STARTCHAR U_3503
ENCODING 13571
SWIDTH 1000 0
DWIDTH 16 0
BBX 16 16 0 -2
BITMAP 
1080
10F8
2510
7BFC
1124
2524
7DFC
0102
5502
94FE
0000
7FF8
0408
0808
1050
6020
ENDCHAR
STARTCHAR U_3504
ENCODING 13572
SWIDTH 1000 0
DWIDTH 16 0
BBX 16 16 0 -2
BITMAP 
0002
7FC2
0A02
7FC2
4A52
4A52
7FD2
0412
2492
1512
FFD2
0E12
1502
2482
444A
0404
ENDCHAR
STARTCHAR U_3505
ENCODING 13573
SWIDTH 1000 0
DWIDTH 16 0
BBX 16 16 0 -2
BITMAP 
0402
3F82
0482
7FC2
0492
3F92
0412
5552
75D2
4452
7FD2
4452
75C2
5542
554A
8444
ENDCHAR
STARTCHAR U_3506
ENCODING 13574
SWIDTH 1000 0
DWIDTH 16 0
BBX 16 16 0 -2
BITMAP 
0004
F784
2104
A524
F7A4
6324
B5A4
2124
7FA4
40A4
40A4
7FA4
4084
4084
7F94
4088
ENDCHAR
STARTCHAR U_3507
ENCODING 13575
SWIDTH 1000 0
DWIDTH 16 0
BBX 16 16 0 -2
BITMAP 
0904
F644
1284
A124
40A4
F764
1524
1524
79A4
4024
8F24
F124
1504
1204
5514
2908
ENDCHAR
STARTCHAR U_3508
ENCODING 13576
SWIDTH 1000 0
DWIDTH 16 0
BBX 16 16 0 -2
BITMAP 
2204
2204
FF84
2224
1424
1424
F7A4
1424
1424
7724
1424
1424
F784
1404
1414
1408
ENDCHAR
STARTCHAR U_3509
ENCODING 13577
SWIDTH 1000 0
DWIDTH 16 0
BBX 16 16 0 -2
BITMAP 
0002
7FC2
4042
7FCA
400A
5FCA
420A
5FCA
524A
5FCA
420A
7FEA
62A2
6FA2
A0AA
2064
ENDCHAR
STARTCHAR U_350A
ENCODING 13578
SWIDTH 1000 0
DWIDTH 16 0
BBX 16 16 0 -2
BITMAP 
0402
FFE2
0002
7FC2
4052
5F52
5152
7FD2
0012
3F92
2092
3F92
2082
3F82
000A
FFE4
ENDCHAR
STARTCHAR U_350B
ENCODING 13579
SWIDTH 1000 0
DWIDTH 16 0
BBX 16 16 0 -2
BITMAP 
0004
7A04
5204
7BA4
4A24
7B24
54A4
78A4
0024
7F24
5524
5524
5504
5784
FC14
0008
ENDCHAR
STARTCHAR U_350C
ENCODING 13580
SWIDTH 1000 0
DWIDTH 16 0
BBX 16 16 0 -2
BITMAP 
FC04
4B84
7884
4AA4
7924
4D24
FAA4
0CA4
07A4
F824
28A4
4D24
1A04
2904
C894
0808
ENDCHAR
STARTCHAR U_350D
ENCODING 13581
SWIDTH 1000 0
DWIDTH 16 0
BBX 16 16 0 -2
BITMAP 
4204
7BC4
A504
10A4
7FA4
40A4
7FA4
40A4
7FA4
40A4
7FA4
2124
FFC4
2104
4114
8108
ENDCHAR
STARTCHAR U_350E
ENCODING 13582
SWIDTH 1000 0
DWIDTH 16 0
BBX 16 16 0 -2
BITMAP 
5210
7EFE
2844
7E28
A2FE
3E10
2010
3E7C
2210
3E10
0000
7FF8
0408
0808
1050
6020
ENDCHAR
STARTCHAR U_350F
ENCODING 13583
SWIDTH 1000 0
DWIDTH 16 0
BBX 16 16 0 -2
BITMAP 
0002
7FC2
1002
3F8A
508A
108A
1F8A
000A
FBEA
208A
79EA
492A
CB22
4922
79EA
4924
ENDCHAR
STARTCHAR U_3510
ENCODING 13584
SWIDTH 1000 0
DWIDTH 16 0
BBX 16 16 0 -2
BITMAP 
2102
2102
3DE2
5282
8852
7FD2
0A12
7BD2
0A12
3B92
0A12
7BD2
0A02
0FC2
F80A
4004
ENDCHAR
STARTCHAR U_3511
ENCODING 13585
SWIDTH 1000 0
DWIDTH 16 0
BBX 16 16 0 -2
BITMAP 
0820
FFFE
2820
7DFC
4488
7C50
41FE
7C20
45FC
7C20
0000
7FF8
0408
0808
1050
6020
ENDCHAR
STARTCHAR U_3512
ENCODING 13586
SWIDTH 1000 0
DWIDTH 16 0
BBX 16 16 0 -2
BITMAP 
4442
7FC2
1202
3FC2
6212
BFD2
2212
3FD2
2212
3FD2
2012
7FD2
5142
6EC2
4A4A
4EC4
ENDCHAR
STARTCHAR U_3513
ENCODING 13587
SWIDTH 1000 0
DWIDTH 16 0
BBX 16 16 0 -2
BITMAP 
0420
0E20
7820
0820
08FC
0824
0824
FF24
0824
0824
0824
0844
0844
0884
0928
0A10
ENDCHAR
STARTCHAR U_3514
ENCODING 13588
SWIDTH 1000 0
DWIDTH 16 0
BBX 16 16 0 -2
BITMAP 
1000
1000
7E7C
1244
1244
1244
2244
227C
4A44
8400
1FF0
2008
2008
2008
1FF0
0000
ENDCHAR
STARTCHAR U_3515
ENCODING 13589
SWIDTH 1000 0
DWIDTH 16 0
BBX 16 16 0 -2
BITMAP 
2020
2020
3F20
4020
80FC
7E24
0024
0024
7C24
0424
0524
0524
0344
0144
00A8
0110
ENDCHAR
STARTCHAR U_3516
ENCODING 13590
SWIDTH 1000 0
DWIDTH 16 0
BBX 16 16 0 -2
BITMAP 
1000
1000
7E7C
1244
1244
1244
2244
227C
4A44
8400
0000
3FF0
0010
0010
0010
0010
ENDCHAR
STARTCHAR U_3517
ENCODING 13591
SWIDTH 1000 0
DWIDTH 16 0
BBX 16 16 0 -2
BITMAP 
1210
1210
1210
7F90
12FE
1292
7F92
5212
5212
7FD2
1252
1252
2352
22A2
422A
8244
ENDCHAR
STARTCHAR U_3518
ENCODING 13592
SWIDTH 1000 0
DWIDTH 16 0
BBX 16 16 0 -2
BITMAP 
1020
1020
9220
9220
92FC
9224
FE24
1024
1024
9224
9224
9244
9E44
F284
0128
0210
ENDCHAR
STARTCHAR U_3519
ENCODING 13593
SWIDTH 1000 0
DWIDTH 16 0
BBX 16 16 0 -2
BITMAP 
4220
2420
0020
7E20
24FC
2424
2424
2424
FF24
2424
2424
2424
2444
4444
44A8
8510
ENDCHAR
STARTCHAR U_351A
ENCODING 13594
SWIDTH 1000 0
DWIDTH 16 0
BBX 16 16 0 -2
BITMAP 
0420
0E20
3820
0820
08FC
FF24
0824
0824
3E24
2224
2224
2224
2244
3E44
22A8
0110
ENDCHAR
STARTCHAR U_351B
ENCODING 13595
SWIDTH 1000 0
DWIDTH 16 0
BBX 16 16 0 -2
BITMAP 
0100
0100
7FFC
0100
1FF0
0000
1FF0
1010
1010
1FF0
0200
7FF8
0408
0808
1050
6020
ENDCHAR
STARTCHAR U_351C
ENCODING 13596
SWIDTH 1000 0
DWIDTH 16 0
BBX 16 16 0 -2
BITMAP 
0220
0F20
F020
0120
91FC
4A24
0024
FE24
0424
0824
0F24
F844
4844
0884
2928
1210
ENDCHAR
STARTCHAR U_351D
ENCODING 13597
SWIDTH 1000 0
DWIDTH 16 0
BBX 16 16 0 -2
BITMAP 
0010
FF90
0810
0810
FF90
88FE
8892
CC92
AA92
AA92
DD92
9992
8892
88A2
8AAA
8144
ENDCHAR
STARTCHAR U_351E
ENCODING 13598
SWIDTH 1000 0
DWIDTH 16 0
BBX 16 16 0 -2
BITMAP 
0220
0F20
7820
0820
FF7C
0824
2A24
2A24
EBA4
2A24
2AA4
6B24
AA44
0844
0894
0908
ENDCHAR
STARTCHAR U_351F
ENCODING 13599
SWIDTH 1000 0
DWIDTH 16 0
BBX 16 16 0 -2
BITMAP 
0820
2820
3EF8
4828
08A8
3E48
084A
0EAA
7926
0202
0200
7FF8
0408
0808
1050
6020
ENDCHAR
STARTCHAR U_3520
ENCODING 13600
SWIDTH 1000 0
DWIDTH 16 0
BBX 16 16 0 -2
BITMAP 
0020
7E20
4220
7E20
42FC
7E24
2024
7F24
8924
4924
5524
4124
7D44
0144
0AA8
0510
ENDCHAR
STARTCHAR U_3521
ENCODING 13601
SWIDTH 1000 0
DWIDTH 16 0
BBX 16 16 0 -2
BITMAP 
0820
1020
7F20
5520
49FC
5524
4124
7F24
0024
4424
7724
4424
5544
6644
44A8
0110
ENDCHAR
STARTCHAR U_3522
ENCODING 13602
SWIDTH 1000 0
DWIDTH 16 0
BBX 16 16 0 -2
BITMAP 
1080
10F8
2510
7BFC
1124
2524
7DFC
0102
5502
94FE
0200
7FF8
0408
0808
1050
6020
ENDCHAR
STARTCHAR U_3523
ENCODING 13603
SWIDTH 1000 0
DWIDTH 16 0
BBX 16 16 0 -2
BITMAP 
0008
3F88
2488
3F88
24BE
3F8A
000A
FBEA
AAAA
AAAA
FBEA
AAAA
AAB2
FBF2
002A
0044
ENDCHAR
STARTCHAR U_3524
ENCODING 13604
SWIDTH 1000 0
DWIDTH 16 0
BBX 16 16 0 -2
BITMAP 
1020
0820
7F20
4120
86FC
7824
4924
2A24
FF24
2A24
4124
BE24
2A44
3E44
2AA8
3F10
ENDCHAR
STARTCHAR U_3525
ENCODING 13605
SWIDTH 1000 0
DWIDTH 16 0
BBX 16 16 0 -2
BITMAP 
0010
FF10
A510
A510
FF7E
4412
9492
F712
0492
F392
9012
F492
9712
F422
94AA
B3C4
ENDCHAR
STARTCHAR U_3526
ENCODING 13606
SWIDTH 1000 0
DWIDTH 16 0
BBX 16 16 0 -2
BITMAP 
2210
FF90
0810
7F10
107E
FF92
2212
4912
BE92
2212
3E12
2212
3E92
2522
2A2A
3144
ENDCHAR
STARTCHAR U_3527
ENCODING 13607
SWIDTH 1000 0
DWIDTH 16 0
BBX 16 16 0 -2
BITMAP 
0810
0F90
0810
7F90
48FE
7E12
4892
5F92
5512
5F12
5512
5F12
4012
BFA2
2AAA
7FC4
ENDCHAR
STARTCHAR U_3528
ENCODING 13608
SWIDTH 1000 0
DWIDTH 16 0
BBX 16 16 0 -2
BITMAP 
1000
1000
3FFC
4524
BDC4
0514
1CF4
6404
1FC4
1044
1FC4
1044
1FC4
1044
1154
1088
ENDCHAR
STARTCHAR U_3529
ENCODING 13609
SWIDTH 1000 0
DWIDTH 16 0
BBX 16 16 0 -2
BITMAP 
1000
1000
3FFC
2204
5FC4
8204
3FE4
0404
0884
1FC4
0004
1FC4
1544
1544
3FE8
0010
ENDCHAR
STARTCHAR U_352A
ENCODING 13610
SWIDTH 1000 0
DWIDTH 16 0
BBX 16 16 0 -2
BITMAP 
1000
1000
3FFC
2204
4204
83F4
0204
3FE4
2AA4
2524
3264
2524
2AA4
3FE4
2028
0010
ENDCHAR
STARTCHAR U_352B
ENCODING 13611
SWIDTH 1000 0
DWIDTH 16 0
BBX 16 16 0 -2
BITMAP 
0400
0400
0400
0400
FFFE
0480
0480
0484
0488
0890
08E0
1082
1082
2082
407E
8000
ENDCHAR
STARTCHAR U_352C
ENCODING 13612
SWIDTH 1000 0
DWIDTH 16 0
BBX 16 16 0 -2
BITMAP 
2030
21C0
3E08
2008
1FF8
0000
1FF0
1010
1FF0
1010
1FF0
0100
FFFE
0100
0100
0100
ENDCHAR
STARTCHAR U_352D
ENCODING 13613
SWIDTH 1000 0
DWIDTH 16 0
BBX 16 16 0 -2
BITMAP 
0000
43F8
4208
4208
43F8
7A08
4208
43F8
4000
47FE
4040
4A40
5278
6240
4540
08FE
ENDCHAR
STARTCHAR U_352E
ENCODING 13614
SWIDTH 1000 0
DWIDTH 16 0
BBX 16 16 0 -2
BITMAP 
5110
5112
FA54
53D8
7010
2012
FBD2
AA4E
FA40
23D2
FA54
2258
FBD0
2252
5252
8ACE
ENDCHAR
STARTCHAR U_352F
ENCODING 13615
SWIDTH 1000 0
DWIDTH 16 0
BBX 16 16 0 -2
BITMAP 
0000
7FFC
4000
47F0
4410
4410
480C
5000
47F0
4410
4410
4410
47F0
4000
7FFE
0000
ENDCHAR
STARTCHAR U_3530
ENCODING 13616
SWIDTH 1000 0
DWIDTH 16 0
BBX 16 16 0 -2
BITMAP 
0000
7FFC
4220
4220
43A0
44B0
44A8
44A4
4AA4
5120
4120
4220
4420
4820
7FFE
0000
ENDCHAR
STARTCHAR U_3531
ENCODING 13617
SWIDTH 1000 0
DWIDTH 16 0
BBX 16 16 0 -2
BITMAP 
0000
7FFC
4000
4280
4CB8
4888
4EB8
4888
4FF8
4140
4220
4410
5808
4000
7FFE
0000
ENDCHAR
STARTCHAR U_3532
ENCODING 13618
SWIDTH 1000 0
DWIDTH 16 0
BBX 16 16 0 -2
BITMAP 
0000
7FFC
4220
4520
4AA0
5F78
6928
4F28
4928
4F28
482A
4A2A
4D46
4880
7FFE
0000
ENDCHAR
STARTCHAR U_3533
ENCODING 13619
SWIDTH 1000 0
DWIDTH 16 0
BBX 16 16 0 -2
BITMAP 
0000
7FFC
4200
4538
4AA8
5F68
6928
4F28
4928
4F2A
482A
4A4A
4D46
4880
7FFE
0000
ENDCHAR
STARTCHAR U_3534
ENCODING 13620
SWIDTH 1000 0
DWIDTH 16 0
BBX 16 16 0 -2
BITMAP 
0000
7FFC
4000
4FF8
4888
4FF8
4888
4FF8
4220
4FF8
4220
5FFC
4410
4808
7FFE
0000
ENDCHAR
STARTCHAR U_3535
ENCODING 13621
SWIDTH 1000 0
DWIDTH 16 0
BBX 16 16 0 -2
BITMAP 
7FFE
4000
5E78
5248
5E78
5144
4F3C
4220
4FF8
4220
4220
5FFC
4220
4410
4808
7FFE
ENDCHAR
STARTCHAR U_3536
ENCODING 13622
SWIDTH 1000 0
DWIDTH 16 0
BBX 16 16 0 -2
BITMAP 
7FFE
4420
7FBC
4A64
7F98
4066
5F7C
5110
5FFE
5144
5F7C
4444
7FFC
4428
4444
7FFE
ENDCHAR
STARTCHAR U_3537
ENCODING 13623
SWIDTH 1000 0
DWIDTH 16 0
BBX 16 16 0 -2
BITMAP 
0000
7FFC
4000
4FF8
4080
4080
4FF8
4888
4948
4A28
4C28
4808
4828
4810
7FFE
0000
ENDCHAR
STARTCHAR U_3538
ENCODING 13624
SWIDTH 1000 0
DWIDTH 16 0
BBX 16 16 0 -2
BITMAP 
7FFE
4000
403E
4FC0
487C
4840
4BFE
4A42
4A78
4AC4
4A3C
5200
54F0
6494
490C
7FFE
ENDCHAR
STARTCHAR U_3539
ENCODING 13625
SWIDTH 1000 0
DWIDTH 16 0
BBX 16 16 0 -2
BITMAP 
1040
1040
1040
1040
11FC
1044
FE44
1044
1044
1084
1084
1084
1104
1104
1228
1410
ENDCHAR
STARTCHAR U_353A
ENCODING 13626
SWIDTH 1000 0
DWIDTH 16 0
BBX 16 16 0 -2
BITMAP 
0100
0100
0100
7FFC
0100
1100
1120
1020
FFFE
1020
1020
1022
1002
1002
0FFE
0000
ENDCHAR
STARTCHAR U_353B
ENCODING 13627
SWIDTH 1000 0
DWIDTH 16 0
BBX 16 16 0 -2
BITMAP 
0000
7FFC
0100
0300
0560
1918
6104
0100
0000
0100
0100
FFFE
0100
0100
0100
0100
ENDCHAR
STARTCHAR U_353C
ENCODING 13628
SWIDTH 1000 0
DWIDTH 16 0
BBX 16 16 0 -2
BITMAP 
10A0
1090
FDFE
1320
1DFC
3120
D1FC
1120
51FE
2100
0000
0100
FFFE
0100
0100
0100
ENDCHAR
STARTCHAR U_353D
ENCODING 13629
SWIDTH 1000 0
DWIDTH 16 0
BBX 16 16 0 -2
BITMAP 
0100
0100
01FE
0100
0100
3FF8
2008
2008
27C8
2448
2448
27C8
2008
2008
3FF8
2008
ENDCHAR
STARTCHAR U_353E
ENCODING 13630
SWIDTH 1000 0
DWIDTH 16 0
BBX 16 16 0 -2
BITMAP 
0000
3FE0
2020
2020
2020
2020
2020
2020
2140
2080
2000
2004
2004
2004
1FFC
0000
ENDCHAR
STARTCHAR U_353F
ENCODING 13631
SWIDTH 1000 0
DWIDTH 16 0
BBX 16 16 0 -2
BITMAP 
0000
FFFE
1010
1010
1010
1010
1010
1010
1010
1070
1190
1610
1810
0010
0010
0010
ENDCHAR
STARTCHAR U_3540
ENCODING 13632
SWIDTH 1000 0
DWIDTH 16 0
BBX 16 16 0 -2
BITMAP 
0100
0100
3FF8
2108
3FF8
2108
3FF8
0000
1FF0
1010
1010
1052
1022
1002
0FFE
0000
ENDCHAR
STARTCHAR U_3541
ENCODING 13633
SWIDTH 1000 0
DWIDTH 16 0
BBX 16 16 0 -2
BITMAP 
0100
3200
0C7C
1244
6944
0844
FFC4
1044
2444
2444
4844
8A54
1148
3F40
1140
0040
ENDCHAR
STARTCHAR U_3542
ENCODING 13634
SWIDTH 1000 0
DWIDTH 16 0
BBX 16 16 0 -2
BITMAP 
0000
3FFE
2080
2080
2140
2220
2410
2908
3086
2080
2FF0
2010
2020
4020
4040
8080
ENDCHAR
STARTCHAR U_3543
ENCODING 13635
SWIDTH 1000 0
DWIDTH 16 0
BBX 16 16 0 -2
BITMAP 
0000
3FFE
2000
2000
27FC
2110
2110
2110
2110
2FFE
2110
2110
2210
4210
4410
8810
ENDCHAR
STARTCHAR U_3544
ENCODING 13636
SWIDTH 1000 0
DWIDTH 16 0
BBX 16 16 0 -2
BITMAP 
0000
3FFE
2000
2000
2FFC
2080
2100
2210
2420
2FC0
2080
2100
2210
4408
4FFC
8404
ENDCHAR
STARTCHAR U_3545
ENCODING 13637
SWIDTH 1000 0
DWIDTH 16 0
BBX 16 16 0 -2
BITMAP 
0000
3FFE
2000
2000
27FC
2444
2444
27FC
2444
2444
27FC
2444
2040
4040
4040
8040
ENDCHAR
STARTCHAR U_3546
ENCODING 13638
SWIDTH 1000 0
DWIDTH 16 0
BBX 16 16 0 -2
BITMAP 
0000
3FFE
2000
2040
2040
2FFE
2040
2040
2040
27FC
2404
2404
2404
4404
47FC
8404
ENDCHAR
STARTCHAR U_3547
ENCODING 13639
SWIDTH 1000 0
DWIDTH 16 0
BBX 16 16 0 -2
BITMAP 
0000
3FFE
2000
2080
2040
2040
2FFC
2000
2408
2208
2210
2110
2120
4000
5FFE
8000
ENDCHAR
STARTCHAR U_3548
ENCODING 13640
SWIDTH 1000 0
DWIDTH 16 0
BBX 16 16 0 -2
BITMAP 
0000
3FFE
2080
2040
2000
3FFE
2080
2100
2284
2688
2A50
3220
2210
4288
4306
8200
ENDCHAR
STARTCHAR U_3549
ENCODING 13641
SWIDTH 1000 0
DWIDTH 16 0
BBX 16 16 0 -2
BITMAP 
0000
3FFE
2080
2080
2140
2220
2410
2BE8
3006
2000
27F0
2410
2410
4410
47F0
8410
ENDCHAR
STARTCHAR U_354A
ENCODING 13642
SWIDTH 1000 0
DWIDTH 16 0
BBX 16 16 0 -2
BITMAP 
0000
3FFE
2000
2048
2044
2FFE
2040
27FC
2444
27FC
2444
27FC
2444
4444
4454
8408
ENDCHAR
STARTCHAR U_354B
ENCODING 13643
SWIDTH 1000 0
DWIDTH 16 0
BBX 16 16 0 -2
BITMAP 
0000
3FFE
2080
2140
2220
2410
2808
37F6
2080
2080
2FF8
2080
2490
42A0
5FFE
8000
ENDCHAR
STARTCHAR U_354C
ENCODING 13644
SWIDTH 1000 0
DWIDTH 16 0
BBX 16 16 0 -2
BITMAP 
0000
3FFE
2000
27F8
2408
27F8
2408
27F8
2000
2FFC
2010
3FFE
2410
4210
4250
8020
ENDCHAR
STARTCHAR U_354D
ENCODING 13645
SWIDTH 1000 0
DWIDTH 16 0
BBX 16 16 0 -2
BITMAP 
0000
3FFE
2280
2240
2240
27FC
2440
2C40
37F8
2440
2440
27F8
2440
4440
47FC
8400
ENDCHAR
STARTCHAR U_354E
ENCODING 13646
SWIDTH 1000 0
DWIDTH 16 0
BBX 16 16 0 -2
BITMAP 
0000
3FFE
2080
2080
2FFC
2080
3FFE
2200
2408
2FFC
2000
2FFC
2924
4924
7FFE
8000
ENDCHAR
STARTCHAR U_354F
ENCODING 13647
SWIDTH 1000 0
DWIDTH 16 0
BBX 16 16 0 -2
BITMAP 
0000
3FFE
2000
3F88
2048
2F28
2908
2948
2928
2F0E
2078
2908
2608
4388
5C08
8808
ENDCHAR
STARTCHAR U_3550
ENCODING 13648
SWIDTH 1000 0
DWIDTH 16 0
BBX 16 16 0 -2
BITMAP 
0000
3FFE
2100
2638
2408
2738
2408
27F8
2200
27FC
2804
2554
2554
4804
4028
8010
ENDCHAR
STARTCHAR U_3551
ENCODING 13649
SWIDTH 1000 0
DWIDTH 16 0
BBX 16 16 0 -2
BITMAP 
0000
3FFE
2204
2204
3FC4
2204
2FBE
2004
2FA4
2894
2F94
2884
2504
4384
5C14
8808
ENDCHAR
STARTCHAR U_3552
ENCODING 13650
SWIDTH 1000 0
DWIDTH 16 0
BBX 16 16 0 -2
BITMAP 
3FFE
2408
2210
3FFE
2080
2FFC
2080
3FFE
20A0
2F28
2224
3FFE
4228
5F12
822A
06C6
ENDCHAR
STARTCHAR U_3553
ENCODING 13651
SWIDTH 1000 0
DWIDTH 16 0
BBX 16 16 0 -2
BITMAP 
0000
3FFE
2000
27FC
2554
24E4
27FC
2040
27FC
2040
2FFE
24A4
2852
47FC
4040
8FFE
ENDCHAR
STARTCHAR U_3554
ENCODING 13652
SWIDTH 1000 0
DWIDTH 16 0
BBX 16 16 0 -2
BITMAP 
3FFE
2010
3F10
2AFE
2E10
2AFE
2EAA
2AAA
3EFE
2200
3EFE
2A20
5E14
4AA2
BF28
0218
ENDCHAR
STARTCHAR U_3555
ENCODING 13653
SWIDTH 1000 0
DWIDTH 16 0
BBX 16 16 0 -2
BITMAP 
0100
0100
0200
0420
0810
1008
3FFC
1004
0100
0100
0200
0420
0810
1008
3FFC
1004
ENDCHAR
STARTCHAR U_3556
ENCODING 13654
SWIDTH 1000 0
DWIDTH 16 0
BBX 16 16 0 -2
BITMAP 
0400
0820
1010
3FF8
0810
1020
2448
7EFC
0204
0100
FFFE
0540
0920
3118
C106
0100
ENDCHAR
STARTCHAR U_3557
ENCODING 13655
SWIDTH 1000 0
DWIDTH 16 0
BBX 16 16 0 -2
BITMAP 
4100
2210
FF90
0810
7F20
0820
FFA0
1040
1048
3E84
42FC
8404
0800
1400
23FE
C000
ENDCHAR
STARTCHAR U_3558
ENCODING 13656
SWIDTH 1000 0
DWIDTH 16 0
BBX 16 16 0 -2
BITMAP 
0400
0820
1010
3FF8
0810
1020
2448
7EFC
0100
06C0
1830
E10E
0920
1110
2508
0200
ENDCHAR
STARTCHAR U_3559
ENCODING 13657
SWIDTH 1000 0
DWIDTH 16 0
BBX 16 16 0 -2
BITMAP 
1080
1080
20F0
4510
FE20
29FC
4524
A324
3D24
45FC
4450
A858
1094
2892
4512
820E
ENDCHAR
STARTCHAR U_355A
ENCODING 13658
SWIDTH 1000 0
DWIDTH 16 0
BBX 16 16 0 -2
BITMAP 
0000
3FF0
1010
1210
1120
0920
0820
4440
2440
2280
0100
0280
0440
0820
3018
C006
ENDCHAR
STARTCHAR U_355B
ENCODING 13659
SWIDTH 1000 0
DWIDTH 16 0
BBX 16 16 0 -2
BITMAP 
0000
3FF0
0020
1E40
0180
0660
1818
E004
3FF0
1010
0820
0440
0380
0C60
3018
C006
ENDCHAR
STARTCHAR U_355C
ENCODING 13660
SWIDTH 1000 0
DWIDTH 16 0
BBX 16 16 0 -2
BITMAP 
0100
0100
3FF8
2108
2108
3FF8
0100
0100
3FF0
1010
0820
0440
0380
0C60
3018
C006
ENDCHAR
STARTCHAR U_355D
ENCODING 13661
SWIDTH 1000 0
DWIDTH 16 0
BBX 16 16 0 -2
BITMAP 
0100
0100
7FFC
0100
0100
1FF0
1010
1010
1FF0
0000
3FF0
0820
0440
0380
1C70
E00E
ENDCHAR
STARTCHAR U_355E
ENCODING 13662
SWIDTH 1000 0
DWIDTH 16 0
BBX 16 16 0 -2
BITMAP 
0000
3F00
217C
2124
3F24
2424
2424
2428
3F28
3528
3510
5510
5528
9728
0444
0482
ENDCHAR
STARTCHAR U_355F
ENCODING 13663
SWIDTH 1000 0
DWIDTH 16 0
BBX 16 16 0 -2
BITMAP 
0800
0800
0F00
08FC
0844
7F44
5544
5544
5528
7F28
5510
5510
5528
5128
4544
4282
ENDCHAR
STARTCHAR U_3560
ENCODING 13664
SWIDTH 1000 0
DWIDTH 16 0
BBX 16 16 0 -2
BITMAP 
4140
2120
03FE
0A20
17FC
EA20
23FC
2220
23FE
0200
3FF0
0820
0440
0380
1C70
E00E
ENDCHAR
STARTCHAR U_3561
ENCODING 13665
SWIDTH 1000 0
DWIDTH 16 0
BBX 16 16 0 -2
BITMAP 
0800
0F00
087C
FFA4
80A4
7F24
1424
2228
4928
1628
2110
FE10
2228
2228
3E44
2282
ENDCHAR
STARTCHAR U_3562
ENCODING 13666
SWIDTH 1000 0
DWIDTH 16 0
BBX 16 16 0 -2
BITMAP 
1000
1E00
107C
FF44
8144
7E44
0044
7E28
4228
7E28
4210
7E10
4228
7E28
2444
4282
ENDCHAR
STARTCHAR U_3563
ENCODING 13667
SWIDTH 1000 0
DWIDTH 16 0
BBX 16 16 0 -2
BITMAP 
0040
0840
0820
1020
1010
2008
4004
9FF2
1010
1010
1010
1010
1010
1FF0
1010
0000
ENDCHAR
STARTCHAR U_3564
ENCODING 13668
SWIDTH 1000 0
DWIDTH 16 0
BBX 16 16 0 -2
BITMAP 
0100
0100
7900
4900
4BF0
4910
4910
4910
4910
4910
7910
4A12
0212
0412
080E
1000
ENDCHAR
STARTCHAR U_3565
ENCODING 13669
SWIDTH 1000 0
DWIDTH 16 0
BBX 16 16 0 -2
BITMAP 
0040
0040
7C40
4440
4440
4440
4440
4440
44A0
44A0
7CA0
4510
0110
0208
0404
0802
ENDCHAR
STARTCHAR U_3566
ENCODING 13670
SWIDTH 1000 0
DWIDTH 16 0
BBX 16 16 0 -2
BITMAP 
0000
1FF0
1010
1010
1010
1FF0
0100
0100
0100
FFFE
0280
0440
0820
1010
2008
C006
ENDCHAR
STARTCHAR U_3567
ENCODING 13671
SWIDTH 1000 0
DWIDTH 16 0
BBX 16 16 0 -2
BITMAP 
0000
01FC
7904
4904
4904
4904
49FC
4904
4900
4900
7900
4900
0200
0200
0400
0800
ENDCHAR
STARTCHAR U_3568
ENCODING 13672
SWIDTH 1000 0
DWIDTH 16 0
BBX 16 16 0 -2
BITMAP 
0000
01F0
7910
4910
4910
4910
4990
4950
4950
4910
7910
4912
0212
0212
040E
0800
ENDCHAR
STARTCHAR U_3569
ENCODING 13673
SWIDTH 1000 0
DWIDTH 16 0
BBX 16 16 0 -2
BITMAP 
0020
0020
7820
4BFE
4820
4820
4820
49FC
4820
4820
7820
4BFE
0020
0020
0020
0020
ENDCHAR
STARTCHAR U_356A
ENCODING 13674
SWIDTH 1000 0
DWIDTH 16 0
BBX 16 16 0 -2
BITMAP 
0040
0040
7840
4BFC
4A44
4C48
4840
4840
48A0
48A0
78A0
4920
0122
0222
041E
0800
ENDCHAR
STARTCHAR U_356B
ENCODING 13675
SWIDTH 1000 0
DWIDTH 16 0
BBX 16 16 0 -2
BITMAP 
0080
0040
7840
4FFE
4900
4900
4900
49F8
4908
4908
7908
4908
0208
0208
0450
0820
ENDCHAR
STARTCHAR U_356C
ENCODING 13676
SWIDTH 1000 0
DWIDTH 16 0
BBX 16 16 0 -2
BITMAP 
0020
0120
7920
4910
4910
4A48
4A48
4C44
4882
4880
7910
4908
0208
07FC
0204
0000
ENDCHAR
STARTCHAR U_356D
ENCODING 13677
SWIDTH 1000 0
DWIDTH 16 0
BBX 16 16 0 -2
BITMAP 
0010
0078
7BC0
4840
4840
4840
4840
4FFE
4840
48A0
78A0
4890
0110
0108
0204
0402
ENDCHAR
STARTCHAR U_356E
ENCODING 13678
SWIDTH 1000 0
DWIDTH 16 0
BBX 16 16 0 -2
BITMAP 
0020
0110
7908
4A04
4A04
4C10
4910
4910
48A0
48A0
7840
48A0
0110
0208
0404
0802
ENDCHAR
STARTCHAR U_356F
ENCODING 13679
SWIDTH 1000 0
DWIDTH 16 0
BBX 16 16 0 -2
BITMAP 
0100
0100
0100
7FFC
4104
4284
4444
4824
57D4
4444
4444
4444
47C4
4444
4014
4008
ENDCHAR
STARTCHAR U_3570
ENCODING 13680
SWIDTH 1000 0
DWIDTH 16 0
BBX 16 16 0 -2
BITMAP 
0008
003C
79E0
4820
4820
483C
49E0
4820
4820
483E
7BE0
4820
0022
0022
0022
001E
ENDCHAR
STARTCHAR U_3571
ENCODING 13681
SWIDTH 1000 0
DWIDTH 16 0
BBX 16 16 0 -2
BITMAP 
0090
0088
7888
4880
4FFE
48A0
48A0
48A0
48A0
48A0
7920
4922
0122
0222
021E
0400
ENDCHAR
STARTCHAR U_3572
ENCODING 13682
SWIDTH 1000 0
DWIDTH 16 0
BBX 16 16 0 -2
BITMAP 
0040
0040
F040
9040
97FE
9040
90E0
90E0
9150
9150
F248
9444
0842
0040
0040
0040
ENDCHAR
STARTCHAR U_3573
ENCODING 13683
SWIDTH 1000 0
DWIDTH 16 0
BBX 16 16 0 -2
BITMAP 
0000
0008
7908
4888
4A52
4A52
4A22
4A22
4A52
4A92
7B0A
4A0A
0202
03FE
0002
0000
ENDCHAR
STARTCHAR U_3574
ENCODING 13684
SWIDTH 1000 0
DWIDTH 16 0
BBX 16 16 0 -2
BITMAP 
0000
0000
7BFE
4A02
4C04
4800
49F0
4910
4910
4910
7910
4912
0212
0212
040E
0800
ENDCHAR
STARTCHAR U_3575
ENCODING 13685
SWIDTH 1000 0
DWIDTH 16 0
BBX 16 16 0 -2
BITMAP 
0000
03FE
7820
4820
4820
4820
4820
49FC
4820
4820
4820
7820
4820
0020
07FE
0000
ENDCHAR
STARTCHAR U_3576
ENCODING 13686
SWIDTH 1000 0
DWIDTH 16 0
BBX 16 16 0 -2
BITMAP 
0000
03FC
7840
4840
4840
4840
4BF8
4888
4888
4888
7888
4908
0108
0108
07FE
0000
ENDCHAR
STARTCHAR U_3577
ENCODING 13687
SWIDTH 1000 0
DWIDTH 16 0
BBX 16 16 0 -2
BITMAP 
0020
0020
7840
49FC
4904
4904
4904
4904
49FC
4904
4904
7904
4904
0104
01FC
0104
ENDCHAR
STARTCHAR U_3578
ENCODING 13688
SWIDTH 1000 0
DWIDTH 16 0
BBX 16 16 0 -2
BITMAP 
0080
0040
7840
4800
4FFC
4800
4808
4A08
4A08
4910
7910
4910
0120
0020
0FFE
0000
ENDCHAR
STARTCHAR U_3579
ENCODING 13689
SWIDTH 1000 0
DWIDTH 16 0
BBX 16 16 0 -2
BITMAP 
0040
0048
7844
4840
4BFE
4880
4880
48FC
4944
4944
7948
4A50
0220
0450
0888
0306
ENDCHAR
STARTCHAR U_357A
ENCODING 13690
SWIDTH 1000 0
DWIDTH 16 0
BBX 16 16 0 -2
BITMAP 
0000
7CF8
4488
4488
4488
7CF8
0000
0000
FFFE
0800
1000
1FF0
0010
0010
00A0
0040
ENDCHAR
STARTCHAR U_357B
ENCODING 13691
SWIDTH 1000 0
DWIDTH 16 0
BBX 16 16 0 -2
BITMAP 
0200
0100
0000
7FFC
0100
0300
0D60
3118
C104
0100
1FF0
1010
1010
1010
1FF0
1010
ENDCHAR
STARTCHAR U_357C
ENCODING 13692
SWIDTH 1000 0
DWIDTH 16 0
BBX 16 16 0 -2
BITMAP 
0100
0100
79FE
4A02
4A02
4C8A
4852
4A22
4A52
4A8A
7A02
4BFE
0002
0002
0014
0008
ENDCHAR
STARTCHAR U_357D
ENCODING 13693
SWIDTH 1000 0
DWIDTH 16 0
BBX 16 16 0 -2
BITMAP 
0008
0088
7848
4A28
4A28
4A08
4A08
4A08
4A08
4A08
4A10
7A98
4B24
0224
0042
0082
ENDCHAR
STARTCHAR U_357E
ENCODING 13694
SWIDTH 1000 0
DWIDTH 16 0
BBX 16 16 0 -2
BITMAP 
0100
0100
0920
0910
1108
2104
4104
0000
0040
3E44
2248
2270
2240
2242
3E42
223E
ENDCHAR
STARTCHAR U_357F
ENCODING 13695
SWIDTH 1000 0
DWIDTH 16 0
BBX 16 16 0 -2
BITMAP 
0070
1F80
0100
0100
FFFE
0540
0920
3118
C006
1FF0
1010
1010
1010
1010
1FF0
1010
ENDCHAR
STARTCHAR U_3580
ENCODING 13696
SWIDTH 1000 0
DWIDTH 16 0
BBX 16 16 0 -2
BITMAP 
0040
0040
7BF8
4848
4FFE
4848
4BF8
4840
4840
4BF8
7840
4840
07FC
0040
0040
0040
ENDCHAR
STARTCHAR U_3581
ENCODING 13697
SWIDTH 1000 0
DWIDTH 16 0
BBX 16 16 0 -2
BITMAP 
0008
0190
7860
4898
4B04
4840
4840
4FFE
4880
4890
7910
4920
0248
0484
09FC
0084
ENDCHAR
STARTCHAR U_3582
ENCODING 13698
SWIDTH 1000 0
DWIDTH 16 0
BBX 16 16 0 -2
BITMAP 
0040
0040
7BF8
4A48
4A48
4BF8
4A48
4A48
4BF8
4840
7848
4830
0064
0194
060C
0004
ENDCHAR
STARTCHAR U_3583
ENCODING 13699
SWIDTH 1000 0
DWIDTH 16 0
BBX 16 16 0 -2
BITMAP 
0008
003C
7BC0
4A00
4A00
4BFE
4A00
4A00
4A00
4AFC
7A84
4A84
0484
0484
08FC
0084
ENDCHAR
STARTCHAR U_3584
ENCODING 13700
SWIDTH 1000 0
DWIDTH 16 0
BBX 16 16 0 -2
BITMAP 
0104
0124
7924
4924
4924
4924
4BB4
4B6C
4D24
4924
7924
4924
0124
0224
0204
0404
ENDCHAR
STARTCHAR U_3585
ENCODING 13701
SWIDTH 1000 0
DWIDTH 16 0
BBX 16 16 0 -2
BITMAP 
0028
0024
7824
4820
4BFE
4A20
4A24
4A24
4A24
4BA8
7A28
4A10
0212
042A
0446
0882
ENDCHAR
STARTCHAR U_3586
ENCODING 13702
SWIDTH 1000 0
DWIDTH 16 0
BBX 16 16 0 -2
BITMAP 
0050
0050
7850
4850
4BFE
4A52
4A52
4A52
4A52
4BFE
7A52
4A52
0252
0252
03FE
0202
ENDCHAR
STARTCHAR U_3587
ENCODING 13703
SWIDTH 1000 0
DWIDTH 16 0
BBX 16 16 0 -2
BITMAP 
0000
03FE
7820
4820
4840
4BFE
4A52
4A52
4A52
4A52
7A52
4A52
0252
0242
020A
0204
ENDCHAR
STARTCHAR U_3588
ENCODING 13704
SWIDTH 1000 0
DWIDTH 16 0
BBX 16 16 0 -2
BITMAP 
0208
3FD0
0220
FFFE
0200
0C70
3F84
C804
07FC
0000
1FF0
1010
1010
1010
1FF0
1010
ENDCHAR
STARTCHAR U_3589
ENCODING 13705
SWIDTH 1000 0
DWIDTH 16 0
BBX 16 16 0 -2
BITMAP 
0020
0020
7850
4888
4924
4A22
4C20
4920
493C
4920
7920
4920
0120
07FE
0000
0000
ENDCHAR
STARTCHAR U_358A
ENCODING 13706
SWIDTH 1000 0
DWIDTH 16 0
BBX 16 16 0 -2
BITMAP 
0000
03FC
7804
4804
49FC
4804
4804
4BFC
4808
4808
4FFE
7908
4888
0088
0028
0010
ENDCHAR
STARTCHAR U_358B
ENCODING 13707
SWIDTH 1000 0
DWIDTH 16 0
BBX 16 16 0 -2
BITMAP 
0100
0280
0440
1830
E44E
0440
0440
0440
0840
1040
0000
7C88
44B0
44C4
7C84
447C
ENDCHAR
STARTCHAR U_358C
ENCODING 13708
SWIDTH 1000 0
DWIDTH 16 0
BBX 16 16 0 -2
BITMAP 
0880
0880
13F0
3090
5090
9092
1112
120E
1400
0000
3E44
2258
2260
2242
3E42
223E
ENDCHAR
STARTCHAR U_358D
ENCODING 13709
SWIDTH 1000 0
DWIDTH 16 0
BBX 16 16 0 -2
BITMAP 
0040
0440
0240
1240
0840
09FC
7E40
0040
0040
0000
3E44
2258
2260
2242
3E42
223E
ENDCHAR
STARTCHAR U_358E
ENCODING 13710
SWIDTH 1000 0
DWIDTH 16 0
BBX 16 16 0 -2
BITMAP 
0080
7C88
44B0
44C4
4484
7C7C
0100
0280
0440
1830
E44E
0440
0440
0440
0840
1040
ENDCHAR
STARTCHAR U_358F
ENCODING 13711
SWIDTH 1000 0
DWIDTH 16 0
BBX 16 16 0 -2
BITMAP 
0000
01FC
7904
4904
49FC
4904
4904
49FC
4820
4820
79FC
4820
0020
0020
03FE
0000
ENDCHAR
STARTCHAR U_3590
ENCODING 13712
SWIDTH 1000 0
DWIDTH 16 0
BBX 16 16 0 -2
BITMAP 
7CF8
4488
4488
7CF8
0000
3FF0
0210
0210
FFFE
0210
0410
3FF0
0810
1000
2000
C000
ENDCHAR
STARTCHAR U_3591
ENCODING 13713
SWIDTH 1000 0
DWIDTH 16 0
BBX 16 16 0 -2
BITMAP 
0014
0012
7810
4FFE
4810
4A90
4A92
4A92
4FD2
4A94
7A94
4A88
028A
049A
0426
0842
ENDCHAR
STARTCHAR U_3592
ENCODING 13714
SWIDTH 1000 0
DWIDTH 16 0
BBX 16 16 0 -2
BITMAP 
0108
0088
7890
4BFC
4824
4824
4BFC
4A20
4A20
4BFE
7862
48A2
012A
0224
0420
0020
ENDCHAR
STARTCHAR U_3593
ENCODING 13715
SWIDTH 1000 0
DWIDTH 16 0
BBX 16 16 0 -2
BITMAP 
0100
01F8
7B08
4C90
4860
4998
4E46
4840
4BF8
4840
7BF8
4840
07FC
0040
0040
0040
ENDCHAR
STARTCHAR U_3594
ENCODING 13716
SWIDTH 1000 0
DWIDTH 16 0
BBX 16 16 0 -2
BITMAP 
0000
01FC
7820
4820
4820
4BFE
4850
4888
4904
4AFA
7C88
4888
0088
0088
00F8
0088
ENDCHAR
STARTCHAR U_3595
ENCODING 13717
SWIDTH 1000 0
DWIDTH 16 0
BBX 16 16 0 -2
BITMAP 
0040
0020
79FC
4800
4888
4850
4BFE
4820
4820
4820
79FC
4820
0020
0020
0020
0020
ENDCHAR
STARTCHAR U_3596
ENCODING 13718
SWIDTH 1000 0
DWIDTH 16 0
BBX 16 16 0 -2
BITMAP 
0200
0100
3FF8
0820
0440
FFFE
0100
0100
3FF8
0100
0100
3FF8
2008
2008
3FF8
2008
ENDCHAR
STARTCHAR U_3597
ENCODING 13719
SWIDTH 1000 0
DWIDTH 16 0
BBX 16 16 0 -2
BITMAP 
0040
0248
7A48
4A48
4BF8
4840
48A0
4910
4A88
4C46
7840
4BF0
0010
0020
0020
0040
ENDCHAR
STARTCHAR U_3598
ENCODING 13720
SWIDTH 1000 0
DWIDTH 16 0
BBX 16 16 0 -2
BITMAP 
0000
03FC
7A00
4A00
4AF8
4A00
4A00
4BFC
4AA0
4AA4
7AA8
4A90
0290
0488
04A4
08C2
ENDCHAR
STARTCHAR U_3599
ENCODING 13721
SWIDTH 1000 0
DWIDTH 16 0
BBX 16 16 0 -2
BITMAP 
1000
1000
7E7C
1244
1244
1244
227C
4A44
8400
0000
3E44
2258
2260
2242
3E42
223E
ENDCHAR
STARTCHAR U_359A
ENCODING 13722
SWIDTH 1000 0
DWIDTH 16 0
BBX 16 16 0 -2
BITMAP 
0810
0810
17FE
3010
5210
9110
1110
1050
1020
0000
3E44
2258
2260
2242
3E42
223E
ENDCHAR
STARTCHAR U_359B
ENCODING 13723
SWIDTH 1000 0
DWIDTH 16 0
BBX 16 16 0 -2
BITMAP 
0100
0100
7FFC
0100
0100
1FF0
1010
1010
1FF0
0000
3E44
2258
2260
2242
3E42
223E
ENDCHAR
STARTCHAR U_359C
ENCODING 13724
SWIDTH 1000 0
DWIDTH 16 0
BBX 16 16 0 -2
BITMAP 
0200
0100
FFFE
0000
1FF0
1010
1010
1FF0
0000
0000
3E44
2258
2260
2242
3E42
223E
ENDCHAR
STARTCHAR U_359D
ENCODING 13725
SWIDTH 1000 0
DWIDTH 16 0
BBX 16 16 0 -2
BITMAP 
0100
0100
3FF8
0100
0100
FFFE
0920
3118
C106
0000
3E44
2258
2260
2242
3E42
223E
ENDCHAR
STARTCHAR U_359E
ENCODING 13726
SWIDTH 1000 0
DWIDTH 16 0
BBX 16 16 0 -2
BITMAP 
0000
01FC
7904
4904
4904
49FC
4820
4820
4BFE
4A22
7A52
4A8A
030A
0202
020A
0204
ENDCHAR
STARTCHAR U_359F
ENCODING 13727
SWIDTH 1000 0
DWIDTH 16 0
BBX 16 16 0 -2
BITMAP 
001C
03E0
F084
9244
9148
9110
97FE
9402
9000
93F8
F108
9110
00A0
0040
01B0
060E
ENDCHAR
STARTCHAR U_35A0
ENCODING 13728
SWIDTH 1000 0
DWIDTH 16 0
BBX 16 16 0 -2
BITMAP 
0020
0020
7BFE
4850
4888
4904
4AFA
4800
4800
4BFE
7820
4924
0122
0222
00A0
0040
ENDCHAR
STARTCHAR U_35A1
ENCODING 13729
SWIDTH 1000 0
DWIDTH 16 0
BBX 16 16 0 -2
BITMAP 
0080
0040
F7FE
9120
9120
923C
9244
9664
9294
9348
F248
9230
0220
0250
0288
0306
ENDCHAR
STARTCHAR U_35A2
ENCODING 13730
SWIDTH 1000 0
DWIDTH 16 0
BBX 16 16 0 -2
BITMAP 
0080
0040
EFFE
A800
A890
A890
AA90
AA92
AADC
AA90
EA90
AA92
1292
12D2
270E
0000
ENDCHAR
STARTCHAR U_35A3
ENCODING 13731
SWIDTH 1000 0
DWIDTH 16 0
BBX 16 16 0 -2
BITMAP 
0040
0020
79FC
4800
4908
4890
4800
4BFE
4800
4800
79FC
4904
0104
0104
01FC
0104
ENDCHAR
STARTCHAR U_35A4
ENCODING 13732
SWIDTH 1000 0
DWIDTH 16 0
BBX 16 16 0 -2
BITMAP 
0000
01FC
7808
4810
4A22
4AAA
4A72
4A22
4A72
4AAA
7B26
4AA2
0242
0202
03FE
0002
ENDCHAR
STARTCHAR U_35A5
ENCODING 13733
SWIDTH 1000 0
DWIDTH 16 0
BBX 16 16 0 -2
BITMAP 
0000
07FC
F404
9434
95C4
9444
9444
97FC
9444
94E4
F554
964C
0444
0444
07FC
0404
ENDCHAR
STARTCHAR U_35A6
ENCODING 13734
SWIDTH 1000 0
DWIDTH 16 0
BBX 16 16 0 -2
BITMAP 
0040
0040
F7FC
9040
93F8
9248
93F8
9248
93F8
9040
F0E0
9150
0248
0C46
0040
0040
ENDCHAR
STARTCHAR U_35A7
ENCODING 13735
SWIDTH 1000 0
DWIDTH 16 0
BBX 16 16 0 -2
BITMAP 
001C
03E0
7A20
4BFE
4A20
4A92
4B0A
4A06
49FC
4904
7904
49FC
0104
0104
01FC
0104
ENDCHAR
STARTCHAR U_35A8
ENCODING 13736
SWIDTH 1000 0
DWIDTH 16 0
BBX 16 16 0 -2
BITMAP 
0000
01F8
7808
4808
49F8
4808
4808
4BFE
4820
4A22
7974
48A8
0124
0222
00A0
0040
ENDCHAR
STARTCHAR U_35A9
ENCODING 13737
SWIDTH 1000 0
DWIDTH 16 0
BBX 16 16 0 -2
BITMAP 
0000
0FC0
F4BC
94A4
94A4
97A4
94A4
94A8
97A8
94A8
F490
95D0
0EA8
00A8
00C4
0082
ENDCHAR
STARTCHAR U_35AA
ENCODING 13738
SWIDTH 1000 0
DWIDTH 16 0
BBX 16 16 0 -2
BITMAP 
0014
0012
7810
4FFE
4810
4810
4BD2
4A52
4A52
4A54
7BD4
4808
00EA
071A
0226
0042
ENDCHAR
STARTCHAR U_35AB
ENCODING 13739
SWIDTH 1000 0
DWIDTH 16 0
BBX 16 16 0 -2
BITMAP 
0020
0020
79FC
4820
4820
4BFE
4888
4944
4A42
48F8
7988
4A50
0020
0050
0188
0606
ENDCHAR
STARTCHAR U_35AC
ENCODING 13740
SWIDTH 1000 0
DWIDTH 16 0
BBX 16 16 0 -2
BITMAP 
0080
031C
7A04
4A04
4B9C
4A04
4A04
4BFC
4800
4800
7BF8
4908
0090
0060
0198
0606
ENDCHAR
STARTCHAR U_35AD
ENCODING 13741
SWIDTH 1000 0
DWIDTH 16 0
BBX 16 16 0 -2
BITMAP 
0000
03FC
F040
9040
97FE
90A0
9110
9208
9446
9040
F048
9264
0252
0452
0140
0080
ENDCHAR
STARTCHAR U_35AE
ENCODING 13742
SWIDTH 1000 0
DWIDTH 16 0
BBX 16 16 0 -2
BITMAP 
0040
0040
F0A0
9110
9208
9DF6
9000
97FC
94A4
94A4
F7FC
94A4
04A4
04A4
0414
0408
ENDCHAR
STARTCHAR U_35AF
ENCODING 13743
SWIDTH 1000 0
DWIDTH 16 0
BBX 16 16 0 -2
BITMAP 
3FF8
2008
2FE8
2008
27C8
2448
27C8
2028
2010
0000
3E44
2258
2260
2242
3E42
223E
ENDCHAR
STARTCHAR U_35B0
ENCODING 13744
SWIDTH 1000 0
DWIDTH 16 0
BBX 16 16 0 -2
BITMAP 
0080
7C88
44B0
44C4
4484
7C7C
0000
3FF8
2008
2FE8
2008
27C8
2448
27C8
2028
2010
ENDCHAR
STARTCHAR U_35B1
ENCODING 13745
SWIDTH 1000 0
DWIDTH 16 0
BBX 16 16 0 -2
BITMAP 
0100
FFFE
0880
10F8
3148
D328
1490
1060
1198
1606
0000
3FF8
2008
2008
3FF8
2008
ENDCHAR
STARTCHAR U_35B2
ENCODING 13746
SWIDTH 1000 0
DWIDTH 16 0
BBX 16 16 0 -2
BITMAP 
1000
1000
FE7C
2244
4444
3444
0844
147C
2244
C000
3E44
2258
2260
2242
3E42
223E
ENDCHAR
STARTCHAR U_35B3
ENCODING 13747
SWIDTH 1000 0
DWIDTH 16 0
BBX 16 16 0 -2
BITMAP 
1080
0880
47FC
2110
0A10
11A0
7060
1090
1308
0000
3E44
2258
2260
2242
3E42
223E
ENDCHAR
STARTCHAR U_35B4
ENCODING 13748
SWIDTH 1000 0
DWIDTH 16 0
BBX 16 16 0 -2
BITMAP 
0110
0110
7BFE
4910
4880
4880
49FC
4954
4A54
4C94
78A4
4924
0244
0084
0128
0210
ENDCHAR
STARTCHAR U_35B5
ENCODING 13749
SWIDTH 1000 0
DWIDTH 16 0
BBX 16 16 0 -2
BITMAP 
0000
01F8
7908
4908
49F8
4908
49F8
4908
49F8
4908
7908
4FFE
0000
0110
0208
0404
ENDCHAR
STARTCHAR U_35B6
ENCODING 13750
SWIDTH 1000 0
DWIDTH 16 0
BBX 16 16 0 -2
BITMAP 
0000
07FC
F0A0
90A0
97FC
94A4
94A4
94A4
97FC
9040
F040
97FC
0040
0040
0FFE
0000
ENDCHAR
STARTCHAR U_35B7
ENCODING 13751
SWIDTH 1000 0
DWIDTH 16 0
BBX 16 16 0 -2
BITMAP 
0000
01FC
7904
4904
49FC
4904
4904
49FC
4800
4BFE
7820
4920
013C
0120
02A0
047E
ENDCHAR
STARTCHAR U_35B8
ENCODING 13752
SWIDTH 1000 0
DWIDTH 16 0
BBX 16 16 0 -2
BITMAP 
0040
007C
7840
4BFE
4A42
4A78
4BC0
4A44
4A3C
4A00
7AFC
4A80
03FE
0480
0480
08FC
ENDCHAR
STARTCHAR U_35B9
ENCODING 13753
SWIDTH 1000 0
DWIDTH 16 0
BBX 16 16 0 -2
BITMAP 
0010
0110
7908
4A04
4DFA
4888
4908
4A28
4C10
4BF8
7AA8
4AA8
02A8
02A8
0FFE
0000
ENDCHAR
STARTCHAR U_35BA
ENCODING 13754
SWIDTH 1000 0
DWIDTH 16 0
BBX 16 16 0 -2
BITMAP 
0040
0040
F7FC
9040
93F8
9080
97FC
9110
9208
95F6
F110
9110
01F0
0110
0110
01F0
ENDCHAR
STARTCHAR U_35BB
ENCODING 13755
SWIDTH 1000 0
DWIDTH 16 0
BBX 16 16 0 -2
BITMAP 
0000
03F8
F090
9060
97FC
90A4
9128
9220
9460
9040
F7FC
90E0
0150
0248
0C46
0040
ENDCHAR
STARTCHAR U_35BC
ENCODING 13756
SWIDTH 1000 0
DWIDTH 16 0
BBX 16 16 0 -2
BITMAP 
0088
0088
7BFE
4888
4888
48F8
4888
4888
48F8
4820
7BFE
4870
00A8
0124
0222
0020
ENDCHAR
STARTCHAR U_35BD
ENCODING 13757
SWIDTH 1000 0
DWIDTH 16 0
BBX 16 16 0 -2
BITMAP 
0000
03FE
7820
4840
49FC
4904
4904
49FC
4904
49FC
7904
4904
01FC
0000
0088
0104
ENDCHAR
STARTCHAR U_35BE
ENCODING 13758
SWIDTH 1000 0
DWIDTH 16 0
BBX 16 16 0 -2
BITMAP 
0000
7EFC
4284
4284
7EFC
1010
0820
FFFE
0100
2108
2108
3FF8
0408
0800
3000
C000
ENDCHAR
STARTCHAR U_35BF
ENCODING 13759
SWIDTH 1000 0
DWIDTH 16 0
BBX 16 16 0 -2
BITMAP 
0000
0FDE
F492
9492
9494
9794
9498
9494
9792
9492
F492
95DA
0E94
0090
0090
0090
ENDCHAR
STARTCHAR U_35C0
ENCODING 13760
SWIDTH 1000 0
DWIDTH 16 0
BBX 16 16 0 -2
BITMAP 
0040
0040
E148
A148
A94A
AA52
AAD6
AB5A
A94A
AA52
ED6A
AF7A
094A
0842
0FFE
0002
ENDCHAR
STARTCHAR U_35C1
ENCODING 13761
SWIDTH 1000 0
DWIDTH 16 0
BBX 16 16 0 -2
BITMAP 
0000
03DE
7A52
4A52
4BDE
4800
49FC
4800
4BFE
4880
7900
49FC
0004
0004
0028
0010
ENDCHAR
STARTCHAR U_35C2
ENCODING 13762
SWIDTH 1000 0
DWIDTH 16 0
BBX 16 16 0 -2
BITMAP 
0020
0020
7924
4922
4A2A
4830
48C0
4F00
49FC
4904
79FC
4904
01FC
0104
01FC
0104
ENDCHAR
STARTCHAR U_35C3
ENCODING 13763
SWIDTH 1000 0
DWIDTH 16 0
BBX 16 16 0 -2
BITMAP 
0000
03FC
7A04
4BFC
4A20
4BFE
4A10
4A8A
4B06
4800
7BFC
4A04
03FC
0204
03FC
0204
ENDCHAR
STARTCHAR U_35C4
ENCODING 13764
SWIDTH 1000 0
DWIDTH 16 0
BBX 16 16 0 -2
BITMAP 
0000
03FC
7A94
4A94
4A94
4BFC
4880
4840
4FFE
4880
78F8
4888
0108
0108
0228
0410
ENDCHAR
STARTCHAR U_35C5
ENCODING 13765
SWIDTH 1000 0
DWIDTH 16 0
BBX 16 16 0 -2
BITMAP 
0100
013C
7924
4FE4
4924
493C
4924
4BA4
4AA4
4ABC
7AA4
4AA4
03A4
0044
0054
0088
ENDCHAR
STARTCHAR U_35C6
ENCODING 13766
SWIDTH 1000 0
DWIDTH 16 0
BBX 16 16 0 -2
BITMAP 
0088
0088
7BFE
4888
48F8
4820
49FC
4924
4924
49FC
7820
4BFE
0020
0020
0020
0020
ENDCHAR
STARTCHAR U_35C7
ENCODING 13767
SWIDTH 1000 0
DWIDTH 16 0
BBX 16 16 0 -2
BITMAP 
0000
03DE
7A42
4A42
4A42
4BDE
4A00
4A3E
4BD2
4A12
7A14
4BD4
0208
0214
0224
0242
ENDCHAR
STARTCHAR U_35C8
ENCODING 13768
SWIDTH 1000 0
DWIDTH 16 0
BBX 16 16 0 -2
BITMAP 
0000
03FC
7888
4850
4BFE
4A22
4BFE
4A22
4BFE
4A22
7840
4BFE
0042
0082
0114
0208
ENDCHAR
STARTCHAR U_35C9
ENCODING 13769
SWIDTH 1000 0
DWIDTH 16 0
BBX 16 16 0 -2
BITMAP 
0800
7F7C
0824
3E24
0844
7F54
0888
0400
0FE0
1440
0380
1C70
EFEE
0820
0FE0
0820
ENDCHAR
STARTCHAR U_35CA
ENCODING 13770
SWIDTH 1000 0
DWIDTH 16 0
BBX 16 16 0 -2
BITMAP 
0000
3C78
2448
2448
2448
2448
3C78
0000
0000
7EFC
4284
4284
4284
4284
7EFC
4284
ENDCHAR
STARTCHAR U_35CB
ENCODING 13771
SWIDTH 1000 0
DWIDTH 16 0
BBX 16 16 0 -2
BITMAP 
0080
0080
79FC
4A04
4C08
4BFE
4A00
4A80
4AFC
4B20
7A20
4BFE
0420
0450
0888
1306
ENDCHAR
STARTCHAR U_35CC
ENCODING 13772
SWIDTH 1000 0
DWIDTH 16 0
BBX 16 16 0 -2
BITMAP 
0040
0020
79FE
4902
4A04
49FC
4840
4888
49FC
4824
7820
49FC
0020
0020
03FE
0000
ENDCHAR
STARTCHAR U_35CD
ENCODING 13773
SWIDTH 1000 0
DWIDTH 16 0
BBX 16 16 0 -2
BITMAP 
0038
03C0
F040
9040
97FC
9150
9248
9446
93F8
9208
F208
93F8
0208
0208
03F8
0208
ENDCHAR
STARTCHAR U_35CE
ENCODING 13774
SWIDTH 1000 0
DWIDTH 16 0
BBX 16 16 0 -2
BITMAP 
0200
0200
F7BC
92A4
92A4
94A4
95BC
9840
9040
97FC
F0E0
9150
0248
0444
0842
0040
ENDCHAR
STARTCHAR U_35CF
ENCODING 13775
SWIDTH 1000 0
DWIDTH 16 0
BBX 16 16 0 -2
BITMAP 
0000
03FE
7810
4820
4868
48A4
4B22
4820
4800
4BFE
7820
4920
013C
0120
0120
07FE
ENDCHAR
STARTCHAR U_35D0
ENCODING 13776
SWIDTH 1000 0
DWIDTH 16 0
BBX 16 16 0 -2
BITMAP 
0040
0040
7BFC
4840
48A0
4910
4A88
4C46
4800
4BF8
7AA8
4AA8
02A8
02A8
0FFE
0000
ENDCHAR
STARTCHAR U_35D1
ENCODING 13777
SWIDTH 1000 0
DWIDTH 16 0
BBX 16 16 0 -2
BITMAP 
0100
03BC
EE10
A210
A23C
AF90
A210
A23C
A210
AF90
E27E
A210
0210
0210
0410
0810
ENDCHAR
STARTCHAR U_35D2
ENCODING 13778
SWIDTH 1000 0
DWIDTH 16 0
BBX 16 16 0 -2
BITMAP 
0080
0040
F7FE
9000
93F8
9208
9208
9208
93F8
90A4
F128
9310
0510
0948
0186
0100
ENDCHAR
STARTCHAR U_35D3
ENCODING 13779
SWIDTH 1000 0
DWIDTH 16 0
BBX 16 16 0 -2
BITMAP 
0010
0420
F2F8
9288
9088
90F8
9E80
9280
92FC
9284
F284
92FC
0284
0500
08FE
0000
ENDCHAR
STARTCHAR U_35D4
ENCODING 13780
SWIDTH 1000 0
DWIDTH 16 0
BBX 16 16 0 -2
BITMAP 
0040
007C
7840
4BFE
4A42
4A78
4BC4
4A3C
4A40
4A20
7BFE
4A88
0250
0420
0458
0986
ENDCHAR
STARTCHAR U_35D5
ENCODING 13781
SWIDTH 1000 0
DWIDTH 16 0
BBX 16 16 0 -2
BITMAP 
0088
0088
7BFE
4888
49FC
4888
4BFE
4820
49FC
4924
79FC
4924
03FE
0104
0114
0108
ENDCHAR
STARTCHAR U_35D6
ENCODING 13782
SWIDTH 1000 0
DWIDTH 16 0
BBX 16 16 0 -2
BITMAP 
003C
03C0
7844
4A24
4928
4900
4840
4B9C
4A04
4A04
7B9C
4A04
0204
0204
03FC
0204
ENDCHAR
STARTCHAR U_35D7
ENCODING 13783
SWIDTH 1000 0
DWIDTH 16 0
BBX 16 16 0 -2
BITMAP 
0040
7C80
45FC
4524
4524
7DFC
2124
2144
7DFC
2490
2510
27FE
4410
4410
9410
0810
ENDCHAR
STARTCHAR U_35D8
ENCODING 13784
SWIDTH 1000 0
DWIDTH 16 0
BBX 16 16 0 -2
BITMAP 
0028
0024
7BFE
4820
49FC
4924
49FC
4924
49FC
4924
7808
4BFE
0088
0048
0048
0018
ENDCHAR
STARTCHAR U_35D9
ENCODING 13785
SWIDTH 1000 0
DWIDTH 16 0
BBX 16 16 0 -2
BITMAP 
0080
0080
79FC
4A44
4954
49F4
4884
4928
4A90
49FC
7A44
4D54
01F4
0084
0128
0210
ENDCHAR
STARTCHAR U_35DA
ENCODING 13786
SWIDTH 1000 0
DWIDTH 16 0
BBX 16 16 0 -2
BITMAP 
0000
07FC
F0A0
90A0
97FC
94A4
94A4
97FC
9040
9040
F7FC
90E0
0150
0248
0C46
0040
ENDCHAR
STARTCHAR U_35DB
ENCODING 13787
SWIDTH 1000 0
DWIDTH 16 0
BBX 16 16 0 -2
BITMAP 
0210
0210
F3DE
9528
9884
9038
93C0
9040
9040
97FC
F040
90A0
00A0
0110
0208
0C06
ENDCHAR
STARTCHAR U_35DC
ENCODING 13788
SWIDTH 1000 0
DWIDTH 16 0
BBX 16 16 0 -2
BITMAP 
0080
0040
F7FC
9080
9108
93F0
9060
9184
97FE
9002
F7FC
9444
07FC
0444
07FC
0404
ENDCHAR
STARTCHAR U_35DD
ENCODING 13789
SWIDTH 1000 0
DWIDTH 16 0
BBX 16 16 0 -2
BITMAP 
0104
0084
7888
4800
4BFE
4820
4820
49FC
4820
4820
7BFE
4800
02A4
0252
0452
0000
ENDCHAR
STARTCHAR U_35DE
ENCODING 13790
SWIDTH 1000 0
DWIDTH 16 0
BBX 16 16 0 -2
BITMAP 
0008
0008
7788
527E
524A
544A
5748
5D7C
5554
5554
7554
5754
0548
0088
0114
0022
ENDCHAR
STARTCHAR U_35DF
ENCODING 13791
SWIDTH 1000 0
DWIDTH 16 0
BBX 16 16 0 -2
BITMAP 
2080
1040
87FC
4040
1040
23F8
E040
2040
27FC
2000
0000
7C88
44B0
44C4
7C84
447C
ENDCHAR
STARTCHAR U_35E0
ENCODING 13792
SWIDTH 1000 0
DWIDTH 16 0
BBX 16 16 0 -2
BITMAP 
0840
0840
7E84
13FE
2202
14FC
0884
1484
62FC
0000
3E44
2258
2260
2242
3E42
223E
ENDCHAR
STARTCHAR U_35E1
ENCODING 13793
SWIDTH 1000 0
DWIDTH 16 0
BBX 16 16 0 -2
BITMAP 
0440
FFFE
0440
1000
27F8
6110
A13C
2104
2214
2408
0000
7C88
44B0
44C4
7C84
447C
ENDCHAR
STARTCHAR U_35E2
ENCODING 13794
SWIDTH 1000 0
DWIDTH 16 0
BBX 16 16 0 -2
BITMAP 
01C8
0708
7108
5FE8
511E
57CA
554A
57CA
554A
57CA
710A
57CA
0112
01D2
0E2A
0444
ENDCHAR
STARTCHAR U_35E3
ENCODING 13795
SWIDTH 1000 0
DWIDTH 16 0
BBX 16 16 0 -2
BITMAP 
02A8
02A8
77FC
52A8
52AA
54E6
5800
57FC
5444
5040
73F8
5248
0248
0248
0258
0040
ENDCHAR
STARTCHAR U_35E4
ENCODING 13796
SWIDTH 1000 0
DWIDTH 16 0
BBX 16 16 0 -2
BITMAP 
0028
0024
3FFE
2220
2324
2224
2FA8
2218
2A92
522A
4646
8082
0FF8
0808
0FF8
0808
ENDCHAR
STARTCHAR U_35E5
ENCODING 13797
SWIDTH 1000 0
DWIDTH 16 0
BBX 16 16 0 -2
BITMAP 
0200
011E
77D2
5012
57D4
5454
57D8
5014
57D2
5092
7112
51DA
0714
0110
0510
0210
ENDCHAR
STARTCHAR U_35E6
ENCODING 13798
SWIDTH 1000 0
DWIDTH 16 0
BBX 16 16 0 -2
BITMAP 
0010
1F20
EACE
AAAA
AEAA
AAAA
AAAA
AEAA
AAAA
AAAA
EBEA
AEAC
1A28
0248
0248
0288
ENDCHAR
STARTCHAR U_35E7
ENCODING 13799
SWIDTH 1000 0
DWIDTH 16 0
BBX 16 16 0 -2
BITMAP 
0040
0020
7BFE
4A8A
4904
4BFE
4840
4888
49FC
4824
7820
49FC
0020
0020
03FE
0000
ENDCHAR
STARTCHAR U_35E8
ENCODING 13800
SWIDTH 1000 0
DWIDTH 16 0
BBX 16 16 0 -2
BITMAP 
0000
7F78
4848
5F4C
6480
5F78
4448
4A48
5130
7F4C
0000
3FF8
2008
2008
3FF8
2008
ENDCHAR
STARTCHAR U_35E9
ENCODING 13801
SWIDTH 1000 0
DWIDTH 16 0
BBX 16 16 0 -2
BITMAP 
0000
03DE
7842
4A52
494A
4A52
4842
4820
49FC
4904
7904
49FC
0104
0104
01FC
0104
ENDCHAR
STARTCHAR U_35EA
ENCODING 13802
SWIDTH 1000 0
DWIDTH 16 0
BBX 16 16 0 -2
BITMAP 
0090
0092
7AD4
4A9A
4AD2
4F4E
4888
49F0
4820
4844
7BFE
4822
0128
0224
04A2
0040
ENDCHAR
STARTCHAR U_35EB
ENCODING 13803
SWIDTH 1000 0
DWIDTH 16 0
BBX 16 16 0 -2
BITMAP 
0100
0110
7BDC
4A54
4D54
4A88
4908
4AF4
4C02
4800
7BFC
4840
0150
0248
0544
0080
ENDCHAR
STARTCHAR U_35EC
ENCODING 13804
SWIDTH 1000 0
DWIDTH 16 0
BBX 16 16 0 -2
BITMAP 
1110
0920
7FFE
4002
9FF4
1010
1FF0
0200
0FE0
34C0
0700
3880
03F8
1D30
01C0
3E00
ENDCHAR
STARTCHAR U_35ED
ENCODING 13805
SWIDTH 1000 0
DWIDTH 16 0
BBX 16 16 0 -2
BITMAP 
001C
01E0
7820
4924
48A8
4BFE
4870
48A8
4924
4A22
7840
4824
02A2
028A
0488
0078
ENDCHAR
STARTCHAR U_35EE
ENCODING 13806
SWIDTH 1000 0
DWIDTH 16 0
BBX 16 16 0 -2
BITMAP 
2020
2010
3DFE
4510
457C
A914
1914
117E
2114
7D14
A57C
2510
2528
3E28
0244
0482
ENDCHAR
STARTCHAR U_35EF
ENCODING 13807
SWIDTH 1000 0
DWIDTH 16 0
BBX 16 16 0 -2
BITMAP 
0108
1FD0
0120
7FFC
0200
0FF0
3810
CFF0
0810
0FF0
0000
7C88
44B0
44C4
7C84
447C
ENDCHAR
STARTCHAR U_35F0
ENCODING 13808
SWIDTH 1000 0
DWIDTH 16 0
BBX 16 16 0 -2
BITMAP 
0124
0124
7224
5424
5954
514A
5292
5610
5A10
5250
725C
5250
0250
02B0
029E
0300
ENDCHAR
STARTCHAR U_35F1
ENCODING 13809
SWIDTH 1000 0
DWIDTH 16 0
BBX 16 16 0 -2
BITMAP 
0140
0120
7BFE
4E20
4BFC
4A20
4BFC
4A20
4BFE
4A40
7840
4FFE
0150
0248
0C46
0040
ENDCHAR
STARTCHAR U_35F2
ENCODING 13810
SWIDTH 1000 0
DWIDTH 16 0
BBX 16 16 0 -2
BITMAP 
0040
03F8
7848
4FFE
4848
4BF8
4840
4FFE
4800
4BF8
7A48
4BF8
0248
03F8
0000
07FE
ENDCHAR
STARTCHAR U_35F3
ENCODING 13811
SWIDTH 1000 0
DWIDTH 16 0
BBX 16 16 0 -2
BITMAP 
0210
0210
7BDE
4A28
4D44
48A0
4910
4A08
4DF6
4800
7800
4BF8
0208
0208
03F8
0208
ENDCHAR
STARTCHAR U_35F4
ENCODING 13812
SWIDTH 1000 0
DWIDTH 16 0
BBX 16 16 0 -2
BITMAP 
079E
0492
F79E
9492
979E
9402
94F2
9492
94F2
9492
F4F2
9492
0492
0532
0402
0406
ENDCHAR
STARTCHAR U_35F5
ENCODING 13813
SWIDTH 1000 0
DWIDTH 16 0
BBX 16 16 0 -2
BITMAP 
0210
0290
EA90
AB3E
B222
A544
A890
B210
A290
AB10
EA28
B228
0528
08C4
1044
0082
ENDCHAR
STARTCHAR U_35F6
ENCODING 13814
SWIDTH 1000 0
DWIDTH 16 0
BBX 16 16 0 -2
BITMAP 
0024
03A8
7892
4D14
4A08
4C04
4BBA
48A8
48C6
4B80
7A3C
4B84
00A8
0090
02A8
0144
ENDCHAR
STARTCHAR U_35F7
ENCODING 13815
SWIDTH 1000 0
DWIDTH 16 0
BBX 16 16 0 -2
BITMAP 
0020
03FE
7A52
49FC
4850
49FC
4850
4BFE
4800
49FC
7904
4924
0124
0058
0084
0302
ENDCHAR
STARTCHAR U_35F8
ENCODING 13816
SWIDTH 1000 0
DWIDTH 16 0
BBX 16 16 0 -2
BITMAP 
0280
048E
E8E0
B140
A040
A24E
A5F4
AC44
B444
A554
E554
A574
0594
0404
0414
0408
ENDCHAR
STARTCHAR U_35F9
ENCODING 13817
SWIDTH 1000 0
DWIDTH 16 0
BBX 16 16 0 -2
BITMAP 
0140
0120
73FE
5620
5BFC
5220
53FC
5220
5220
53FE
7240
5024
0522
050A
08F8
0000
ENDCHAR
STARTCHAR U_35FA
ENCODING 13818
SWIDTH 1000 0
DWIDTH 16 0
BBX 16 16 0 -2
BITMAP 
0000
03F8
7080
57FC
5110
5208
5CA6
50A0
57BC
50A0
73B8
50A0
07BC
00A0
00A0
00A0
ENDCHAR
STARTCHAR U_35FB
ENCODING 13819
SWIDTH 1000 0
DWIDTH 16 0
BBX 16 16 0 -2
BITMAP 
0000
04F8
7288
52E8
50A8
50A8
5DFC
5504
5574
5554
7574
5504
0514
0508
0A00
11FE
ENDCHAR
STARTCHAR U_35FC
ENCODING 13820
SWIDTH 1000 0
DWIDTH 16 0
BBX 16 16 0 -2
BITMAP 
00A0
04A4
F2A8
90A0
97FC
9110
90A0
97FC
9040
93F8
F040
97FC
0150
0248
0C46
0040
ENDCHAR
STARTCHAR U_35FD
ENCODING 13821
SWIDTH 1000 0
DWIDTH 16 0
BBX 16 16 0 -2
BITMAP 
1100
2BDE
4A52
73D4
2A52
4BD2
7A1A
1294
2350
C240
0000
3FF8
2008
2008
3FF8
2008
ENDCHAR
STARTCHAR U_35FE
ENCODING 13822
SWIDTH 1000 0
DWIDTH 16 0
BBX 16 16 0 -2
BITMAP 
0510
0518
EFA8
A528
A76A
A2AA
AFAA
AAAC
AAAC
AFA8
E238
AFAA
022A
022A
0226
0220
ENDCHAR
STARTCHAR U_35FF
ENCODING 13823
SWIDTH 1000 0
DWIDTH 16 0
BBX 16 16 0 -2
BITMAP 
0000
079E
7492
579E
5492
579E
5402
55FA
5412
55D2
7552
55D2
0412
0452
042A
0404
ENDCHAR
STARTCHAR U_3600
ENCODING 13824
SWIDTH 1000 0
DWIDTH 16 0
BBX 16 16 0 -2
BITMAP 
0080
0338
7A08
4BB8
4A08
4A08
4BF8
4840
4A48
4950
4FFE
78E0
4950
0248
0C46
0040
ENDCHAR
STARTCHAR U_3601
ENCODING 13825
SWIDTH 1000 0
DWIDTH 16 0
BBX 16 16 0 -2
BITMAP 
0000
07FC
F4A4
97FC
9040
93F8
9040
97FC
9110
90A0
F3F8
9040
0FFE
0040
0040
0040
ENDCHAR
STARTCHAR U_3602
ENCODING 13826
SWIDTH 1000 0
DWIDTH 16 0
BBX 16 16 0 -2
BITMAP 
0108
0090
7BFE
4908
4908
4A52
4B9C
4908
4A52
4BDE
7840
48A4
02AA
028A
0478
0000
ENDCHAR
STARTCHAR U_3603
ENCODING 13827
SWIDTH 1000 0
DWIDTH 16 0
BBX 16 16 0 -2
BITMAP 
0088
03FE
7888
4820
4BFE
4840
48F8
4988
4A88
48F8
7840
4824
02A2
028A
0488
0078
ENDCHAR
STARTCHAR U_3604
ENCODING 13828
SWIDTH 1000 0
DWIDTH 16 0
BBX 16 16 0 -2
BITMAP 
0200
02FE
E2AA
A2AA
AFAA
A2FE
A620
A710
AAFE
AA20
F220
A23C
0224
0244
0254
0288
ENDCHAR
STARTCHAR U_3605
ENCODING 13829
SWIDTH 1000 0
DWIDTH 16 0
BBX 16 16 0 -2
BITMAP 
0240
0240
E4AE
A890
B300
A2E0
A45E
AC44
B5E4
A444
E554
A4E4
0444
0464
0584
040C
ENDCHAR
STARTCHAR U_3606
ENCODING 13830
SWIDTH 1000 0
DWIDTH 16 0
BBX 16 16 0 -2
BITMAP 
0040
0FFE
E040
A7FC
A000
A3F8
A208
AFFE
A802
A7FC
E110
A3F8
0040
07FC
0040
0FFE
ENDCHAR
STARTCHAR U_3607
ENCODING 13831
SWIDTH 1000 0
DWIDTH 16 0
BBX 16 16 0 -2
BITMAP 
0110
0554
F5B8
9910
92A8
9444
9000
97FC
9444
9040
F7FC
90E0
0150
0248
0C46
0040
ENDCHAR
STARTCHAR U_3608
ENCODING 13832
SWIDTH 1000 0
DWIDTH 16 0
BBX 16 16 0 -2
BITMAP 
0400
057C
F604
94A8
9390
907C
9414
9794
9A50
9250
9FDC
F250
9550
04B0
089E
0100
ENDCHAR
STARTCHAR U_3609
ENCODING 13833
SWIDTH 1000 0
DWIDTH 16 0
BBX 16 16 0 -2
BITMAP 
0210
0210
F3DE
9528
9084
9000
97BC
94A4
97A4
94A4
F7A4
9434
0528
06A0
0420
0020
ENDCHAR
STARTCHAR U_360A
ENCODING 13834
SWIDTH 1000 0
DWIDTH 16 0
BBX 16 16 0 -2
BITMAP 
07FC
0040
EFFE
A842
A358
A040
A358
A080
A040
AFFE
E000
A7FC
0000
07FC
0404
07FC
ENDCHAR
STARTCHAR U_360B
ENCODING 13835
SWIDTH 1000 0
DWIDTH 16 0
BBX 16 16 0 -2
BITMAP 
07DE
0512
77D2
5454
57C8
5514
57E2
5000
53FC
5204
73FC
5204
03FC
0204
03FC
0108
ENDCHAR
STARTCHAR U_360C
ENCODING 13836
SWIDTH 1000 0
DWIDTH 16 0
BBX 16 16 0 -2
BITMAP 
0202
03C2
E202
AFEA
AA2A
AB8A
AE4A
A9CA
A80A
AFEA
EA0A
AD4A
0A82
0DC2
12AA
2584
ENDCHAR
STARTCHAR U_360D
ENCODING 13837
SWIDTH 1000 0
DWIDTH 16 0
BBX 16 16 0 -2
BITMAP 
0108
014C
E52A
A548
A88E
A138
A288
A7EA
BC8A
A7EC
E48C
A7E8
048A
07FA
0426
0442
ENDCHAR
STARTCHAR U_360E
ENCODING 13838
SWIDTH 1000 0
DWIDTH 16 0
BBX 16 16 0 -2
BITMAP 
0400
02FE
E202
A802
AB92
A892
AFDE
AAAA
ABCA
AAAA
EB92
AAD2
0FAA
08C6
0882
0806
ENDCHAR
STARTCHAR U_360F
ENCODING 13839
SWIDTH 1000 0
DWIDTH 16 0
BBX 16 16 0 -2
BITMAP 
2110
17FE
1080
03F8
F208
13F8
1208
13F8
1208
13F8
2800
47FE
0090
3EE4
2284
3E7C
ENDCHAR
STARTCHAR U_3610
ENCODING 13840
SWIDTH 1000 0
DWIDTH 16 0
BBX 16 16 0 -2
BITMAP 
0010
07C8
753E
57C0
5514
57D2
5522
5500
57D4
5054
7554
5548
0548
0454
0054
01A2
ENDCHAR
STARTCHAR U_3611
ENCODING 13841
SWIDTH 1000 0
DWIDTH 16 0
BBX 16 16 0 -2
BITMAP 
0410
0410
1F7C
E414
A414
AEFE
A014
AE14
A07C
BF10
E454
0438
1654
2512
1450
0820
ENDCHAR
STARTCHAR U_3612
ENCODING 13842
SWIDTH 1000 0
DWIDTH 16 0
BBX 16 16 0 -2
BITMAP 
0C38
71E0
1020
13FE
FD24
31FC
3924
55FC
5020
93FE
1000
7C88
44B0
44C4
7C84
447C
ENDCHAR
STARTCHAR U_3613
ENCODING 13843
SWIDTH 1000 0
DWIDTH 16 0
BBX 16 16 0 -2
BITMAP 
07BC
04A4
F7BC
94A4
97BC
9444
95F4
9444
95F4
9554
F5F4
9554
05F4
04E4
0554
044C
ENDCHAR
STARTCHAR U_3614
ENCODING 13844
SWIDTH 1000 0
DWIDTH 16 0
BBX 16 16 0 -2
BITMAP 
0040
07FE
7492
53FC
5090
53FC
5090
57FE
5108
53FC
750A
51F8
0108
01F8
0090
0108
ENDCHAR
STARTCHAR U_3615
ENCODING 13845
SWIDTH 1000 0
DWIDTH 16 0
BBX 16 16 0 -2
BITMAP 
0090
07FE
7890
4BE8
4A88
4BCE
4A50
4BD4
4AA2
4BE2
7800
4BFC
0294
0294
07FE
0000
ENDCHAR
STARTCHAR U_3616
ENCODING 13846
SWIDTH 1000 0
DWIDTH 16 0
BBX 16 16 0 -2
BITMAP 
0200
011E
EFC4
A448
A29E
AFD2
A912
AA1E
AC92
A91E
EA12
AC52
089E
0900
120C
0412
ENDCHAR
STARTCHAR U_3617
ENCODING 13847
SWIDTH 1000 0
DWIDTH 16 0
BBX 16 16 0 -2
BITMAP 
07BC
04A4
F7BC
94A4
97BC
94A4
97BC
9120
93FE
9220
F7FC
9A20
03FC
0220
03FE
0200
ENDCHAR
STARTCHAR U_3618
ENCODING 13848
SWIDTH 1000 0
DWIDTH 16 0
BBX 16 16 0 -2
BITMAP 
2104
47C8
8812
F3BC
2008
4B92
F83E
0380
AAAA
ABAA
0000
3FF8
2008
2008
3FF8
2008
ENDCHAR
STARTCHAR U_3619
ENCODING 13849
SWIDTH 1000 0
DWIDTH 16 0
BBX 16 16 0 -2
BITMAP 
07BC
04A4
77BC
5000
57FE
5400
5590
549E
57D4
5564
75D4
5554
05D4
0568
0BC8
1054
ENDCHAR
STARTCHAR U_361A
ENCODING 13850
SWIDTH 1000 0
DWIDTH 16 0
BBX 16 16 0 -2
BITMAP 
0FBE
08A2
EFBE
A8A2
AFBE
A802
AB92
A892
AFDE
AAAA
EBCA
AAAA
0B92
0AD2
0FAA
08C4
ENDCHAR
STARTCHAR U_361B
ENCODING 13851
SWIDTH 1000 0
DWIDTH 16 0
BBX 16 16 0 -2
BITMAP 
0040
00A0
7318
5DF6
5000
53F8
5208
53F8
5110
57DC
7284
4FFC
0450
07DC
0452
04CE
ENDCHAR
STARTCHAR U_361C
ENCODING 13852
SWIDTH 1000 0
DWIDTH 16 0
BBX 16 16 0 -2
BITMAP 
5118
4B94
7C3E
D3A8
7C7E
53A8
7C3E
53A8
7EBE
43A0
0000
3FF8
2008
2008
3FF8
2008
ENDCHAR
STARTCHAR U_361D
ENCODING 13853
SWIDTH 1000 0
DWIDTH 16 0
BBX 16 16 0 -2
BITMAP 
0000
7FFC
4004
4004
4FC4
4044
4844
4484
4284
4104
4284
4444
4844
4004
7FFC
4004
ENDCHAR
STARTCHAR U_361E
ENCODING 13854
SWIDTH 1000 0
DWIDTH 16 0
BBX 16 16 0 -2
BITMAP 
0000
7FFC
4204
4204
4204
5FE4
4224
4224
4224
4424
4424
4824
4944
5084
7FFC
4004
ENDCHAR
STARTCHAR U_361F
ENCODING 13855
SWIDTH 1000 0
DWIDTH 16 0
BBX 16 16 0 -2
BITMAP 
0000
7FFC
4004
4444
4444
4444
5FF4
4444
4444
4444
4844
4844
5044
4004
7FFC
4004
ENDCHAR
STARTCHAR U_3620
ENCODING 13856
SWIDTH 1000 0
DWIDTH 16 0
BBX 16 16 0 -2
BITMAP 
0000
7FFC
4004
4204
4144
4144
4484
54A4
5514
6654
4444
4BC4
5004
4004
7FFC
4004
ENDCHAR
STARTCHAR U_3621
ENCODING 13857
SWIDTH 1000 0
DWIDTH 16 0
BBX 16 16 0 -2
BITMAP 
0000
7FFC
4004
4004
5FF4
5114
5114
5FF4
5114
5114
5FF4
5114
4104
4104
7FFC
4004
ENDCHAR
STARTCHAR U_3622
ENCODING 13858
SWIDTH 1000 0
DWIDTH 16 0
BBX 16 16 0 -2
BITMAP 
0000
7FFC
4104
4924
4524
4544
5FF4
4284
4284
4284
4494
4894
5074
4004
7FFC
4004
ENDCHAR
STARTCHAR U_3623
ENCODING 13859
SWIDTH 1000 0
DWIDTH 16 0
BBX 16 16 0 -2
BITMAP 
7FFC
4004
47C4
4444
47C4
4004
4FE4
4824
4FE4
4824
4FE4
4824
48A4
4844
7FFC
4004
ENDCHAR
STARTCHAR U_3624
ENCODING 13860
SWIDTH 1000 0
DWIDTH 16 0
BBX 16 16 0 -2
BITMAP 
0000
7FFC
4144
6554
5554
4774
6414
57F4
4414
5774
6554
4554
4954
5014
7FFC
4004
ENDCHAR
STARTCHAR U_3625
ENCODING 13861
SWIDTH 1000 0
DWIDTH 16 0
BBX 16 16 0 -2
BITMAP 
FFFE
8002
861A
F8E2
AA42
9492
90E2
BE4A
C8FA
BE22
88AA
AB26
BE62
8002
FFFE
8002
ENDCHAR
STARTCHAR U_3626
ENCODING 13862
SWIDTH 1000 0
DWIDTH 16 0
BBX 16 16 0 -2
BITMAP 
1040
1040
1040
1040
11FC
FE44
1044
1044
1044
1084
1684
1884
E104
4104
0228
0410
ENDCHAR
STARTCHAR U_3627
ENCODING 13863
SWIDTH 1000 0
DWIDTH 16 0
BBX 16 16 0 -2
BITMAP 
1000
11F8
1008
1050
1020
FC10
13FE
1022
1024
1020
1020
1C20
E020
4020
00A0
0040
ENDCHAR
STARTCHAR U_3628
ENCODING 13864
SWIDTH 1000 0
DWIDTH 16 0
BBX 16 16 0 -2
BITMAP 
2020
2020
2020
2020
23FE
FA22
2222
2222
2252
224A
228A
3B02
E202
4202
020A
0204
ENDCHAR
STARTCHAR U_3629
ENCODING 13865
SWIDTH 1000 0
DWIDTH 16 0
BBX 16 16 0 -2
BITMAP 
1010
1110
1110
1112
1112
FD14
11D8
1110
1110
1110
1110
1D12
E152
4192
010E
0000
ENDCHAR
STARTCHAR U_362A
ENCODING 13866
SWIDTH 1000 0
DWIDTH 16 0
BBX 16 16 0 -2
BITMAP 
1008
103C
11E0
1020
1020
FC3C
11E0
1020
1020
103E
13E0
1C20
E022
4022
0022
001E
ENDCHAR
STARTCHAR U_362B
ENCODING 13867
SWIDTH 1000 0
DWIDTH 16 0
BBX 16 16 0 -2
BITMAP 
1088
1088
1088
1088
11FC
FC88
1088
1088
13FE
1088
1088
1C88
E088
4108
0108
0208
ENDCHAR
STARTCHAR U_362C
ENCODING 13868
SWIDTH 1000 0
DWIDTH 16 0
BBX 16 16 0 -2
BITMAP 
2100
2100
2100
21FC
FA04
2484
2084
2104
2144
2224
27F4
3A14
E004
4004
0028
0010
ENDCHAR
STARTCHAR U_362D
ENCODING 13869
SWIDTH 1000 0
DWIDTH 16 0
BBX 16 16 0 -2
BITMAP 
2080
2080
213E
2102
2242
FA42
27C2
2082
2082
2102
2142
3A22
E7E2
4222
000A
0004
ENDCHAR
STARTCHAR U_362E
ENCODING 13870
SWIDTH 1000 0
DWIDTH 16 0
BBX 16 16 0 -2
BITMAP 
1000
11FC
1104
1104
1104
FD04
11FC
1124
1120
1120
1110
1D10
E208
4208
0404
0802
ENDCHAR
STARTCHAR U_362F
ENCODING 13871
SWIDTH 1000 0
DWIDTH 16 0
BBX 16 16 0 -2
BITMAP 
1080
1080
1100
11FE
1200
FC40
1040
13FC
1044
1044
1084
1C84
E104
4104
0228
0410
ENDCHAR
STARTCHAR U_3630
ENCODING 13872
SWIDTH 1000 0
DWIDTH 16 0
BBX 16 16 0 -2
BITMAP 
1010
1110
1090
1090
1010
FD10
1090
1090
1010
101E
13F0
1C10
E010
4010
0010
0010
ENDCHAR
STARTCHAR U_3631
ENCODING 13873
SWIDTH 1000 0
DWIDTH 16 0
BBX 16 16 0 -2
BITMAP 
1020
1020
1020
11FC
1124
FD24
11FC
1124
1124
1124
13FE
1D04
E104
4104
0114
0108
ENDCHAR
STARTCHAR U_3632
ENCODING 13874
SWIDTH 1000 0
DWIDTH 16 0
BBX 16 16 0 -2
BITMAP 
2000
23FC
2204
2204
23FC
FA40
2240
2240
23F8
2248
2248
3A48
E488
448A
090A
0206
ENDCHAR
STARTCHAR U_3633
ENCODING 13875
SWIDTH 1000 0
DWIDTH 16 0
BBX 16 16 0 -2
BITMAP 
0440
0444
7C48
0470
0440
0C42
3442
C43E
0100
0100
3FF8
0100
0100
0100
FFFE
0000
ENDCHAR
STARTCHAR U_3634
ENCODING 13876
SWIDTH 1000 0
DWIDTH 16 0
BBX 16 16 0 -2
BITMAP 
0100
0110
7910
4910
4910
4928
4924
7944
0100
0100
3FF8
0100
0100
0100
FFFE
0000
ENDCHAR
STARTCHAR U_3635
ENCODING 13877
SWIDTH 1000 0
DWIDTH 16 0
BBX 16 16 0 -2
BITMAP 
1040
1040
1040
17FE
1080
FCA0
1120
11FC
1324
1524
1124
1D24
E134
4128
0020
0020
ENDCHAR
STARTCHAR U_3636
ENCODING 13878
SWIDTH 1000 0
DWIDTH 16 0
BBX 16 16 0 -2
BITMAP 
0810
0810
1EFC
2210
5290
0C90
08FE
1010
2010
4110
0100
3FF8
0100
0100
FFFE
0000
ENDCHAR
STARTCHAR U_3637
ENCODING 13879
SWIDTH 1000 0
DWIDTH 16 0
BBX 16 16 0 -2
BITMAP 
1110
1110
13FC
1110
1110
FC00
1208
1208
1110
1110
10A0
1C40
E0A0
4110
0208
0C06
ENDCHAR
STARTCHAR U_3638
ENCODING 13880
SWIDTH 1000 0
DWIDTH 16 0
BBX 16 16 0 -2
BITMAP 
0000
FFFE
1040
1044
3E48
4270
A440
1842
1042
213E
C100
3FF8
0100
0100
FFFE
0000
ENDCHAR
STARTCHAR U_3639
ENCODING 13881
SWIDTH 1000 0
DWIDTH 16 0
BBX 16 16 0 -2
BITMAP 
0880
0888
2890
2EA0
28C0
2884
2E84
F07C
0100
0100
3FF8
0100
0100
0100
FFFE
0000
ENDCHAR
STARTCHAR U_363A
ENCODING 13882
SWIDTH 1000 0
DWIDTH 16 0
BBX 16 16 0 -2
BITMAP 
2120
2128
2124
2224
FA20
263E
2BE0
2224
2224
2228
2228
3A10
E212
422A
0246
0282
ENDCHAR
STARTCHAR U_363B
ENCODING 13883
SWIDTH 1000 0
DWIDTH 16 0
BBX 16 16 0 -2
BITMAP 
2000
23FE
2202
2222
2222
FA22
23FE
2222
2222
2252
224A
3A8A
E302
4202
03FE
0202
ENDCHAR
STARTCHAR U_363C
ENCODING 13884
SWIDTH 1000 0
DWIDTH 16 0
BBX 16 16 0 -2
BITMAP 
1040
1044
11F4
1048
1050
FDFE
1040
1080
11FE
1240
1480
1CFC
E004
4004
0028
0010
ENDCHAR
STARTCHAR U_363D
ENCODING 13885
SWIDTH 1000 0
DWIDTH 16 0
BBX 16 16 0 -2
BITMAP 
0840
0848
7F44
0844
0840
FFFE
0040
0844
0844
7F44
0828
082A
0F12
F02A
4046
0082
ENDCHAR
STARTCHAR U_363E
ENCODING 13886
SWIDTH 1000 0
DWIDTH 16 0
BBX 16 16 0 -2
BITMAP 
2040
2020
23FE
2202
2404
F800
21FC
2020
2020
2020
23FE
3820
E020
4020
00A0
0040
ENDCHAR
STARTCHAR U_363F
ENCODING 13887
SWIDTH 1000 0
DWIDTH 16 0
BBX 16 16 0 -2
BITMAP 
1000
11FC
1104
1104
11FC
FD04
1104
11FC
1020
1020
11FC
1C20
E020
4020
03FE
0000
ENDCHAR
STARTCHAR U_3640
ENCODING 13888
SWIDTH 1000 0
DWIDTH 16 0
BBX 16 16 0 -2
BITMAP 
2080
2040
27FC
2404
2110
FA08
2484
2080
23F0
2090
2090
3910
E112
4212
040E
0800
ENDCHAR
STARTCHAR U_3641
ENCODING 13889
SWIDTH 1000 0
DWIDTH 16 0
BBX 16 16 0 -2
BITMAP 
1080
1080
10FE
1100
12FC
FC84
10A4
1094
13FE
1084
1124
1D14
E1FE
4004
0028
0010
ENDCHAR
STARTCHAR U_3642
ENCODING 13890
SWIDTH 1000 0
DWIDTH 16 0
BBX 16 16 0 -2
BITMAP 
1104
1084
1088
1010
11FC
FD04
1104
1104
11FC
1050
1050
1C90
E092
4112
020E
0400
ENDCHAR
STARTCHAR U_3643
ENCODING 13891
SWIDTH 1000 0
DWIDTH 16 0
BBX 16 16 0 -2
BITMAP 
1010
1038
11C0
1100
1100
FDFC
1110
1110
1110
1110
13FE
1C00
E090
4108
0204
0402
ENDCHAR
STARTCHAR U_3644
ENCODING 13892
SWIDTH 1000 0
DWIDTH 16 0
BBX 16 16 0 -2
BITMAP 
1110
1112
1114
11D8
1110
FD12
1152
118E
1120
1020
11FC
1C20
E020
4020
03FE
0000
ENDCHAR
STARTCHAR U_3645
ENCODING 13893
SWIDTH 1000 0
DWIDTH 16 0
BBX 16 16 0 -2
BITMAP 
2000
23F8
2208
2208
2208
FBF8
2040
2040
27FC
20E0
2150
3A48
E444
4842
0040
0040
ENDCHAR
STARTCHAR U_3646
ENCODING 13894
SWIDTH 1000 0
DWIDTH 16 0
BBX 16 16 0 -2
BITMAP 
2040
2020
23FE
2202
2444
F840
23FE
2040
2090
2090
2110
3920
E224
4242
04FE
0842
ENDCHAR
STARTCHAR U_3647
ENCODING 13895
SWIDTH 1000 0
DWIDTH 16 0
BBX 16 16 0 -2
BITMAP 
1000
13FE
1040
1080
1144
FE24
1068
12B0
1130
12A8
1068
1CA4
E122
4220
00A0
0040
ENDCHAR
STARTCHAR U_3648
ENCODING 13896
SWIDTH 1000 0
DWIDTH 16 0
BBX 16 16 0 -2
BITMAP 
2040
2040
207C
2040
23FC
FA44
2270
23C0
2244
223C
2200
3AF0
E490
4492
0912
120E
ENDCHAR
STARTCHAR U_3649
ENCODING 13897
SWIDTH 1000 0
DWIDTH 16 0
BBX 16 16 0 -2
BITMAP 
1050
1050
1050
11FC
1154
FD54
1154
11FC
1154
1154
1D54
E3FE
4000
0088
0104
0202
ENDCHAR
STARTCHAR U_364A
ENCODING 13898
SWIDTH 1000 0
DWIDTH 16 0
BBX 16 16 0 -2
BITMAP 
2000
21FC
2100
21F8
2100
F9F8
2100
2FFE
2280
2248
2250
3A20
E210
4288
0306
0200
ENDCHAR
STARTCHAR U_364B
ENCODING 13899
SWIDTH 1000 0
DWIDTH 16 0
BBX 16 16 0 -2
BITMAP 
1088
1088
13FE
1088
1088
FCF8
1088
1088
10F8
1088
1C88
E3FE
4000
0088
0104
0202
ENDCHAR
STARTCHAR U_364C
ENCODING 13900
SWIDTH 1000 0
DWIDTH 16 0
BBX 16 16 0 -2
BITMAP 
1020
1020
11FC
1024
13FE
FC24
11FC
1020
1124
1124
1174
1DAC
E124
4124
0224
0424
ENDCHAR
STARTCHAR U_364D
ENCODING 13901
SWIDTH 1000 0
DWIDTH 16 0
BBX 16 16 0 -2
BITMAP 
2000
27BC
2084
2294
2108
FA94
24A4
2840
2000
27BC
20A4
3AA4
E128
4290
04A8
0846
ENDCHAR
STARTCHAR U_364E
ENCODING 13902
SWIDTH 1000 0
DWIDTH 16 0
BBX 16 16 0 -2
BITMAP 
2014
2012
27FE
2410
F410
27F0
2492
2492
27D2
2554
3554
E488
454A
0A1A
0826
1042
ENDCHAR
STARTCHAR U_364F
ENCODING 13903
SWIDTH 1000 0
DWIDTH 16 0
BBX 16 16 0 -2
BITMAP 
1100
1100
11FE
1200
15FC
FD04
11FC
1104
11FC
1080
10FC
1D08
E290
4060
0198
0606
ENDCHAR
STARTCHAR U_3650
ENCODING 13904
SWIDTH 1000 0
DWIDTH 16 0
BBX 16 16 0 -2
BITMAP 
1020
1124
1124
1124
11FC
FC00
13FE
1020
1040
11FC
1154
1D54
E154
4154
0154
010C
ENDCHAR
STARTCHAR U_3651
ENCODING 13905
SWIDTH 1000 0
DWIDTH 16 0
BBX 16 16 0 -2
BITMAP 
00F0
3F00
0100
1FF0
1110
1FF0
0100
7FFC
4124
41F4
5E14
4008
0100
3FF8
0100
FFFE
ENDCHAR
STARTCHAR U_3652
ENCODING 13906
SWIDTH 1000 0
DWIDTH 16 0
BBX 16 16 0 -2
BITMAP 
00F8
7E08
4A50
4A20
7EFC
4A24
4A28
7E20
00A0
0140
0100
3FF8
0100
0100
FFFE
0000
ENDCHAR
STARTCHAR U_3653
ENCODING 13907
SWIDTH 1000 0
DWIDTH 16 0
BBX 16 16 0 -2
BITMAP 
0100
0100
3FF8
0100
FFFE
0820
3EF8
0820
0E20
78FC
0100
3FF8
0100
0100
FFFE
0000
ENDCHAR
STARTCHAR U_3654
ENCODING 13908
SWIDTH 1000 0
DWIDTH 16 0
BBX 16 16 0 -2
BITMAP 
1040
1040
11FC
1084
13FE
FC00
11FC
1104
11FC
1020
13FE
1C20
E220
43FE
0020
0020
ENDCHAR
STARTCHAR U_3655
ENCODING 13909
SWIDTH 1000 0
DWIDTH 16 0
BBX 16 16 0 -2
BITMAP 
2000
23FE
2222
23FE
2222
FBFE
2000
21FC
2104
21FC
2104
39FC
E104
4104
0114
0108
ENDCHAR
STARTCHAR U_3656
ENCODING 13910
SWIDTH 1000 0
DWIDTH 16 0
BBX 16 16 0 -2
BITMAP 
1004
101E
13E0
1020
11FC
FD24
1124
11FC
1020
13FE
1222
1E2A
E2FA
4202
020A
0204
ENDCHAR
STARTCHAR U_3657
ENCODING 13911
SWIDTH 1000 0
DWIDTH 16 0
BBX 16 16 0 -2
BITMAP 
2000
23F8
2248
2248
23F8
FA48
2248
23F8
2000
27FE
2240
3A44
E228
4290
0308
0206
ENDCHAR
STARTCHAR U_3658
ENCODING 13912
SWIDTH 1000 0
DWIDTH 16 0
BBX 16 16 0 -2
BITMAP 
2000
23FE
2050
2050
23FE
FA52
2252
23FE
2000
2040
27FE
3888
E190
4060
00D8
0304
ENDCHAR
STARTCHAR U_3659
ENCODING 13913
SWIDTH 1000 0
DWIDTH 16 0
BBX 16 16 0 -2
BITMAP 
2120
1110
97FE
4128
4934
0928
1132
E124
223A
2262
259E
0100
3FF8
0100
0100
FFFE
ENDCHAR
STARTCHAR U_365A
ENCODING 13914
SWIDTH 1000 0
DWIDTH 16 0
BBX 16 16 0 -2
BITMAP 
1088
1050
13FE
1020
11FC
FC20
13FE
1000
10A0
10FC
1120
1C20
E3FE
4020
0020
0020
ENDCHAR
STARTCHAR U_365B
ENCODING 13915
SWIDTH 1000 0
DWIDTH 16 0
BBX 16 16 0 -2
BITMAP 
1028
1024
13FE
1020
11FC
FD24
11FC
1124
11FC
1124
1C08
E3FE
4088
0048
0048
0018
ENDCHAR
STARTCHAR U_365C
ENCODING 13916
SWIDTH 1000 0
DWIDTH 16 0
BBX 16 16 0 -2
BITMAP 
0100
FFFE
0000
1FF0
1010
1FF0
0000
7FFC
4004
4FE4
4824
4FEC
0100
3FF8
0100
FFFE
ENDCHAR
STARTCHAR U_365D
ENCODING 13917
SWIDTH 1000 0
DWIDTH 16 0
BBX 16 16 0 -2
BITMAP 
2040
21FC
2044
2094
2108
FBDE
214A
214A
2294
21FC
2104
39FC
E104
41FC
0104
010C
ENDCHAR
STARTCHAR U_365E
ENCODING 13918
SWIDTH 1000 0
DWIDTH 16 0
BBX 16 16 0 -2
BITMAP 
1020
1040
11FC
1104
11FC
FD04
11FC
1104
11FC
1020
13FE
1C70
E0A8
4124
0222
0020
ENDCHAR
STARTCHAR U_365F
ENCODING 13919
SWIDTH 1000 0
DWIDTH 16 0
BBX 16 16 0 -2
BITMAP 
2100
209E
23D2
2252
2252
FBDE
2252
2252
23D2
221E
2292
3A52
E2D2
4352
022A
0044
ENDCHAR
STARTCHAR U_3660
ENCODING 13920
SWIDTH 1000 0
DWIDTH 16 0
BBX 16 16 0 -2
BITMAP 
7F78
4848
5F4C
6480
5F78
4448
4A48
5130
7F4C
0000
0100
3FF8
0100
0100
FFFE
0000
ENDCHAR
STARTCHAR U_3661
ENCODING 13921
SWIDTH 1000 0
DWIDTH 16 0
BBX 16 16 0 -2
BITMAP 
2124
2124
2224
2424
2954
F94A
2292
2610
2A10
2250
225C
3A50
E250
42B0
029E
0300
ENDCHAR
STARTCHAR U_3662
ENCODING 13922
SWIDTH 1000 0
DWIDTH 16 0
BBX 16 16 0 -2
BITMAP 
2088
2088
23FE
2088
2088
F8F8
2020
23FE
2222
2332
22AA
3B76
E222
4222
022A
0224
ENDCHAR
STARTCHAR U_3663
ENCODING 13923
SWIDTH 1000 0
DWIDTH 16 0
BBX 16 16 0 -2
BITMAP 
2000
2F3E
2120
213C
F120
2F3C
2820
28FE
2850
2F52
3154
E148
4148
0144
0A62
0440
ENDCHAR
STARTCHAR U_3664
ENCODING 13924
SWIDTH 1000 0
DWIDTH 16 0
BBX 16 16 0 -2
BITMAP 
2040
207C
2040
23FE
2242
FA78
23C4
223C
2208
22F0
2324
3AA8
E5FE
4420
08A0
0040
ENDCHAR
STARTCHAR U_3665
ENCODING 13925
SWIDTH 1000 0
DWIDTH 16 0
BBX 16 16 0 -2
BITMAP 
2080
2040
27FC
2110
FA48
2484
2120
23F0
2010
2088
2150
3B20
E510
4948
0186
0100
ENDCHAR
STARTCHAR U_3666
ENCODING 13926
SWIDTH 1000 0
DWIDTH 16 0
BBX 16 16 0 -2
BITMAP 
0808
1448
2228
5C88
8848
7F0E
08F8
2A08
4908
1808
0100
3FF8
0100
0100
FFFE
0000
ENDCHAR
STARTCHAR U_3667
ENCODING 13927
SWIDTH 1000 0
DWIDTH 16 0
BBX 16 16 0 -2
BITMAP 
2000
23FE
2050
23DE
2252
FA52
23DE
2050
23FE
2222
2222
3BFE
E222
4222
03FE
0202
ENDCHAR
STARTCHAR U_3668
ENCODING 13928
SWIDTH 1000 0
DWIDTH 16 0
BBX 16 16 0 -2
BITMAP 
2248
2248
2554
275C
2248
FD54
275C
2248
2FFE
2220
2228
3A28
E514
4494
042C
0844
ENDCHAR
STARTCHAR U_3669
ENCODING 13929
SWIDTH 1000 0
DWIDTH 16 0
BBX 16 16 0 -2
BITMAP 
2040
2040
27FC
20A0
2514
FA08
27FC
2A0A
23F8
2208
23F8
3840
E248
4444
0944
0080
ENDCHAR
STARTCHAR U_366A
ENCODING 13930
SWIDTH 1000 0
DWIDTH 16 0
BBX 16 16 0 -2
BITMAP 
2020
23FE
2020
21FC
2000
FBFE
2202
21FC
2000
21FC
2104
39FC
E104
4088
03FE
0000
ENDCHAR
STARTCHAR U_366B
ENCODING 13931
SWIDTH 1000 0
DWIDTH 16 0
BBX 16 16 0 -2
BITMAP 
10A0
1090
11FE
1320
11FC
FD20
11FC
1120
11FE
1100
1C20
E3FE
4070
00A8
0326
0020
ENDCHAR
STARTCHAR U_366C
ENCODING 13932
SWIDTH 1000 0
DWIDTH 16 0
BBX 16 16 0 -2
BITMAP 
0814
0812
7F10
2AFE
2A10
5D10
1C28
2A28
4944
8882
0100
3FF8
0100
0100
FFFE
0000
ENDCHAR
STARTCHAR U_366D
ENCODING 13933
SWIDTH 1000 0
DWIDTH 16 0
BBX 16 16 0 -2
BITMAP 
2000
2FFE
2800
2A28
F948
2BEE
2892
2884
2AA0
2AA8
3BE8
E888
4894
0914
0924
1242
ENDCHAR
STARTCHAR U_366E
ENCODING 13934
SWIDTH 1000 0
DWIDTH 16 0
BBX 16 16 0 -2
BITMAP 
2210
2210
23DE
2228
2544
F8A0
2110
2208
25F6
2000
2000
3BF8
E208
4208
03F8
0208
ENDCHAR
STARTCHAR U_366F
ENCODING 13935
SWIDTH 1000 0
DWIDTH 16 0
BBX 16 16 0 -2
BITMAP 
0820
3E20
08F8
7F28
2228
496A
3E2A
0856
7E82
0000
3FF8
0000
FFFE
0820
1010
3FF8
ENDCHAR
STARTCHAR U_3670
ENCODING 13936
SWIDTH 1000 0
DWIDTH 16 0
BBX 16 16 0 -2
BITMAP 
1000
1EFC
2224
7F44
A99C
3F50
297C
3F90
29FE
2910
4510
8210
0100
3FF8
0100
FFFE
ENDCHAR
STARTCHAR U_3671
ENCODING 13937
SWIDTH 1000 0
DWIDTH 16 0
BBX 16 16 0 -2
BITMAP 
0020
7C3C
4420
7DFE
0122
FD38
41E4
7D1C
0570
2A54
148C
0100
3FF8
0100
0100
FFFE
ENDCHAR
STARTCHAR U_3672
ENCODING 13938
SWIDTH 1000 0
DWIDTH 16 0
BBX 16 16 0 -2
BITMAP 
2040
2020
27FE
2028
2224
F27E
24C8
2748
217E
2248
24C8
377E
E148
4248
047E
0840
ENDCHAR
STARTCHAR U_3673
ENCODING 13939
SWIDTH 1000 0
DWIDTH 16 0
BBX 16 16 0 -2
BITMAP 
2014
2012
27FE
2410
F5D0
2414
25D4
2558
25CA
2416
3442
E824
42A2
028A
0478
0000
ENDCHAR
STARTCHAR U_3674
ENCODING 13940
SWIDTH 1000 0
DWIDTH 16 0
BBX 16 16 0 -2
BITMAP 
2100
21F8
2208
27FE
2288
FB24
23FE
2200
22FC
2200
22FC
3A00
E2FC
4484
04FC
0884
ENDCHAR
STARTCHAR U_3675
ENCODING 13941
SWIDTH 1000 0
DWIDTH 16 0
BBX 16 16 0 -2
BITMAP 
1020
13FE
1000
10F8
1088
FCF8
1000
13FE
1202
12FA
128A
1EFA
E226
41F8
0020
03FE
ENDCHAR
STARTCHAR U_3676
ENCODING 13942
SWIDTH 1000 0
DWIDTH 16 0
BBX 16 16 0 -2
BITMAP 
0100
FFFE
1010
1FF0
0000
1110
0920
7FFE
4002
9FF4
1010
1FF0
0100
3FF8
0100
FFFE
ENDCHAR
STARTCHAR U_3677
ENCODING 13943
SWIDTH 1000 0
DWIDTH 16 0
BBX 16 16 0 -2
BITMAP 
2000
23FE
2202
23FE
2202
FBFE
2108
2252
239C
2108
2252
3BDE
E000
42A4
0252
0452
ENDCHAR
STARTCHAR U_3678
ENCODING 13944
SWIDTH 1000 0
DWIDTH 16 0
BBX 16 16 0 -2
BITMAP 
2128
21AA
216C
2228
FAFE
2644
2628
2AFE
2210
227C
2210
3AFE
E210
4228
0244
0282
ENDCHAR
STARTCHAR U_3679
ENCODING 13945
SWIDTH 1000 0
DWIDTH 16 0
BBX 16 16 0 -2
BITMAP 
2088
2088
23FE
2088
23FE
FA52
23FE
2000
23FE
2242
20F8
3908
E290
4060
00C0
0700
ENDCHAR
STARTCHAR U_367A
ENCODING 13946
SWIDTH 1000 0
DWIDTH 16 0
BBX 16 16 0 -2
BITMAP 
27FE
2420
25FC
2524
25FC
FC20
27FE
2504
25FC
2504
25FC
3D04
E5FC
4488
0504
07FE
ENDCHAR
STARTCHAR U_367B
ENCODING 13947
SWIDTH 1000 0
DWIDTH 16 0
BBX 16 16 0 -2
BITMAP 
2020
27FE
2400
25FC
2524
F5FC
2524
25FC
2420
25FC
2420
37FE
E524
4AFA
0820
13FE
ENDCHAR
STARTCHAR U_367C
ENCODING 13948
SWIDTH 1000 0
DWIDTH 16 0
BBX 16 16 0 -2
BITMAP 
23F8
2248
2248
23F8
2248
FA48
23F8
2000
2FBE
2AAA
2AAA
3FBE
EAAA
4AAA
0FBE
08A2
ENDCHAR
STARTCHAR U_367D
ENCODING 13949
SWIDTH 1000 0
DWIDTH 16 0
BBX 16 16 0 -2
BITMAP 
2020
2020
27FE
2020
23AE
F924
23AE
22AA
23AE
22AA
23AE
3850
E050
4088
0104
0602
ENDCHAR
STARTCHAR U_367E
ENCODING 13950
SWIDTH 1000 0
DWIDTH 16 0
BBX 16 16 0 -2
BITMAP 
22A0
244C
24A4
260C
F4A4
264C
24A4
2FFE
2802
23F0
3020
E040
47FC
0040
0140
0080
ENDCHAR
STARTCHAR U_367F
ENCODING 13951
SWIDTH 1000 0
DWIDTH 16 0
BBX 16 16 0 -2
BITMAP 
2110
27FC
2040
23F8
2040
F7FC
2000
23D4
2112
27FE
2350
3534
E78C
42CA
0456
08C2
ENDCHAR
STARTCHAR U_3680
ENCODING 13952
SWIDTH 1000 0
DWIDTH 16 0
BBX 16 16 0 -2
BITMAP 
2108
21EC
210A
27E8
F528
25DE
2728
24EA
240A
27EA
340C
E7EC
4A2A
0BEA
1156
07E2
ENDCHAR
STARTCHAR U_3681
ENCODING 13953
SWIDTH 1000 0
DWIDTH 16 0
BBX 16 16 0 -2
BITMAP 
1010
1010
7C7C
1010
FEFE
4444
EEEE
4444
6464
DEDE
0000
FEFE
2828
2A28
4C4A
8886
ENDCHAR
STARTCHAR U_3682
ENCODING 13954
SWIDTH 1000 0
DWIDTH 16 0
BBX 16 16 0 -2
BITMAP 
2040
27FC
2248
23F8
F040
2FFE
2AAA
23B8
2110
27FC
3110
EFFE
4128
0310
0D48
0186
ENDCHAR
STARTCHAR U_3683
ENCODING 13955
SWIDTH 1000 0
DWIDTH 16 0
BBX 16 16 0 -2
BITMAP 
0100
0100
7FFC
0100
1FF0
0000
7FFE
4002
8444
2388
2448
2008
3FF8
0820
0440
7FFC
ENDCHAR
STARTCHAR U_3684
ENCODING 13956
SWIDTH 1000 0
DWIDTH 16 0
BBX 16 16 0 -2
BITMAP 
0100
7FFC
0100
1FF0
0000
7FFE
5112
9FF4
1110
1FF0
0000
7FFC
0104
11F0
2900
47FE
ENDCHAR
STARTCHAR U_3685
ENCODING 13957
SWIDTH 1000 0
DWIDTH 16 0
BBX 16 16 0 -2
BITMAP 
0200
07E0
0820
1440
0380
1C70
E00E
1FF0
0100
1100
1FF8
2100
5FF0
0100
FFFE
0000
ENDCHAR
STARTCHAR U_3686
ENCODING 13958
SWIDTH 1000 0
DWIDTH 16 0
BBX 16 16 0 -2
BITMAP 
0200
0100
FFFE
0000
1FF0
1010
1FF0
1010
1FF0
0800
0FF0
1420
2240
4180
0E60
701C
ENDCHAR
STARTCHAR U_3687
ENCODING 13959
SWIDTH 1000 0
DWIDTH 16 0
BBX 16 16 0 -2
BITMAP 
0440
2288
2108
2288
2448
3FF8
1210
2208
47E4
0820
1440
2280
0100
06C0
1830
E00E
ENDCHAR
STARTCHAR U_3688
ENCODING 13960
SWIDTH 1000 0
DWIDTH 16 0
BBX 16 16 0 -2
BITMAP 
1010
1010
1010
1E10
1210
2210
22FE
5210
8A10
0410
0410
0810
0810
1010
2010
4010
ENDCHAR
STARTCHAR U_3689
ENCODING 13961
SWIDTH 1000 0
DWIDTH 16 0
BBX 16 16 0 -2
BITMAP 
0000
3FF0
0810
0820
083C
1204
17E4
3854
4588
0680
39F8
0610
1920
00C0
0300
3C00
ENDCHAR
STARTCHAR U_368A
ENCODING 13962
SWIDTH 1000 0
DWIDTH 16 0
BBX 16 16 0 -2
BITMAP 
2020
2010
3C10
45FE
4820
A824
1044
28F8
4E12
1222
2444
5588
0810
1028
2044
C182
ENDCHAR
STARTCHAR U_368B
ENCODING 13963
SWIDTH 1000 0
DWIDTH 16 0
BBX 16 16 0 -2
BITMAP 
2000
21FC
3D24
4524
4974
A924
11FC
2904
4F74
1354
2554
5574
0904
1204
2214
C408
ENDCHAR
STARTCHAR U_368C
ENCODING 13964
SWIDTH 1000 0
DWIDTH 16 0
BBX 16 16 0 -2
BITMAP 
2000
21FC
3D24
4524
49FC
A924
1124
29FC
4E20
13FE
2470
54A8
0924
1222
2020
C020
ENDCHAR
STARTCHAR U_368D
ENCODING 13965
SWIDTH 1000 0
DWIDTH 16 0
BBX 16 16 0 -2
BITMAP 
2020
21FC
3D24
45FC
4820
ABFE
1000
29FC
4F04
13FC
2504
55FC
0904
11FC
2088
C104
ENDCHAR
STARTCHAR U_368E
ENCODING 13966
SWIDTH 1000 0
DWIDTH 16 0
BBX 16 16 0 -2
BITMAP 
0100
0100
7FFC
0280
0440
0820
3018
C006
0000
2008
2008
2008
2008
2008
3FF8
0008
ENDCHAR
STARTCHAR U_368F
ENCODING 13967
SWIDTH 1000 0
DWIDTH 16 0
BBX 16 16 0 -2
BITMAP 
0100
0100
7FFC
0280
0440
0820
3018
C006
0820
0820
7FFC
0820
0820
1020
1020
2020
ENDCHAR
STARTCHAR U_3690
ENCODING 13968
SWIDTH 1000 0
DWIDTH 16 0
BBX 16 16 0 -2
BITMAP 
0100
0100
7FFC
0100
02C0
0420
1810
6008
0100
0100
FFFE
0280
0440
0820
3018
C006
ENDCHAR
STARTCHAR U_3691
ENCODING 13969
SWIDTH 1000 0
DWIDTH 16 0
BBX 16 16 0 -2
BITMAP 
0000
3FF8
0008
0008
1FF8
0008
0008
3FF8
0100
0100
FFFE
0280
0440
0820
3018
C006
ENDCHAR
STARTCHAR U_3692
ENCODING 13970
SWIDTH 1000 0
DWIDTH 16 0
BBX 16 16 0 -2
BITMAP 
0100
0100
0100
7FFC
0100
2120
1110
1110
2928
4544
0280
0280
0440
0820
3018
C006
ENDCHAR
STARTCHAR U_3693
ENCODING 13971
SWIDTH 1000 0
DWIDTH 16 0
BBX 16 16 0 -2
BITMAP 
0100
0100
7FFC
0280
0440
0820
3110
0100
7FFC
0380
0540
0920
3118
C106
0100
0100
ENDCHAR
STARTCHAR U_3694
ENCODING 13972
SWIDTH 1000 0
DWIDTH 16 0
BBX 16 16 0 -2
BITMAP 
0200
0200
7FFC
0440
0820
3018
C826
0440
3FF8
0100
0100
FFFE
0100
0100
0100
0100
ENDCHAR
STARTCHAR U_3695
ENCODING 13973
SWIDTH 1000 0
DWIDTH 16 0
BBX 16 16 0 -2
BITMAP 
0200
0200
7FFC
0440
0820
3458
C446
7FF8
0448
3FF8
2440
3FFC
0844
1054
2048
4040
ENDCHAR
STARTCHAR U_3696
ENCODING 13974
SWIDTH 1000 0
DWIDTH 16 0
BBX 16 16 0 -2
BITMAP 
0100
0200
1FF0
1010
1010
1FF0
1010
1010
1FF0
0100
0100
7FFC
0280
0440
1830
E00E
ENDCHAR
STARTCHAR U_3697
ENCODING 13975
SWIDTH 1000 0
DWIDTH 16 0
BBX 16 16 0 -2
BITMAP 
0200
0200
7FFC
0440
0820
3018
DFF6
1010
1010
1FF0
1010
1FF0
1010
1010
FFFE
0000
ENDCHAR
STARTCHAR U_3698
ENCODING 13976
SWIDTH 1000 0
DWIDTH 16 0
BBX 16 16 0 -2
BITMAP 
1020
1020
1020
1020
7DFC
1020
1020
1020
FDFE
1020
1050
1050
2888
2488
4504
8202
ENDCHAR
STARTCHAR U_3699
ENCODING 13977
SWIDTH 1000 0
DWIDTH 16 0
BBX 16 16 0 -2
BITMAP 
1000
1000
7E7C
1244
1244
1244
227C
4A44
8500
0100
FFFE
0280
0440
0820
3018
C006
ENDCHAR
STARTCHAR U_369A
ENCODING 13978
SWIDTH 1000 0
DWIDTH 16 0
BBX 16 16 0 -2
BITMAP 
0200
0200
7FFC
0440
0820
3218
C7E6
0820
3440
0280
0300
1FF0
E810
0810
0FF0
0810
ENDCHAR
STARTCHAR U_369B
ENCODING 13979
SWIDTH 1000 0
DWIDTH 16 0
BBX 16 16 0 -2
BITMAP 
0200
0200
7FFC
0440
0820
38D8
CF06
0810
07F0
0000
1FF0
1010
1FF0
1010
1FF0
1010
ENDCHAR
STARTCHAR U_369C
ENCODING 13980
SWIDTH 1000 0
DWIDTH 16 0
BBX 16 16 0 -2
BITMAP 
0200
0200
7FFC
0440
0820
3098
C0A6
3FF8
0080
3E80
2248
3E50
0024
0E54
718C
0604
ENDCHAR
STARTCHAR U_369D
ENCODING 13981
SWIDTH 1000 0
DWIDTH 16 0
BBX 16 16 0 -2
BITMAP 
0200
0200
7FFC
0440
0820
3018
C806
0840
13F8
3040
57FC
9040
13F8
1040
17FC
1000
ENDCHAR
STARTCHAR U_369E
ENCODING 13982
SWIDTH 1000 0
DWIDTH 16 0
BBX 16 16 0 -2
BITMAP 
0200
0200
7FFC
0440
0820
3018
C826
0820
7EFC
0820
1C70
2A68
48A4
8922
0820
0820
ENDCHAR
STARTCHAR U_369F
ENCODING 13983
SWIDTH 1000 0
DWIDTH 16 0
BBX 16 16 0 -2
BITMAP 
0800
1FC0
2080
7FF0
A010
3FF0
2088
3CF4
2084
3D7C
0100
7FFC
0280
0440
1830
E00E
ENDCHAR
STARTCHAR U_36A0
ENCODING 13984
SWIDTH 1000 0
DWIDTH 16 0
BBX 16 16 0 -2
BITMAP 
0200
0200
7FFC
0440
0820
3458
C286
3FF8
0100
1FF0
0100
7FFC
0000
2488
2244
4244
ENDCHAR
STARTCHAR U_36A1
ENCODING 13985
SWIDTH 1000 0
DWIDTH 16 0
BBX 16 16 0 -2
BITMAP 
1010
1010
FEFE
1010
2828
4444
FEFE
0404
7474
5454
5454
7474
5454
0404
1414
0808
ENDCHAR
STARTCHAR U_36A2
ENCODING 13986
SWIDTH 1000 0
DWIDTH 16 0
BBX 16 16 0 -2
BITMAP 
1080
1080
1080
2080
2FFE
6108
6108
A208
2210
2610
21A0
2040
20A0
2110
2208
2C04
ENDCHAR
STARTCHAR U_36A3
ENCODING 13987
SWIDTH 1000 0
DWIDTH 16 0
BBX 16 16 0 -2
BITMAP 
0200
0200
FFFE
0840
1C80
0380
0470
1808
6200
0200
FFFE
0820
1C40
0380
0C70
7008
ENDCHAR
STARTCHAR U_36A4
ENCODING 13988
SWIDTH 1000 0
DWIDTH 16 0
BBX 16 16 0 -2
BITMAP 
1048
1044
1044
1040
FE4E
23F0
2240
2240
4240
2440
1420
0822
1412
220A
4206
8002
ENDCHAR
STARTCHAR U_36A5
ENCODING 13989
SWIDTH 1000 0
DWIDTH 16 0
BBX 16 16 0 -2
BITMAP 
1000
11FC
1020
1020
FC20
2420
2420
27FE
2420
4820
2820
1020
2820
4420
84A0
0040
ENDCHAR
STARTCHAR U_36A6
ENCODING 13990
SWIDTH 1000 0
DWIDTH 16 0
BBX 16 16 0 -2
BITMAP 
1000
11FE
1048
1048
FC48
2448
2448
2448
2448
4848
2848
1048
2888
4488
8508
0208
ENDCHAR
STARTCHAR U_36A7
ENCODING 13991
SWIDTH 1000 0
DWIDTH 16 0
BBX 16 16 0 -2
BITMAP 
1020
1010
1010
10FE
FC80
2480
2480
2480
2480
4880
2880
1080
2880
4500
8500
0200
ENDCHAR
STARTCHAR U_36A8
ENCODING 13992
SWIDTH 1000 0
DWIDTH 16 0
BBX 16 16 0 -2
BITMAP 
1000
13F0
1090
1090
FC90
2490
2490
27F0
2490
4890
2890
1092
288A
448A
8486
0082
ENDCHAR
STARTCHAR U_36A9
ENCODING 13993
SWIDTH 1000 0
DWIDTH 16 0
BBX 16 16 0 -2
BITMAP 
1000
10FC
1084
1084
FC84
25FE
2484
2484
2484
49FE
2884
1084
2884
4484
8494
0088
ENDCHAR
STARTCHAR U_36AA
ENCODING 13994
SWIDTH 1000 0
DWIDTH 16 0
BBX 16 16 0 -2
BITMAP 
1008
103C
11E0
1020
FC20
243C
25E0
2420
2420
483E
2BE0
1020
2822
4422
8422
001E
ENDCHAR
STARTCHAR U_36AB
ENCODING 13995
SWIDTH 1000 0
DWIDTH 16 0
BBX 16 16 0 -2
BITMAP 
2000
23FC
2084
2088
F888
4890
489C
4884
8944
4944
3128
1128
2A10
4A28
8444
0182
ENDCHAR
STARTCHAR U_36AC
ENCODING 13996
SWIDTH 1000 0
DWIDTH 16 0
BBX 16 16 0 -2
BITMAP 
1040
1040
1080
10FC
FD04
2604
2484
2444
2444
4814
2824
1044
2984
4404
8428
0010
ENDCHAR
STARTCHAR U_36AD
ENCODING 13997
SWIDTH 1000 0
DWIDTH 16 0
BBX 16 16 0 -2
BITMAP 
1040
1050
1048
1048
FC40
25FE
2450
2450
2450
4850
2890
1090
2892
4512
850E
0200
ENDCHAR
STARTCHAR U_36AE
ENCODING 13998
SWIDTH 1000 0
DWIDTH 16 0
BBX 16 16 0 -2
BITMAP 
1000
1000
11FE
1102
FD02
2400
2478
2448
2448
4848
2848
104A
284A
448A
8486
0100
ENDCHAR
STARTCHAR U_36AF
ENCODING 13999
SWIDTH 1000 0
DWIDTH 16 0
BBX 16 16 0 -2
BITMAP 
2000
23F8
2208
2208
FB28
4AA8
4AA8
4A48
8A48
4AA8
32A8
132A
2C0A
440A
8806
1002
ENDCHAR
STARTCHAR U_36B0
ENCODING 14000
SWIDTH 1000 0
DWIDTH 16 0
BBX 16 16 0 -2
BITMAP 
1000
11FE
1010
1010
FC20
2420
2468
24A4
2522
4A22
2820
1020
2820
4400
83FE
0000
ENDCHAR
STARTCHAR U_36B1
ENCODING 14001
SWIDTH 1000 0
DWIDTH 16 0
BBX 16 16 0 -2
BITMAP 
1008
101C
10E0
1080
FC80
2480
2480
24FE
2488
4888
2888
1088
2888
4488
85FE
0000
ENDCHAR
STARTCHAR U_36B2
ENCODING 14002
SWIDTH 1000 0
DWIDTH 16 0
BBX 16 16 0 -2
BITMAP 
1020
1020
1020
1020
FC3E
2420
2420
2420
25FC
4904
2904
1104
2904
4504
85FC
0104
ENDCHAR
STARTCHAR U_36B3
ENCODING 14003
SWIDTH 1000 0
DWIDTH 16 0
BBX 16 16 0 -2
BITMAP 
2100
2100
2100
211C
FBD4
4954
4954
4954
8954
4954
3154
1154
2954
4A5C
8354
0480
ENDCHAR
STARTCHAR U_36B4
ENCODING 14004
SWIDTH 1000 0
DWIDTH 16 0
BBX 16 16 0 -2
BITMAP 
2040
2040
2040
23FE
F880
48A0
4920
49FC
8B24
4D24
3124
1124
2934
4928
8020
0020
ENDCHAR
STARTCHAR U_36B5
ENCODING 14005
SWIDTH 1000 0
DWIDTH 16 0
BBX 16 16 0 -2
BITMAP 
1040
1040
107C
1084
FD88
2650
2420
2450
2488
4B06
2860
1010
2808
44C0
8420
0010
ENDCHAR
STARTCHAR U_36B6
ENCODING 14006
SWIDTH 1000 0
DWIDTH 16 0
BBX 16 16 0 -2
BITMAP 
1000
11F8
1108
1108
FD08
2508
25F8
2500
2500
49FC
2904
1104
2904
4504
85FC
0104
ENDCHAR
STARTCHAR U_36B7
ENCODING 14007
SWIDTH 1000 0
DWIDTH 16 0
BBX 16 16 0 -2
BITMAP 
2020
2020
2050
2050
F888
4904
4A22
4820
48A8
90A4
5124
2122
3222
4820
48A0
8040
ENDCHAR
STARTCHAR U_36B8
ENCODING 14008
SWIDTH 1000 0
DWIDTH 16 0
BBX 16 16 0 -2
BITMAP 
1000
11FC
1004
1004
FDF4
2404
2404
25F4
2514
4914
29F4
1114
2804
4404
8428
0010
ENDCHAR
STARTCHAR U_36B9
ENCODING 14009
SWIDTH 1000 0
DWIDTH 16 0
BBX 16 16 0 -2
BITMAP 
2000
2080
231E
2252
FA52
4A52
4A52
4A52
4A52
92D2
535A
2254
3090
4890
4910
8210
ENDCHAR
STARTCHAR U_36BA
ENCODING 14010
SWIDTH 1000 0
DWIDTH 16 0
BBX 16 16 0 -2
BITMAP 
1000
11FC
1044
1048
FC8E
2482
257A
2614
2420
4820
2BFE
1020
2820
4420
84A0
0040
ENDCHAR
STARTCHAR U_36BB
ENCODING 14011
SWIDTH 1000 0
DWIDTH 16 0
BBX 16 16 0 -2
BITMAP 
0000
3FF8
2108
2108
3FF8
2108
2108
3FF8
0400
0400
FFFE
0820
1C40
0380
0C70
3008
ENDCHAR
STARTCHAR U_36BC
ENCODING 14012
SWIDTH 1000 0
DWIDTH 16 0
BBX 16 16 0 -2
BITMAP 
1000
1000
11FC
1124
FD24
2524
2524
2524
25FC
4924
2924
1124
2924
4524
85FC
0104
ENDCHAR
STARTCHAR U_36BD
ENCODING 14013
SWIDTH 1000 0
DWIDTH 16 0
BBX 16 16 0 -2
BITMAP 
0000
7DFE
1040
1080
11FC
1004
1E04
E004
4228
0210
FFFE
0820
1C40
0380
0C70
7008
ENDCHAR
STARTCHAR U_36BE
ENCODING 14014
SWIDTH 1000 0
DWIDTH 16 0
BBX 16 16 0 -2
BITMAP 
1000
11FC
1104
1104
FD04
2504
25FC
2450
2450
4850
2850
1092
2892
4512
820E
0400
ENDCHAR
STARTCHAR U_36BF
ENCODING 14015
SWIDTH 1000 0
DWIDTH 16 0
BBX 16 16 0 -2
BITMAP 
1040
1040
10FC
1084
FD04
26F4
2494
2494
24F4
4884
2894
1088
2882
4482
847E
0000
ENDCHAR
STARTCHAR U_36C0
ENCODING 14016
SWIDTH 1000 0
DWIDTH 16 0
BBX 16 16 0 -2
BITMAP 
1080
1080
10F8
1108
FE10
2420
25FC
2404
2404
4804
29FC
1004
2804
4404
85FC
0004
ENDCHAR
STARTCHAR U_36C1
ENCODING 14017
SWIDTH 1000 0
DWIDTH 16 0
BBX 16 16 0 -2
BITMAP 
1000
11FC
1020
1020
FD24
24A4
24A8
2420
27FE
4820
2820
1020
2820
4420
8420
0020
ENDCHAR
STARTCHAR U_36C2
ENCODING 14018
SWIDTH 1000 0
DWIDTH 16 0
BBX 16 16 0 -2
BITMAP 
1008
101C
11E0
1100
FD00
257C
2554
2554
2554
4954
297C
1140
2940
4642
8242
043E
ENDCHAR
STARTCHAR U_36C3
ENCODING 14019
SWIDTH 1000 0
DWIDTH 16 0
BBX 16 16 0 -2
BITMAP 
0800
0800
7F7C
0824
3E24
0824
7F44
0854
0A88
0200
FFFE
0820
1C40
0380
0C70
7008
ENDCHAR
STARTCHAR U_36C4
ENCODING 14020
SWIDTH 1000 0
DWIDTH 16 0
BBX 16 16 0 -2
BITMAP 
1040
1020
1020
11FE
FC40
2440
24A0
24A2
25A4
4A98
2C90
1088
2888
44A4
84C2
0080
ENDCHAR
STARTCHAR U_36C5
ENCODING 14021
SWIDTH 1000 0
DWIDTH 16 0
BBX 16 16 0 -2
BITMAP 
1000
13FE
1088
1088
FCF8
2488
2488
24F8
2488
4888
288E
13F8
2808
4408
8408
0008
ENDCHAR
STARTCHAR U_36C6
ENCODING 14022
SWIDTH 1000 0
DWIDTH 16 0
BBX 16 16 0 -2
BITMAP 
1000
11FC
1044
1048
FC5E
2482
248A
2524
2420
4BFE
2820
1070
28A8
4524
8222
0020
ENDCHAR
STARTCHAR U_36C7
ENCODING 14023
SWIDTH 1000 0
DWIDTH 16 0
BBX 16 16 0 -2
BITMAP 
1020
1010
1010
11FE
FD00
2510
2510
2510
257C
4910
2910
1110
2910
4610
82FE
0400
ENDCHAR
STARTCHAR U_36C8
ENCODING 14024
SWIDTH 1000 0
DWIDTH 16 0
BBX 16 16 0 -2
BITMAP 
1040
1044
11F4
1048
FC50
25FE
2440
2480
25FE
4A40
2C80
10FC
2804
4404
8428
0010
ENDCHAR
STARTCHAR U_36C9
ENCODING 14025
SWIDTH 1000 0
DWIDTH 16 0
BBX 16 16 0 -2
BITMAP 
1000
13FE
1050
1050
FDFC
2554
2554
2554
2554
4954
298C
1104
2904
4504
85FC
0104
ENDCHAR
STARTCHAR U_36CA
ENCODING 14026
SWIDTH 1000 0
DWIDTH 16 0
BBX 16 16 0 -2
BITMAP 
1000
10F8
1088
1088
FC88
2488
2526
2620
25FE
4820
2870
10A8
2924
4622
8420
0020
ENDCHAR
STARTCHAR U_36CB
ENCODING 14027
SWIDTH 1000 0
DWIDTH 16 0
BBX 16 16 0 -2
BITMAP 
2040
2040
20A0
20A0
F910
4A48
4C46
4840
4944
9152
524A
244A
3048
4840
4940
8080
ENDCHAR
STARTCHAR U_36CC
ENCODING 14028
SWIDTH 1000 0
DWIDTH 16 0
BBX 16 16 0 -2
BITMAP 
2040
2040
2090
2108
FBFC
4824
4920
4920
49FC
9220
5020
27FE
3020
4820
4820
8020
ENDCHAR
STARTCHAR U_36CD
ENCODING 14029
SWIDTH 1000 0
DWIDTH 16 0
BBX 16 16 0 -2
BITMAP 
1020
1020
1020
13FE
FC20
2420
2524
2524
2524
4AAA
2820
1050
2850
4488
8104
0202
ENDCHAR
STARTCHAR U_36CE
ENCODING 14030
SWIDTH 1000 0
DWIDTH 16 0
BBX 16 16 0 -2
BITMAP 
1000
10FC
1084
1084
FC84
2484
24FC
2400
2400
49FE
2902
1102
2902
4502
85FE
0102
ENDCHAR
STARTCHAR U_36CF
ENCODING 14031
SWIDTH 1000 0
DWIDTH 16 0
BBX 16 16 0 -2
BITMAP 
1028
1024
1024
1020
FDFE
2420
2520
24B2
24B4
4868
28A8
1124
2A22
4420
84A0
0040
ENDCHAR
STARTCHAR U_36D0
ENCODING 14032
SWIDTH 1000 0
DWIDTH 16 0
BBX 16 16 0 -2
BITMAP 
1000
13FE
1020
1020
FDFC
2524
2524
25FC
2524
4924
29FC
1120
28A0
4440
80B0
030E
ENDCHAR
STARTCHAR U_36D1
ENCODING 14033
SWIDTH 1000 0
DWIDTH 16 0
BBX 16 16 0 -2
BITMAP 
0800
0F7C
2844
3F44
6128
9210
0C68
3186
C000
0400
FFFE
0820
1C40
0380
0C70
7008
ENDCHAR
STARTCHAR U_36D2
ENCODING 14034
SWIDTH 1000 0
DWIDTH 16 0
BBX 16 16 0 -2
BITMAP 
1000
11FE
1000
1000
FCFC
2484
2484
2484
24FC
4800
2884
1044
2848
4400
85FE
0000
ENDCHAR
STARTCHAR U_36D3
ENCODING 14035
SWIDTH 1000 0
DWIDTH 16 0
BBX 16 16 0 -2
BITMAP 
2184
2068
2030
20C8
FB04
4840
4BFE
48A0
4920
93FC
5524
2124
3134
4928
4820
8020
ENDCHAR
STARTCHAR U_36D4
ENCODING 14036
SWIDTH 1000 0
DWIDTH 16 0
BBX 16 16 0 -2
BITMAP 
1040
1040
10FC
1088
FD50
2420
24D8
2726
24F8
4820
28F8
1020
2BFE
4420
8020
0020
ENDCHAR
STARTCHAR U_36D5
ENCODING 14037
SWIDTH 1000 0
DWIDTH 16 0
BBX 16 16 0 -2
BITMAP 
1000
10F8
1088
1088
FCF8
2400
25FC
2524
2524
4924
29FC
1100
2900
4502
8502
00FE
ENDCHAR
STARTCHAR U_36D6
ENCODING 14038
SWIDTH 1000 0
DWIDTH 16 0
BBX 16 16 0 -2
BITMAP 
2040
2040
2088
2104
FBFE
4802
4888
4944
8A42
48F8
3188
1250
2820
4850
8188
0606
ENDCHAR
STARTCHAR U_36D7
ENCODING 14039
SWIDTH 1000 0
DWIDTH 16 0
BBX 16 16 0 -2
BITMAP 
1020
1020
10A8
10A8
FCA8
2574
2622
2420
2420
49FC
2820
1020
2820
4420
83FE
0000
ENDCHAR
STARTCHAR U_36D8
ENCODING 14040
SWIDTH 1000 0
DWIDTH 16 0
BBX 16 16 0 -2
BITMAP 
2020
2020
23FE
2020
F820
4BFE
4A02
4C04
49F8
9010
5020
23FE
3020
4820
48A0
8040
ENDCHAR
STARTCHAR U_36D9
ENCODING 14041
SWIDTH 1000 0
DWIDTH 16 0
BBX 16 16 0 -2
BITMAP 
1040
1020
11FC
1000
FC88
2450
27FE
2420
2420
4820
29FC
1020
2820
4420
8420
0020
ENDCHAR
STARTCHAR U_36DA
ENCODING 14042
SWIDTH 1000 0
DWIDTH 16 0
BBX 16 16 0 -2
BITMAP 
1000
11F8
1008
10D0
FC20
25FC
2524
2524
25FC
4924
2924
11FC
2924
4524
8524
010C
ENDCHAR
STARTCHAR U_36DB
ENCODING 14043
SWIDTH 1000 0
DWIDTH 16 0
BBX 16 16 0 -2
BITMAP 
1040
1080
11F8
1108
FDF8
2508
25FA
250A
250C
4BF8
2818
1028
2848
4588
8628
0010
ENDCHAR
STARTCHAR U_36DC
ENCODING 14044
SWIDTH 1000 0
DWIDTH 16 0
BBX 16 16 0 -2
BITMAP 
1040
1040
24FE
6488
A548
2450
2420
2450
228C
0200
FFFE
0820
1C40
0380
0C70
7008
ENDCHAR
STARTCHAR U_36DD
ENCODING 14045
SWIDTH 1000 0
DWIDTH 16 0
BBX 16 16 0 -2
BITMAP 
1000
11FC
1104
1104
FDFC
2504
2504
25FC
2504
4904
29FC
1000
2888
4484
8102
0202
ENDCHAR
STARTCHAR U_36DE
ENCODING 14046
SWIDTH 1000 0
DWIDTH 16 0
BBX 16 16 0 -2
BITMAP 
1000
13FE
1020
1020
FDFC
2420
2420
27FE
2488
4888
2BFE
1088
2888
4508
8108
0208
ENDCHAR
STARTCHAR U_36DF
ENCODING 14047
SWIDTH 1000 0
DWIDTH 16 0
BBX 16 16 0 -2
BITMAP 
1080
1080
10F8
1108
FE10
25FC
2524
2524
2524
4924
2BFE
1050
2850
4488
8104
0602
ENDCHAR
STARTCHAR U_36E0
ENCODING 14048
SWIDTH 1000 0
DWIDTH 16 0
BBX 16 16 0 -2
BITMAP 
2100
20BE
2282
2202
FA02
4AFA
4A8A
4A8A
4AFA
928A
528A
22FA
3202
4A02
4A0A
8204
ENDCHAR
STARTCHAR U_36E1
ENCODING 14049
SWIDTH 1000 0
DWIDTH 16 0
BBX 16 16 0 -2
BITMAP 
1040
1020
13FE
1202
FC04
25F8
2400
2400
27FE
4890
2890
1090
2912
4512
820E
0400
ENDCHAR
STARTCHAR U_36E2
ENCODING 14050
SWIDTH 1000 0
DWIDTH 16 0
BBX 16 16 0 -2
BITMAP 
201C
21E0
2020
2020
FBFE
48A8
4924
4A22
89F8
4888
3090
10BE
2902
4902
8214
0408
ENDCHAR
STARTCHAR U_36E3
ENCODING 14051
SWIDTH 1000 0
DWIDTH 16 0
BBX 16 16 0 -2
BITMAP 
1000
10F8
1088
1088
FCF8
2400
25FC
2504
2524
4924
2924
1124
2850
4448
8084
0304
ENDCHAR
STARTCHAR U_36E4
ENCODING 14052
SWIDTH 1000 0
DWIDTH 16 0
BBX 16 16 0 -2
BITMAP 
2000
23FE
2000
2000
FBDE
4A52
4A52
4A52
4B5A
92D6
5252
2252
3252
4A52
4A52
82D6
ENDCHAR
STARTCHAR U_36E5
ENCODING 14053
SWIDTH 1000 0
DWIDTH 16 0
BBX 16 16 0 -2
BITMAP 
1020
1022
13B4
10A8
FCA8
2524
26A2
2440
25FC
4904
2904
11FC
2904
4504
85FC
0104
ENDCHAR
STARTCHAR U_36E6
ENCODING 14054
SWIDTH 1000 0
DWIDTH 16 0
BBX 16 16 0 -2
BITMAP 
2110
2110
2110
2110
F7BC
5110
5110
5338
53B8
9554
5554
2992
2110
5110
5110
8110
ENDCHAR
STARTCHAR U_36E7
ENCODING 14055
SWIDTH 1000 0
DWIDTH 16 0
BBX 16 16 0 -2
BITMAP 
1020
1124
1124
1124
FDFC
2400
2400
27FE
2440
4880
28FC
1184
2A84
4484
84FC
0084
ENDCHAR
STARTCHAR U_36E8
ENCODING 14056
SWIDTH 1000 0
DWIDTH 16 0
BBX 16 16 0 -2
BITMAP 
2108
2088
2090
23FC
F840
4840
4BF8
4840
8840
4FFE
30A0
10A0
2920
4922
8222
041E
ENDCHAR
STARTCHAR U_36E9
ENCODING 14057
SWIDTH 1000 0
DWIDTH 16 0
BBX 16 16 0 -2
BITMAP 
1040
1020
13FE
1080
FD04
27FE
2402
25FC
2504
49FC
2904
11FC
2904
4504
8514
0108
ENDCHAR
STARTCHAR U_36EA
ENCODING 14058
SWIDTH 1000 0
DWIDTH 16 0
BBX 16 16 0 -2
BITMAP 
1020
1020
13FE
1050
FC88
2524
2622
25FC
2524
49FC
2924
11FC
2822
4422
841E
0000
ENDCHAR
STARTCHAR U_36EB
ENCODING 14059
SWIDTH 1000 0
DWIDTH 16 0
BBX 16 16 0 -2
BITMAP 
1000
10FC
1084
1084
FCFC
2484
2484
24FC
2440
48FE
292A
124A
2892
4522
844A
0084
ENDCHAR
STARTCHAR U_36EC
ENCODING 14060
SWIDTH 1000 0
DWIDTH 16 0
BBX 16 16 0 -2
BITMAP 
2020
2020
21FC
2020
F820
4BFE
4888
4904
4A22
9020
51FC
2020
3020
4820
4BFE
8000
ENDCHAR
STARTCHAR U_36ED
ENCODING 14061
SWIDTH 1000 0
DWIDTH 16 0
BBX 16 16 0 -2
BITMAP 
1088
1088
1088
13FE
FC88
2488
27FE
2400
25FC
4904
2904
11FC
2904
4504
85FC
0104
ENDCHAR
STARTCHAR U_36EE
ENCODING 14062
SWIDTH 1000 0
DWIDTH 16 0
BBX 16 16 0 -2
BITMAP 
1040
1020
13FE
1222
FCA4
2528
2450
2488
2504
48F8
2888
1088
2850
4420
80D8
0306
ENDCHAR
STARTCHAR U_36EF
ENCODING 14063
SWIDTH 1000 0
DWIDTH 16 0
BBX 16 16 0 -2
BITMAP 
2210
2210
2390
24BC
F914
57D4
5554
5554
5554
97D4
52A4
22AC
22C2
5482
547E
8800
ENDCHAR
STARTCHAR U_36F0
ENCODING 14064
SWIDTH 1000 0
DWIDTH 16 0
BBX 16 16 0 -2
BITMAP 
1000
11FC
1104
11FC
FD10
25FE
2510
254A
2586
4800
29FC
1104
29FC
4504
85FC
0104
ENDCHAR
STARTCHAR U_36F1
ENCODING 14065
SWIDTH 1000 0
DWIDTH 16 0
BBX 16 16 0 -2
BITMAP 
1000
11FC
1124
1124
FDFC
2524
2524
25FC
2400
4BFE
2920
1122
2914
4548
8584
0102
ENDCHAR
STARTCHAR U_36F2
ENCODING 14066
SWIDTH 1000 0
DWIDTH 16 0
BBX 16 16 0 -2
BITMAP 
1000
13FE
1020
1040
FDFC
2504
2504
25FC
2504
49FC
2904
1104
29FC
4400
8488
0104
ENDCHAR
STARTCHAR U_36F3
ENCODING 14067
SWIDTH 1000 0
DWIDTH 16 0
BBX 16 16 0 -2
BITMAP 
0100
7FFC
0820
0440
7FFC
4104
1FF0
1110
1150
1120
0200
FFFE
0820
1C40
03C0
3C38
ENDCHAR
STARTCHAR U_36F4
ENCODING 14068
SWIDTH 1000 0
DWIDTH 16 0
BBX 16 16 0 -2
BITMAP 
2092
2124
2248
2124
F892
4840
4880
4BFE
4A02
928A
5252
2222
3252
4A8A
4BFE
8202
ENDCHAR
STARTCHAR U_36F5
ENCODING 14069
SWIDTH 1000 0
DWIDTH 16 0
BBX 16 16 0 -2
BITMAP 
101E
13E0
1044
1124
FC88
2420
25FC
2524
2524
49FC
2924
1124
2BFE
4504
8514
0108
ENDCHAR
STARTCHAR U_36F6
ENCODING 14070
SWIDTH 1000 0
DWIDTH 16 0
BBX 16 16 0 -2
BITMAP 
1020
1124
1124
1124
FDFC
2480
2480
27FE
2490
4910
2952
1254
2AA8
4428
8844
0082
ENDCHAR
STARTCHAR U_36F7
ENCODING 14071
SWIDTH 1000 0
DWIDTH 16 0
BBX 16 16 0 -2
BITMAP 
0C48
7044
13FE
FC50
3050
5892
9492
110E
1200
0200
FFFE
0820
1C40
0380
0C70
7008
ENDCHAR
STARTCHAR U_36F8
ENCODING 14072
SWIDTH 1000 0
DWIDTH 16 0
BBX 16 16 0 -2
BITMAP 
1020
1020
13FE
1020
FC20
25FC
2400
2400
25FC
4904
2904
11FC
2800
4488
8450
03FE
ENDCHAR
STARTCHAR U_36F9
ENCODING 14073
SWIDTH 1000 0
DWIDTH 16 0
BBX 16 16 0 -2
BITMAP 
2100
21FE
2110
2210
FAFE
4A92
4E92
4AFE
4A92
9292
52FE
2290
3250
4A20
4A58
8286
ENDCHAR
STARTCHAR U_36FA
ENCODING 14074
SWIDTH 1000 0
DWIDTH 16 0
BBX 16 16 0 -2
BITMAP 
1040
1020
13FE
1000
FD04
2488
27FE
2400
25FC
4904
2904
11FC
2904
4504
85FC
0104
ENDCHAR
STARTCHAR U_36FB
ENCODING 14075
SWIDTH 1000 0
DWIDTH 16 0
BBX 16 16 0 -2
BITMAP 
2020
2020
23FE
2050
F888
4B26
49FC
4820
4820
93FE
5000
2020
31FC
4820
4820
83FE
ENDCHAR
STARTCHAR U_36FC
ENCODING 14076
SWIDTH 1000 0
DWIDTH 16 0
BBX 16 16 0 -2
BITMAP 
1008
103C
11E0
1020
FC20
27FE
2420
24A0
252C
4924
2924
11AC
2924
4524
85FC
0104
ENDCHAR
STARTCHAR U_36FD
ENCODING 14077
SWIDTH 1000 0
DWIDTH 16 0
BBX 16 16 0 -2
BITMAP 
2040
2020
23FE
2202
F820
4924
48A8
4820
4BFE
9070
50A8
20A8
3124
4A22
4820
8020
ENDCHAR
STARTCHAR U_36FE
ENCODING 14078
SWIDTH 1000 0
DWIDTH 16 0
BBX 16 16 0 -2
BITMAP 
2008
200C
200A
23FE
FA08
4A08
4AE8
4A0A
4A0A
92EC
52AC
22A8
32EA
4A1A
4A26
8442
ENDCHAR
STARTCHAR U_36FF
ENCODING 14079
SWIDTH 1000 0
DWIDTH 16 0
BBX 16 16 0 -2
BITMAP 
20A8
20A8
23FE
20A8
F8A8
4800
4BFE
4A22
8820
49FC
3124
1124
2934
4928
8020
0020
ENDCHAR
STARTCHAR U_3700
ENCODING 14080
SWIDTH 1000 0
DWIDTH 16 0
BBX 16 16 0 -2
BITMAP 
2100
2100
213C
2124
FBA4
4924
493C
4BA4
4B64
9524
593C
2124
3124
4924
493C
8124
ENDCHAR
STARTCHAR U_3701
ENCODING 14081
SWIDTH 1000 0
DWIDTH 16 0
BBX 16 16 0 -2
BITMAP 
1020
1020
13FE
1070
FCA8
2524
2622
25FC
2504
49FC
2904
11FC
2904
4400
83FE
0000
ENDCHAR
STARTCHAR U_3702
ENCODING 14082
SWIDTH 1000 0
DWIDTH 16 0
BBX 16 16 0 -2
BITMAP 
0808
7E08
08FE
FE08
0848
7E28
0808
0F28
F010
0400
FFFE
0820
1C40
0380
0C70
7008
ENDCHAR
STARTCHAR U_3703
ENCODING 14083
SWIDTH 1000 0
DWIDTH 16 0
BBX 16 16 0 -2
BITMAP 
2090
2088
20FE
2100
F900
4B3C
4D00
4900
493C
9100
5100
213C
3124
4924
493C
8124
ENDCHAR
STARTCHAR U_3704
ENCODING 14084
SWIDTH 1000 0
DWIDTH 16 0
BBX 16 16 0 -2
BITMAP 
2000
27FC
2404
2434
F5C4
5444
55F4
5554
5554
95F4
5444
2454
25F4
5494
5806
9002
ENDCHAR
STARTCHAR U_3705
ENCODING 14085
SWIDTH 1000 0
DWIDTH 16 0
BBX 16 16 0 -2
BITMAP 
1040
1020
13FE
1040
FC88
25F0
2420
2444
25FE
4802
29FC
1124
29FC
4524
85FC
0104
ENDCHAR
STARTCHAR U_3706
ENCODING 14086
SWIDTH 1000 0
DWIDTH 16 0
BBX 16 16 0 -2
BITMAP 
2010
2092
2452
2254
FA10
48FE
4810
4E38
8A54
4A92
3310
1210
2A10
4500
88FE
0000
ENDCHAR
STARTCHAR U_3707
ENCODING 14087
SWIDTH 1000 0
DWIDTH 16 0
BBX 16 16 0 -2
BITMAP 
2020
2020
21FC
2020
FBFE
4820
49FC
4820
8BFE
4800
3040
1024
2AA2
4A8A
8488
0078
ENDCHAR
STARTCHAR U_3708
ENCODING 14088
SWIDTH 1000 0
DWIDTH 16 0
BBX 16 16 0 -2
BITMAP 
0020
7E7C
14C4
0838
FEC6
2A20
48FC
A844
128C
0200
FFFE
0820
1C40
0380
0C70
7008
ENDCHAR
STARTCHAR U_3709
ENCODING 14089
SWIDTH 1000 0
DWIDTH 16 0
BBX 16 16 0 -2
BITMAP 
2124
2248
2248
2124
FBF8
4A08
4BF8
4800
4BF8
9248
5248
23F8
3202
4A02
49FE
8000
ENDCHAR
STARTCHAR U_370A
ENCODING 14090
SWIDTH 1000 0
DWIDTH 16 0
BBX 16 16 0 -2
BITMAP 
2000
23FC
2204
2204
FBFC
4A48
4A48
4AFC
8A48
4A48
33FE
12A4
2AA8
4490
84C8
0886
ENDCHAR
STARTCHAR U_370B
ENCODING 14091
SWIDTH 1000 0
DWIDTH 16 0
BBX 16 16 0 -2
BITMAP 
2104
2084
2088
2000
FBFE
4800
4888
4904
8A02
49FC
3154
1154
2954
4954
87FE
0000
ENDCHAR
STARTCHAR U_370C
ENCODING 14092
SWIDTH 1000 0
DWIDTH 16 0
BBX 16 16 0 -2
BITMAP 
1000
1078
FE48
1048
7C48
0086
FE00
82FC
7C44
1044
FC28
2428
6810
3028
4844
8582
ENDCHAR
STARTCHAR U_370D
ENCODING 14093
SWIDTH 1000 0
DWIDTH 16 0
BBX 16 16 0 -2
BITMAP 
1020
1010
11FE
1110
FD7C
2514
25FE
2514
257C
4910
297C
1144
2944
4644
827C
0444
ENDCHAR
STARTCHAR U_370E
ENCODING 14094
SWIDTH 1000 0
DWIDTH 16 0
BBX 16 16 0 -2
BITMAP 
101E
13E0
1122
1094
FC40
2488
25F0
2420
24C4
49FE
2822
1020
2BFE
4450
8488
0306
ENDCHAR
STARTCHAR U_370F
ENCODING 14095
SWIDTH 1000 0
DWIDTH 16 0
BBX 16 16 0 -2
BITMAP 
1000
10FC
1084
1084
FCFC
2400
25FE
2502
25FE
4902
29FE
1102
29FE
4448
8484
0102
ENDCHAR
STARTCHAR U_3710
ENCODING 14096
SWIDTH 1000 0
DWIDTH 16 0
BBX 16 16 0 -2
BITMAP 
1020
1124
1124
1124
FDFC
2400
27FE
2400
25FC
4904
2904
11FC
2888
4450
83FE
0000
ENDCHAR
STARTCHAR U_3711
ENCODING 14097
SWIDTH 1000 0
DWIDTH 16 0
BBX 16 16 0 -2
BITMAP 
4048
2FFE
0040
87FC
5444
17FC
E444
27FC
2444
2000
0200
FFFE
0820
1C40
03C0
3C38
ENDCHAR
STARTCHAR U_3712
ENCODING 14098
SWIDTH 1000 0
DWIDTH 16 0
BBX 16 16 0 -2
BITMAP 
1040
119C
1104
1104
FDDC
2504
2504
25FC
2488
4888
2BFE
1088
2888
4488
8508
0208
ENDCHAR
STARTCHAR U_3713
ENCODING 14099
SWIDTH 1000 0
DWIDTH 16 0
BBX 16 16 0 -2
BITMAP 
1088
1088
13FE
1088
FC20
2450
2488
2504
26FA
4800
2800
11FC
2904
4504
85FC
0104
ENDCHAR
STARTCHAR U_3714
ENCODING 14100
SWIDTH 1000 0
DWIDTH 16 0
BBX 16 16 0 -2
BITMAP 
1080
1040
13FC
1108
FC90
27FE
2400
25F8
2508
4908
29F8
1090
2890
4512
8212
040E
ENDCHAR
STARTCHAR U_3715
ENCODING 14101
SWIDTH 1000 0
DWIDTH 16 0
BBX 16 16 0 -2
BITMAP 
2010
2010
22FE
2110
F97C
4854
487C
4B54
897C
4910
31FE
1110
2910
4A90
847E
0000
ENDCHAR
STARTCHAR U_3716
ENCODING 14102
SWIDTH 1000 0
DWIDTH 16 0
BBX 16 16 0 -2
BITMAP 
2090
2090
27FE
2090
FBFC
4A94
4BFC
4A94
4BFC
9000
51F8
2108
31F8
4908
49F8
8108
ENDCHAR
STARTCHAR U_3717
ENCODING 14103
SWIDTH 1000 0
DWIDTH 16 0
BBX 16 16 0 -2
BITMAP 
2040
2088
21FC
2108
FA52
4BFE
4850
4988
4E26
90C0
5310
2064
3388
4830
48C0
8700
ENDCHAR
STARTCHAR U_3718
ENCODING 14104
SWIDTH 1000 0
DWIDTH 16 0
BBX 16 16 0 -2
BITMAP 
1020
103C
1020
11FE
FD22
2538
25E4
251C
2500
497C
2944
117C
2944
457C
8544
02FE
ENDCHAR
STARTCHAR U_3719
ENCODING 14105
SWIDTH 1000 0
DWIDTH 16 0
BBX 16 16 0 -2
BITMAP 
2040
2020
23FE
2250
FA50
4BFE
4A52
4A52
8BFE
4A00
3292
12D4
2A98
4492
84D2
088E
ENDCHAR
STARTCHAR U_371A
ENCODING 14106
SWIDTH 1000 0
DWIDTH 16 0
BBX 16 16 0 -2
BITMAP 
2040
2020
27FE
2402
F900
49FE
4A10
4E20
4A7C
9244
5244
227C
3244
4A44
4A7C
8244
ENDCHAR
STARTCHAR U_371B
ENCODING 14107
SWIDTH 1000 0
DWIDTH 16 0
BBX 16 16 0 -2
BITMAP 
2108
2108
2108
27C8
F11E
57D2
5564
57C0
5548
97C8
5108
27C8
2114
5114
5124
8142
ENDCHAR
STARTCHAR U_371C
ENCODING 14108
SWIDTH 1000 0
DWIDTH 16 0
BBX 16 16 0 -2
BITMAP 
2108
2108
2108
27D0
F11E
5794
5124
5FD4
5214
93D4
5254
2248
2248
54D4
5424
8842
ENDCHAR
STARTCHAR U_371D
ENCODING 14109
SWIDTH 1000 0
DWIDTH 16 0
BBX 16 16 0 -2
BITMAP 
2020
2050
2088
2124
FAFA
4810
4820
4BFE
4850
91FC
5154
218C
3104
49FC
4904
81FC
ENDCHAR
STARTCHAR U_371E
ENCODING 14110
SWIDTH 1000 0
DWIDTH 16 0
BBX 16 16 0 -2
BITMAP 
0804
7F78
0840
7F40
497E
7F48
4948
7F48
0848
7F48
0A88
FFFE
0820
1C40
03C0
3C38
ENDCHAR
STARTCHAR U_371F
ENCODING 14111
SWIDTH 1000 0
DWIDTH 16 0
BBX 16 16 0 -2
BITMAP 
2008
2388
2088
2110
F7DE
5294
52A4
5394
5294
9394
5294
22C8
2388
5694
50A4
80C2
ENDCHAR
STARTCHAR U_3720
ENCODING 14112
SWIDTH 1000 0
DWIDTH 16 0
BBX 16 16 0 -2
BITMAP 
1020
1222
13FE
1090
FC88
25FE
2710
2510
25FE
4910
2910
11FE
2910
4510
85FE
0100
ENDCHAR
STARTCHAR U_3721
ENCODING 14113
SWIDTH 1000 0
DWIDTH 16 0
BBX 16 16 0 -2
BITMAP 
2124
2124
2224
2424
F954
494A
4A92
4E10
4A10
9250
525C
2250
3250
4AB0
4A9E
8300
ENDCHAR
STARTCHAR U_3722
ENCODING 14114
SWIDTH 1000 0
DWIDTH 16 0
BBX 16 16 0 -2
BITMAP 
1020
11FC
1124
13FE
FD24
25FC
2420
25FC
2524
49FC
2840
13FE
2888
45D0
8470
038C
ENDCHAR
STARTCHAR U_3723
ENCODING 14115
SWIDTH 1000 0
DWIDTH 16 0
BBX 16 16 0 -2
BITMAP 
2110
2114
21D2
2250
FA7E
4D50
4890
4AA8
4928
9144
5244
2482
3008
4AA4
4A52
8452
ENDCHAR
STARTCHAR U_3724
ENCODING 14116
SWIDTH 1000 0
DWIDTH 16 0
BBX 16 16 0 -2
BITMAP 
2000
23FE
2050
23FE
FA52
4BFE
4800
49FC
4904
91FC
5104
21FC
3020
4BFE
4820
8020
ENDCHAR
STARTCHAR U_3725
ENCODING 14117
SWIDTH 1000 0
DWIDTH 16 0
BBX 16 16 0 -2
BITMAP 
2000
23FE
2252
2252
FBFE
4800
49FC
4904
49FC
9104
51FC
2104
31FC
4888
4904
8202
ENDCHAR
STARTCHAR U_3726
ENCODING 14118
SWIDTH 1000 0
DWIDTH 16 0
BBX 16 16 0 -2
BITMAP 
2000
23FC
2004
23FC
F804
4BFC
4800
4BBC
4924
97BC
5008
23FE
3108
4888
48A8
8010
ENDCHAR
STARTCHAR U_3727
ENCODING 14119
SWIDTH 1000 0
DWIDTH 16 0
BBX 16 16 0 -2
BITMAP 
2000
27FE
2400
2628
F548
57EE
5492
5484
56A0
96A8
57E8
2488
2494
5514
5924
9242
ENDCHAR
STARTCHAR U_3728
ENCODING 14120
SWIDTH 1000 0
DWIDTH 16 0
BBX 16 16 0 -2
BITMAP 
2000
23FE
2202
23FE
FA10
4A54
4A38
4A54
8A82
4A50
327C
1290
2A10
45FE
8410
0810
ENDCHAR
STARTCHAR U_3729
ENCODING 14121
SWIDTH 1000 0
DWIDTH 16 0
BBX 16 16 0 -2
BITMAP 
2040
2080
23FE
2222
FAAA
4A22
4BFE
4A72
4AAA
9202
5020
23FE
3020
4850
4888
8306
ENDCHAR
STARTCHAR U_372A
ENCODING 14122
SWIDTH 1000 0
DWIDTH 16 0
BBX 16 16 0 -2
BITMAP 
0804
7F78
2240
FF40
087E
7F48
2A48
4948
A888
1400
FFFE
0820
1C40
0380
0C70
7008
ENDCHAR
STARTCHAR U_372B
ENCODING 14123
SWIDTH 1000 0
DWIDTH 16 0
BBX 16 16 0 -2
BITMAP 
2288
22A8
26A8
2BF0
F01E
5224
55D4
5C14
5414
95D4
5554
2548
2568
5554
5614
8422
ENDCHAR
STARTCHAR U_372C
ENCODING 14124
SWIDTH 1000 0
DWIDTH 16 0
BBX 16 16 0 -2
BITMAP 
2100
21F8
2208
27FE
FA88
4B24
4BFE
4A00
8AFC
4A00
32FC
1200
2AFC
4484
84FC
0884
ENDCHAR
STARTCHAR U_372D
ENCODING 14125
SWIDTH 1000 0
DWIDTH 16 0
BBX 16 16 0 -2
BITMAP 
1020
1124
10A8
13FE
FE02
24F8
2488
2488
24F8
4800
29FC
1124
29FC
4524
85FC
0104
ENDCHAR
STARTCHAR U_372E
ENCODING 14126
SWIDTH 1000 0
DWIDTH 16 0
BBX 16 16 0 -2
BITMAP 
2008
23E8
2288
23EE
FA28
4BF4
4A82
4BE2
8800
49FC
3154
1154
2954
4954
87FE
0000
ENDCHAR
STARTCHAR U_372F
ENCODING 14127
SWIDTH 1000 0
DWIDTH 16 0
BBX 16 16 0 -2
BITMAP 
2000
27DE
2492
2492
F5D2
555E
5550
55D0
5492
9492
57CE
2000
2000
5524
5492
8892
ENDCHAR
STARTCHAR U_3730
ENCODING 14128
SWIDTH 1000 0
DWIDTH 16 0
BBX 16 16 0 -2
BITMAP 
2124
2174
2258
22DA
FBFE
4954
4ADA
4BFE
88A2
4820
33FE
1070
28A8
4924
8222
0020
ENDCHAR
STARTCHAR U_3731
ENCODING 14129
SWIDTH 1000 0
DWIDTH 16 0
BBX 16 16 0 -2
BITMAP 
2042
239C
2210
23DE
FA94
4A94
4C20
4BFC
4A04
93FC
5204
23FC
3204
4BFC
4908
8204
ENDCHAR
STARTCHAR U_3732
ENCODING 14130
SWIDTH 1000 0
DWIDTH 16 0
BBX 16 16 0 -2
BITMAP 
2040
2FFE
2400
27FC
F000
57FC
5404
57FC
5080
9C9C
57D4
3D54
355C
5C96
5556
AE22
ENDCHAR
STARTCHAR U_3733
ENCODING 14131
SWIDTH 1000 0
DWIDTH 16 0
BBX 16 16 0 -2
BITMAP 
2080
2040
27FC
2000
FBF8
4AA8
4BF8
4840
4A44
9118
5244
20A8
3190
4A88
4CA6
80C0
ENDCHAR
STARTCHAR U_3734
ENCODING 14132
SWIDTH 1000 0
DWIDTH 16 0
BBX 16 16 0 -2
BITMAP 
2108
27FE
2108
23FC
FA94
4BFC
4800
4FFE
4C02
91F8
5108
21F8
3108
49F8
4908
81F8
ENDCHAR
STARTCHAR U_3735
ENCODING 14133
SWIDTH 1000 0
DWIDTH 16 0
BBX 16 16 0 -2
BITMAP 
2040
27FE
2000
23FC
FA40
4BF8
4A40
4BF8
4A40
93FC
5004
2554
30A8
4B10
4D48
8186
ENDCHAR
STARTCHAR U_3736
ENCODING 14134
SWIDTH 1000 0
DWIDTH 16 0
BBX 16 16 0 -2
BITMAP 
21F0
2210
27FC
2204
FBFC
4A24
4BB8
4A22
49FE
9210
57FC
2244
33FC
48D0
494A
863E
ENDCHAR
STARTCHAR U_3737
ENCODING 14135
SWIDTH 1000 0
DWIDTH 16 0
BBX 16 16 0 -2
BITMAP 
F7FC
1248
17FC
FC46
86EC
F554
16EC
1554
56EC
2444
0200
FFFE
0820
1C40
03C0
3C38
ENDCHAR
STARTCHAR U_3738
ENCODING 14136
SWIDTH 1000 0
DWIDTH 16 0
BBX 16 16 0 -2
BITMAP 
0820
FFFE
2820
7DFC
4488
7C50
41FE
7C20
45FC
7C20
0200
FFFE
0820
1C40
03C0
3C38
ENDCHAR
STARTCHAR U_3739
ENCODING 14137
SWIDTH 1000 0
DWIDTH 16 0
BBX 16 16 0 -2
BITMAP 
23DE
2252
23DE
2252
FBDE
4A52
4BDE
4890
49FE
9110
53FE
2510
31FE
4910
49FE
8100
ENDCHAR
STARTCHAR U_373A
ENCODING 14138
SWIDTH 1000 0
DWIDTH 16 0
BBX 16 16 0 -2
BITMAP 
2528
27BE
2948
27BE
FB18
4DAA
4946
4BFC
4A04
93FC
5204
23FC
3204
4BFC
4908
8204
ENDCHAR
STARTCHAR U_373B
ENCODING 14139
SWIDTH 1000 0
DWIDTH 16 0
BBX 16 16 0 -2
BITMAP 
2444
24E4
2A0A
2EEE
F404
5AEA
5E0E
50E0
5AAA
9AEA
5040
2024
2522
550A
5908
80F8
ENDCHAR
STARTCHAR U_373C
ENCODING 14140
SWIDTH 1000 0
DWIDTH 16 0
BBX 16 16 0 -2
BITMAP 
21FC
2124
21FC
2124
FBFE
4AAA
4BFE
4AAA
4BFE
9000
53FE
228A
30F8
4888
4888
83FE
ENDCHAR
STARTCHAR U_373D
ENCODING 14141
SWIDTH 1000 0
DWIDTH 16 0
BBX 16 16 0 -2
BITMAP 
0888
1110
2220
1110
0888
0000
1FE0
0040
0080
0100
FFFE
0100
0100
0100
0500
0200
ENDCHAR
STARTCHAR U_373E
ENCODING 14142
SWIDTH 1000 0
DWIDTH 16 0
BBX 15 16 0 -2
BITMAP
0020
F820
0850
1088
2104
268B
2088
3888
E088
2088
2088
2088
2088
2108
A108
4208
ENDCHAR
STARTCHAR U_373F
ENCODING 14143
SWIDTH 1000 0
DWIDTH 16 0
BBX 16 16 0 -2
BITMAP 
0000
FDF8
0408
0850
1020
1010
15FE
1822
3024
D020
1020
1020
1020
1020
50A0
2040
ENDCHAR
STARTCHAR U_3740
ENCODING 14144
SWIDTH 1000 0
DWIDTH 16 0
BBX 16 16 0 -2
BITMAP 
0000
3E7C
2204
2A08
2608
2210
2210
FF7E
4210
5210
4A10
4210
7F90
0210
1450
0820
ENDCHAR
STARTCHAR U_3741
ENCODING 14145
SWIDTH 1000 0
DWIDTH 16 0
BBX 16 16 0 -2
BITMAP 
1000
1FF8
2008
5FC8
9048
1FC8
1048
1FE8
0010
3FE0
0080
0100
FFFE
0100
0500
0200
ENDCHAR
STARTCHAR U_3742
ENCODING 14146
SWIDTH 1000 0
DWIDTH 16 0
BBX 16 16 0 -2
BITMAP 
0104
FD0E
0530
0920
17E0
1120
153E
1964
31A4
D724
1124
1124
1124
1124
5544
2284
ENDCHAR
STARTCHAR U_3743
ENCODING 14147
SWIDTH 1000 0
DWIDTH 16 0
BBX 16 16 0 -2
BITMAP 
0080
FC80
04F8
0908
1210
11FC
1524
1924
3124
D1FC
1050
1050
1090
1092
5112
220E
ENDCHAR
STARTCHAR U_3744
ENCODING 14148
SWIDTH 1000 0
DWIDTH 16 0
BBX 16 16 0 -2
BITMAP 
2020
1020
FE20
01FC
7C20
44A8
7CA8
00A8
7CA8
04A8
08F8
1E22
F022
1022
501E
2000
ENDCHAR
STARTCHAR U_3745
ENCODING 14149
SWIDTH 1000 0
DWIDTH 16 0
BBX 16 16 0 -2
BITMAP 
1000
FE78
1048
7C48
0048
FE86
8200
7CFC
0044
7C44
0828
1E28
F010
1028
5044
2182
ENDCHAR
STARTCHAR U_3746
ENCODING 14150
SWIDTH 1000 0
DWIDTH 16 0
BBX 16 16 0 -2
BITMAP 
0020
FDFE
0420
09FC
1000
11FC
1504
19FC
3088
D3FE
1000
11FC
1104
1104
51FC
2104
ENDCHAR
STARTCHAR U_3747
ENCODING 14151
SWIDTH 1000 0
DWIDTH 16 0
BBX 16 16 0 -2
BITMAP 
2020
1010
FEFE
0000
7C7C
4444
7C7C
0000
7C7C
0808
1010
1EFE
F010
1010
5050
2020
ENDCHAR
STARTCHAR U_3748
ENCODING 14152
SWIDTH 1000 0
DWIDTH 16 0
BBX 16 16 0 -2
BITMAP 
2104
47C8
8812
F3BC
2008
4B92
F83E
0380
AAAA
ABAA
0000
7C7C
0808
FEFE
1010
3030
ENDCHAR
STARTCHAR U_3749
ENCODING 14153
SWIDTH 1000 0
DWIDTH 16 0
BBX 16 16 0 -2
BITMAP 
0200
0100
0100
7FFE
4002
8004
0000
0000
0000
0000
0000
0000
7FFC
0000
0000
0000
ENDCHAR
STARTCHAR U_374A
ENCODING 14154
SWIDTH 1000 0
DWIDTH 16 0
BBX 16 16 0 -2
BITMAP 
0200
0100
0100
7FFE
4002
8004
0000
3FF0
1010
0820
0440
0280
0100
06C0
1830
E00E
ENDCHAR
STARTCHAR U_374B
ENCODING 14155
SWIDTH 1000 0
DWIDTH 16 0
BBX 16 16 0 -2
BITMAP 
0200
0100
0100
7FFE
4002
8004
1FE0
0040
0080
0100
0100
0100
0100
0100
0500
0200
ENDCHAR
STARTCHAR U_374C
ENCODING 14156
SWIDTH 1000 0
DWIDTH 16 0
BBX 16 16 0 -2
BITMAP 
0200
0100
0100
7FFE
4202
8204
07E0
0420
0840
1040
0080
0180
0240
0420
1810
600C
ENDCHAR
STARTCHAR U_374D
ENCODING 14157
SWIDTH 1000 0
DWIDTH 16 0
BBX 16 16 0 -2
BITMAP 
0200
0100
7FFE
5002
9004
1FF8
1000
2000
3FF8
0008
0008
FFC8
0008
0008
0050
0020
ENDCHAR
STARTCHAR U_374E
ENCODING 14158
SWIDTH 1000 0
DWIDTH 16 0
BBX 16 16 0 -2
BITMAP 
0200
0100
7FFE
4002
8204
0100
0100
7FF8
0030
00C0
0300
0C00
3000
4800
87FE
0000
ENDCHAR
STARTCHAR U_374F
ENCODING 14159
SWIDTH 1000 0
DWIDTH 16 0
BBX 16 16 0 -2
BITMAP 
0200
0100
7FFE
4002
8104
0280
0440
0820
3458
C446
0440
0440
0840
0840
1040
2040
ENDCHAR
STARTCHAR U_3750
ENCODING 14160
SWIDTH 1000 0
DWIDTH 16 0
BBX 16 16 0 -2
BITMAP 
0200
0100
0100
7FFE
4082
8484
0440
0840
1020
2210
4208
8406
0840
1020
3FF0
1010
ENDCHAR
STARTCHAR U_3751
ENCODING 14161
SWIDTH 1000 0
DWIDTH 16 0
BBX 16 16 0 -2
BITMAP 
0200
0100
7FFE
4002
8204
0100
7FFC
0400
0400
07F0
0410
0810
0810
1010
20A0
4040
ENDCHAR
STARTCHAR U_3752
ENCODING 14162
SWIDTH 1000 0
DWIDTH 16 0
BBX 16 16 0 -2
BITMAP 
0200
0100
0100
7FFE
4002
8104
0100
7FFC
0100
0100
1FF0
1010
1010
1010
1FF0
1010
ENDCHAR
STARTCHAR U_3753
ENCODING 14163
SWIDTH 1000 0
DWIDTH 16 0
BBX 16 16 0 -2
BITMAP 
0200
0100
7FFE
4002
8104
0280
0C60
3018
CFE6
0000
1FF0
1010
1010
1010
1FF0
1010
ENDCHAR
STARTCHAR U_3754
ENCODING 14164
SWIDTH 1000 0
DWIDTH 16 0
BBX 16 16 0 -2
BITMAP 
0200
0100
7FFE
4002
8204
0100
7FFC
0820
1010
2448
4444
0280
0100
06C0
1830
E00E
ENDCHAR
STARTCHAR U_3755
ENCODING 14165
SWIDTH 1000 0
DWIDTH 16 0
BBX 16 16 0 -2
BITMAP 
0200
0100
7FFE
4202
8104
0900
2828
2824
47E4
0000
3FF0
0820
0440
0380
1C70
E00E
ENDCHAR
STARTCHAR U_3756
ENCODING 14166
SWIDTH 1000 0
DWIDTH 16 0
BBX 16 16 0 -2
BITMAP 
0200
0100
7FFE
4202
87E4
1840
6480
0320
0C40
71F8
0608
1A10
0120
00C0
0700
7800
ENDCHAR
STARTCHAR U_3757
ENCODING 14167
SWIDTH 1000 0
DWIDTH 16 0
BBX 16 16 0 -2
BITMAP 
0200
0100
7FFE
4202
8104
1FF0
1010
1FF0
1010
1FF0
1104
1088
1050
1220
1418
1806
ENDCHAR
STARTCHAR U_3758
ENCODING 14168
SWIDTH 1000 0
DWIDTH 16 0
BBX 16 16 0 -2
BITMAP 
0200
0100
7FFE
4202
8104
3FF8
0000
1FF0
0000
1FF0
0000
1FF0
1010
1010
1FF0
1010
ENDCHAR
STARTCHAR U_3759
ENCODING 14169
SWIDTH 1000 0
DWIDTH 16 0
BBX 16 16 0 -2
BITMAP 
0200
0100
7FFE
4002
8004
3FF8
0100
1FF0
0100
7FFC
0000
FFFE
0000
0820
1010
2008
ENDCHAR
STARTCHAR U_375A
ENCODING 14170
SWIDTH 1000 0
DWIDTH 16 0
BBX 16 16 0 -2
BITMAP 
0200
0100
7FFE
4002
801C
7BE0
0840
1040
2278
7A40
0A40
2BFC
1000
2800
47FE
8000
ENDCHAR
STARTCHAR U_375B
ENCODING 14171
SWIDTH 1000 0
DWIDTH 16 0
BBX 16 16 0 -2
BITMAP 
0200
0100
7FFE
4002
8804
0FFC
1040
3040
53F8
9248
1248
12A8
1318
1208
13F8
1208
ENDCHAR
STARTCHAR U_375C
ENCODING 14172
SWIDTH 1000 0
DWIDTH 16 0
BBX 16 16 0 -2
BITMAP 
0200
0100
7FFE
4442
8444
3FF8
0440
0440
FFFE
0000
1FF0
1010
1FF0
1010
1FF0
1010
ENDCHAR
STARTCHAR U_375D
ENCODING 14173
SWIDTH 1000 0
DWIDTH 16 0
BBX 16 16 0 -2
BITMAP 
0200
0100
7FFE
4002
8824
0820
0820
7EFC
0820
1C30
1A70
2A68
48A4
8922
0820
0820
ENDCHAR
STARTCHAR U_375E
ENCODING 14174
SWIDTH 1000 0
DWIDTH 16 0
BBX 16 16 0 -2
BITMAP 
0200
0100
7FFE
4002
8004
7FFC
0440
0440
3C78
2008
2008
3C78
0440
0440
FFFE
0000
ENDCHAR
STARTCHAR U_375F
ENCODING 14175
SWIDTH 1000 0
DWIDTH 16 0
BBX 16 16 0 -2
BITMAP 
0200
0100
7FFE
4002
BFFC
0000
1FF0
1010
1FF0
1010
1FF0
1010
1FF0
0442
1842
E03E
ENDCHAR
STARTCHAR U_3760
ENCODING 14176
SWIDTH 1000 0
DWIDTH 16 0
BBX 16 16 0 -2
BITMAP 
0200
0100
7FFE
4002
9FF4
1010
1FF0
1010
1FF0
1210
0100
FFFE
0000
0820
1010
2008
ENDCHAR
STARTCHAR U_3761
ENCODING 14177
SWIDTH 1000 0
DWIDTH 16 0
BBX 16 16 0 -2
BITMAP 
0200
0100
7FFE
4002
8004
7F00
22FC
3E44
2244
3E44
2228
2228
2F10
F228
4244
0282
ENDCHAR
STARTCHAR U_3762
ENCODING 14178
SWIDTH 1000 0
DWIDTH 16 0
BBX 16 16 0 -2
BITMAP 
0200
0100
7FFE
4002
80F4
3F00
0100
1FF0
1110
1FF0
0100
7FFC
4124
41F4
5E14
4008
ENDCHAR
STARTCHAR U_3763
ENCODING 14179
SWIDTH 1000 0
DWIDTH 16 0
BBX 16 16 0 -2
BITMAP 
0200
0100
7FFE
4002
8804
7F7C
0824
3E24
0844
7F54
0888
0200
FFFE
0440
1830
E00E
ENDCHAR
STARTCHAR U_3764
ENCODING 14180
SWIDTH 1000 0
DWIDTH 16 0
BBX 16 16 0 -2
BITMAP 
0100
7FFE
4822
BFFC
0820
3FF8
0820
FFFE
0100
3FF8
2108
3FF8
2108
FFFE
2008
2018
ENDCHAR
STARTCHAR U_3765
ENCODING 14181
SWIDTH 1000 0
DWIDTH 16 0
BBX 16 16 0 -2
BITMAP 
0200
0100
7FFE
4002
8424
2420
2524
24A8
3C20
07FE
0470
FCA8
2524
2622
2420
4420
ENDCHAR
STARTCHAR U_3766
ENCODING 14182
SWIDTH 1000 0
DWIDTH 16 0
BBX 16 16 0 -2
BITMAP 
0100
7FFE
4902
9FFC
3100
5FF0
9100
1FF0
1100
1FF8
1000
3FE0
0840
08F8
1008
6030
ENDCHAR
STARTCHAR U_3767
ENCODING 14183
SWIDTH 1000 0
DWIDTH 16 0
BBX 16 16 0 -2
BITMAP 
0100
7FFE
4402
BFFC
0820
07C0
7838
1110
1110
2928
4544
3FF8
0100
0100
FFFE
0000
ENDCHAR
STARTCHAR U_3768
ENCODING 14184
SWIDTH 1000 0
DWIDTH 16 0
BBX 16 16 0 -2
BITMAP 
0200
0100
7FFE
4102
9FF4
0100
7FFC
0000
1FF0
1010
1FF0
0488
0850
3820
CB18
0C06
ENDCHAR
STARTCHAR U_3769
ENCODING 14185
SWIDTH 1000 0
DWIDTH 16 0
BBX 16 16 0 -2
BITMAP 
0100
7FFE
4002
8104
3FF8
2080
2FF8
2088
3FFE
2088
2FF8
24C4
22A8
4498
5886
8180
ENDCHAR
STARTCHAR U_376A
ENCODING 14186
SWIDTH 1000 0
DWIDTH 16 0
BBX 16 16 0 -2
BITMAP 
0200
0100
7FFE
4002
9044
1040
7C40
11F8
FE48
4448
28C8
7C48
10AA
FEAA
1106
1202
ENDCHAR
STARTCHAR U_376B
ENCODING 14187
SWIDTH 1000 0
DWIDTH 16 0
BBX 16 16 0 -2
BITMAP 
0100
7FFE
4002
8104
79F0
4A90
5060
6198
5606
49F0
4A40
6BF8
5440
43F8
4040
47FC
ENDCHAR
STARTCHAR U_376C
ENCODING 14188
SWIDTH 1000 0
DWIDTH 16 0
BBX 16 16 0 -2
BITMAP 
2020
1020
FE20
8220
11FC
7C20
1020
7C20
11FE
FE20
1050
7C50
4488
4488
7D04
4602
ENDCHAR
STARTCHAR U_376D
ENCODING 14189
SWIDTH 1000 0
DWIDTH 16 0
BBX 16 16 0 -2
BITMAP 
0100
7FFE
4002
9004
13F8
1208
5BF8
5608
53F8
9140
13F8
1440
11F0
1040
17FC
1000
ENDCHAR
STARTCHAR U_376E
ENCODING 14190
SWIDTH 1000 0
DWIDTH 16 0
BBX 16 16 0 -2
BITMAP 
0100
7FFE
4002
8804
2A00
3E7C
4944
7F44
0044
3E28
0028
7F10
0810
2A28
4944
1882
ENDCHAR
STARTCHAR U_376F
ENCODING 14191
SWIDTH 1000 0
DWIDTH 16 0
BBX 16 16 0 -2
BITMAP 
0200
0100
7FFE
4002
8074
1F80
0200
FFFE
0820
37D8
C446
3FF8
2008
27C8
2448
27D8
ENDCHAR
STARTCHAR U_3770
ENCODING 14192
SWIDTH 1000 0
DWIDTH 16 0
BBX 16 16 0 -2
BITMAP 
0100
7FFE
4202
9FF4
1490
1250
1130
1FF0
0100
FFFE
9212
2FE8
4404
07E0
0820
3060
ENDCHAR
STARTCHAR U_3771
ENCODING 14193
SWIDTH 1000 0
DWIDTH 16 0
BBX 16 16 0 -2
BITMAP 
0100
7FFE
408A
8BFC
4888
49FC
4954
79FC
0800
0BFE
FA42
4878
4888
4950
8860
0980
ENDCHAR
STARTCHAR U_3772
ENCODING 14194
SWIDTH 1000 0
DWIDTH 16 0
BBX 16 16 0 -2
BITMAP 
0100
7FFE
4112
97FC
5110
53F8
52A8
77FC
1414
11F0
F010
57FC
5444
53F8
9248
1258
ENDCHAR
STARTCHAR U_3773
ENCODING 14195
SWIDTH 1000 0
DWIDTH 16 0
BBX 16 16 0 -2
BITMAP 
0200
0200
0200
0200
FFFC
0200
0200
1290
1248
1224
2224
2212
4212
8200
0A00
0400
ENDCHAR
STARTCHAR U_3774
ENCODING 14196
SWIDTH 1000 0
DWIDTH 16 0
BBX 16 16 0 -2
BITMAP 
0008
7C08
0008
01FE
0008
FE08
2488
2448
2448
2408
2408
2428
2412
4402
43FE
8000
ENDCHAR
STARTCHAR U_3775
ENCODING 14197
SWIDTH 1000 0
DWIDTH 16 0
BBX 16 16 0 -2
BITMAP 
0000
3FF8
2008
3FF8
2008
3FF8
0000
7FFC
0020
0020
FFFE
0820
0420
0420
00A0
0040
ENDCHAR
STARTCHAR U_3776
ENCODING 14198
SWIDTH 1000 0
DWIDTH 16 0
BBX 16 16 0 -2
BITMAP 
3FF8
2448
2448
3FF8
0000
0440
0442
0842
303E
C000
0020
FFFE
0820
0420
04A0
0040
ENDCHAR
STARTCHAR U_3777
ENCODING 14199
SWIDTH 1000 0
DWIDTH 16 0
BBX 16 16 0 -2
BITMAP 
3FF0
0010
1FF0
0010
3FF0
0040
7DF0
1150
1C94
E14C
0020
FFFE
0820
0420
04A0
0040
ENDCHAR
STARTCHAR U_3778
ENCODING 14200
SWIDTH 1000 0
DWIDTH 16 0
BBX 16 16 0 -2
BITMAP 
0100
1110
2108
4504
0800
3FF8
2008
2008
3FF8
2008
2008
3FF8
0440
0842
1042
603E
ENDCHAR
STARTCHAR U_3779
ENCODING 14201
SWIDTH 1000 0
DWIDTH 16 0
BBX 16 16 0 -2
BITMAP 
0100
1110
2168
4384
1C00
E800
1FE0
2020
4040
BFF8
2108
2108
3FF8
0492
188A
E07E
ENDCHAR
STARTCHAR U_377A
ENCODING 14202
SWIDTH 1000 0
DWIDTH 16 0
BBX 16 16 0 -2
BITMAP 
2210
1410
FF90
1410
1414
7F52
1552
FF92
1510
7F14
1404
3608
5510
94A0
1440
1580
ENDCHAR
STARTCHAR U_377B
ENCODING 14203
SWIDTH 1000 0
DWIDTH 16 0
BBX 16 16 0 -2
BITMAP 
2210
2210
FF90
2210
3E54
0852
7F52
4990
7F10
0814
7F04
0808
7F08
0810
0F20
F0C0
ENDCHAR
STARTCHAR U_377C
ENCODING 14204
SWIDTH 1000 0
DWIDTH 16 0
BBX 16 16 0 -2
BITMAP 
2000
21FC
2020
2020
FC20
2820
2BFE
2820
2820
2820
2820
28A0
2842
4802
47FE
8000
ENDCHAR
STARTCHAR U_377D
ENCODING 14205
SWIDTH 1000 0
DWIDTH 16 0
BBX 16 16 0 -2
BITMAP 
2020
2020
2020
2024
FDA8
28B0
28B0
2928
2924
2A24
28A0
2840
2802
4802
47FE
8000
ENDCHAR
STARTCHAR U_377E
ENCODING 14206
SWIDTH 1000 0
DWIDTH 16 0
BBX 16 16 0 -2
BITMAP 
2040
2040
2040
23FC
FC80
2880
28F8
2920
2920
2A20
2820
29FC
2802
4802
47FE
8000
ENDCHAR
STARTCHAR U_377F
ENCODING 14207
SWIDTH 1000 0
DWIDTH 16 0
BBX 16 16 0 -2
BITMAP 
2020
2020
21FC
2124
FD28
2920
29F8
2908
2950
2920
2A50
2A88
2D0A
4802
47FE
8000
ENDCHAR
STARTCHAR U_3780
ENCODING 14208
SWIDTH 1000 0
DWIDTH 16 0
BBX 16 16 0 -2
BITMAP 
2040
2040
2040
23FE
FC80
2890
2912
2954
2A90
2C28
2824
2844
2982
4802
47FE
8000
ENDCHAR
STARTCHAR U_3781
ENCODING 14209
SWIDTH 1000 0
DWIDTH 16 0
BBX 16 16 0 -2
BITMAP 
2000
21F8
2108
21F8
FD08
29F8
2800
2918
29E0
2904
2904
28FC
2802
4802
47FE
8000
ENDCHAR
STARTCHAR U_3782
ENCODING 14210
SWIDTH 1000 0
DWIDTH 16 0
BBX 16 16 0 -2
BITMAP 
201C
21E0
2044
2124
FC88
2820
2820
2BFE
2848
28C8
2830
2868
2986
4802
47FE
8000
ENDCHAR
STARTCHAR U_3783
ENCODING 14211
SWIDTH 1000 0
DWIDTH 16 0
BBX 16 16 0 -2
BITMAP 
2840
2448
4244
9244
1040
29FE
4450
8250
7C50
4450
4450
4452
4452
7C92
448E
0100
ENDCHAR
STARTCHAR U_3784
ENCODING 14212
SWIDTH 1000 0
DWIDTH 16 0
BBX 16 16 0 -2
BITMAP 
2040
2040
23FC
20A0
FD10
2A48
2DF4
2950
29F0
2950
29F4
2844
283E
4802
47FE
8000
ENDCHAR
STARTCHAR U_3785
ENCODING 14213
SWIDTH 1000 0
DWIDTH 16 0
BBX 16 16 0 -2
BITMAP 
2000
21FC
2124
21FC
FD24
29FC
2820
29FE
2870
28A8
2924
2A20
2822
4802
47FE
8000
ENDCHAR
STARTCHAR U_3786
ENCODING 14214
SWIDTH 1000 0
DWIDTH 16 0
BBX 16 16 0 -2
BITMAP 
2020
2020
21FC
2050
FC88
2BFE
2808
29E8
2928
2928
29E8
2928
2808
481A
4802
87FE
ENDCHAR
STARTCHAR U_3787
ENCODING 14215
SWIDTH 1000 0
DWIDTH 16 0
BBX 16 16 0 -2
BITMAP 
2000
21FC
2124
21FC
FD24
29FC
2800
2BFE
2922
2914
2948
2984
2902
4802
47FE
8000
ENDCHAR
STARTCHAR U_3788
ENCODING 14216
SWIDTH 1000 0
DWIDTH 16 0
BBX 16 16 0 -2
BITMAP 
2040
2020
21FC
2104
FD04
29FC
2900
29FC
2B54
2B54
2DFC
2954
2954
490E
4802
87FE
ENDCHAR
STARTCHAR U_3789
ENCODING 14217
SWIDTH 1000 0
DWIDTH 16 0
BBX 16 16 0 -2
BITMAP 
2088
2050
23FE
2020
FDFC
2840
2BFE
2880
29FC
2A20
2C20
2BFE
2802
4802
47FE
8000
ENDCHAR
STARTCHAR U_378A
ENCODING 14218
SWIDTH 1000 0
DWIDTH 16 0
BBX 16 16 0 -2
BITMAP 
1040
5440
5440
7C40
92FC
9250
FE50
0050
7C50
0050
FE50
1052
5492
9292
510E
2200
ENDCHAR
STARTCHAR U_378B
ENCODING 14219
SWIDTH 1000 0
DWIDTH 16 0
BBX 16 16 0 -2
BITMAP 
0000
3FFC
2004
2004
3FFC
2000
2000
2FF8
2408
2410
2220
2140
2080
4140
4630
980E
ENDCHAR
STARTCHAR U_378C
ENCODING 14220
SWIDTH 1000 0
DWIDTH 16 0
BBX 16 16 0 -2
BITMAP 
0000
3FFC
2004
2004
3FFC
2000
27F8
2010
2020
2040
2FFE
2040
2040
4040
4140
8080
ENDCHAR
STARTCHAR U_378D
ENCODING 14221
SWIDTH 1000 0
DWIDTH 16 0
BBX 16 16 0 -2
BITMAP 
0000
3FFC
2004
2004
3FFC
2100
2100
2FE0
2120
2520
2220
2320
24A2
4422
481E
9000
ENDCHAR
STARTCHAR U_378E
ENCODING 14222
SWIDTH 1000 0
DWIDTH 16 0
BBX 16 16 0 -2
BITMAP 
0000
3FFC
2004
2004
3FFC
2000
2FF8
2888
2888
2888
2FF8
2800
2802
4802
4802
87FE
ENDCHAR
STARTCHAR U_378F
ENCODING 14223
SWIDTH 1000 0
DWIDTH 16 0
BBX 16 16 0 -2
BITMAP 
0000
3FFC
2004
2004
3FFC
2000
2078
2780
2080
2040
2FF8
2010
2060
4180
4600
99FE
ENDCHAR
STARTCHAR U_3790
ENCODING 14224
SWIDTH 1000 0
DWIDTH 16 0
BBX 16 16 0 -2
BITMAP 
0000
3FFC
2004
2004
3FFC
2000
2080
2040
2FFC
2000
2408
2210
2120
4000
5FFE
8000
ENDCHAR
STARTCHAR U_3791
ENCODING 14225
SWIDTH 1000 0
DWIDTH 16 0
BBX 16 16 0 -2
BITMAP 
0000
3FFC
2004
2004
3FFC
2000
2888
2490
22A0
2080
22A0
2492
288A
4082
407E
8000
ENDCHAR
STARTCHAR U_3792
ENCODING 14226
SWIDTH 1000 0
DWIDTH 16 0
BBX 16 16 0 -2
BITMAP 
0000
3FFC
2004
3FFC
2100
2200
2FF8
2808
2808
2FF8
2808
2808
4FF8
4808
8808
0FF8
ENDCHAR
STARTCHAR U_3793
ENCODING 14227
SWIDTH 1000 0
DWIDTH 16 0
BBX 16 16 0 -2
BITMAP 
0000
3FFC
2004
3FFC
2000
2860
2F88
2808
27F8
2000
2FF8
2808
4FF8
4808
8FF8
0808
ENDCHAR
STARTCHAR U_3794
ENCODING 14228
SWIDTH 1000 0
DWIDTH 16 0
BBX 16 16 0 -2
BITMAP 
0000
3FFC
2004
3FFC
2100
23F0
2C20
2240
2180
2240
2CF8
2108
4690
4060
8180
0E00
ENDCHAR
STARTCHAR U_3795
ENCODING 14229
SWIDTH 1000 0
DWIDTH 16 0
BBX 16 16 0 -2
BITMAP 
0000
3FFC
2004
3FFC
2220
2410
2808
37F6
2410
27F0
2410
27F0
4410
4410
8450
0420
ENDCHAR
STARTCHAR U_3796
ENCODING 14230
SWIDTH 1000 0
DWIDTH 16 0
BBX 16 16 0 -2
BITMAP 
0000
3FFC
2004
2004
3FFC
2080
3FFC
2080
2FF8
2888
28A8
29D0
22A0
4490
588C
8080
ENDCHAR
STARTCHAR U_3797
ENCODING 14231
SWIDTH 1000 0
DWIDTH 16 0
BBX 16 16 0 -2
BITMAP 
0000
3FFC
2004
2004
3FFC
2090
2088
2FFC
2080
2888
25D0
22A0
2490
488C
4280
8100
ENDCHAR
STARTCHAR U_3798
ENCODING 14232
SWIDTH 1000 0
DWIDTH 16 0
BBX 16 16 0 -2
BITMAP 
3FFC
2004
3FFC
2000
2FFC
2100
2308
2488
2D50
2260
25E0
2950
4250
4448
9944
0080
ENDCHAR
STARTCHAR U_3799
ENCODING 14233
SWIDTH 1000 0
DWIDTH 16 0
BBX 16 16 0 -2
BITMAP 
3FFC
2004
3FFC
2000
20F0
3F00
21E0
2F00
21F4
3F04
20FC
2088
4ED0
42A0
8498
1986
ENDCHAR
STARTCHAR U_379A
ENCODING 14234
SWIDTH 1000 0
DWIDTH 16 0
BBX 16 16 0 -2
BITMAP 
3FFC
2004
3FFC
2000
2038
27C0
2040
2FFE
2040
2140
265C
2444
475C
4444
87FC
0404
ENDCHAR
STARTCHAR U_379B
ENCODING 14235
SWIDTH 1000 0
DWIDTH 16 0
BBX 16 16 0 -2
BITMAP 
0000
3FFC
2004
3FFC
2288
2490
28E4
3284
247C
2C00
34FC
2484
44FC
4484
84FC
0484
ENDCHAR
STARTCHAR U_379C
ENCODING 14236
SWIDTH 1000 0
DWIDTH 16 0
BBX 16 16 0 -2
BITMAP 
3FFC
2004
3FFC
220C
2470
2810
30FE
2238
2454
2C92
3420
25FE
4444
44C8
8438
05C6
ENDCHAR
STARTCHAR U_379D
ENCODING 14237
SWIDTH 1000 0
DWIDTH 16 0
BBX 16 16 0 -2
BITMAP 
0024
3FFE
2220
23A4
2224
3FA8
2B10
529A
4626
8042
1FF8
1008
1FF8
1000
2000
4000
ENDCHAR
STARTCHAR U_379E
ENCODING 14238
SWIDTH 1000 0
DWIDTH 16 0
BBX 16 16 0 -2
BITMAP 
0000
3FFC
2004
3FFC
2448
2848
3054
22A4
2500
2C10
3490
249C
4490
4550
863E
0400
ENDCHAR
STARTCHAR U_379F
ENCODING 14239
SWIDTH 1000 0
DWIDTH 16 0
BBX 16 16 0 -2
BITMAP 
3FFC
2004
3FFC
2220
2FF8
2140
2FF8
2A28
2DD8
2808
2FF8
2080
5FFC
4140
8630
180C
ENDCHAR
STARTCHAR U_37A0
ENCODING 14240
SWIDTH 1000 0
DWIDTH 16 0
BBX 16 16 0 -2
BITMAP 
3FFC
2004
3FFC
2080
2FF8
2140
2A28
27F0
2C18
37F4
2410
27F0
4080
4888
9284
0100
ENDCHAR
STARTCHAR U_37A1
ENCODING 14241
SWIDTH 1000 0
DWIDTH 16 0
BBX 16 16 0 -2
BITMAP 
3FFC
2004
3FFC
2000
2738
2210
2F7C
2000
2738
2210
23BC
2EC8
4130
4310
8D48
0186
ENDCHAR
STARTCHAR U_37A2
ENCODING 14242
SWIDTH 1000 0
DWIDTH 16 0
BBX 16 16 0 -2
BITMAP 
0100
0100
2108
2108
2108
2108
2108
2108
3FF8
0100
0100
0100
0100
0100
FFFE
0000
ENDCHAR
STARTCHAR U_37A3
ENCODING 14243
SWIDTH 1000 0
DWIDTH 16 0
BBX 16 16 0 -2
BITMAP 
0100
2108
2108
2108
3FF8
0100
0540
0820
3018
DFF6
0210
0210
0210
0410
08A0
1040
ENDCHAR
STARTCHAR U_37A4
ENCODING 14244
SWIDTH 1000 0
DWIDTH 16 0
BBX 16 16 0 -2
BITMAP 
0100
0100
2108
2108
2108
3FF8
0000
0100
0100
0100
0280
0440
0820
3018
C006
0000
ENDCHAR
STARTCHAR U_37A5
ENCODING 14245
SWIDTH 1000 0
DWIDTH 16 0
BBX 16 16 0 -2
BITMAP 
0100
2108
2108
2108
3FF8
0000
0600
0100
0100
0280
0280
0440
0820
1010
2008
C006
ENDCHAR
STARTCHAR U_37A6
ENCODING 14246
SWIDTH 1000 0
DWIDTH 16 0
BBX 16 16 0 -2
BITMAP 
1000
10F0
1090
1090
5490
5490
5490
5490
5490
5490
5490
5C92
6492
0112
010E
0200
ENDCHAR
STARTCHAR U_37A7
ENCODING 14247
SWIDTH 1000 0
DWIDTH 16 0
BBX 16 16 0 -2
BITMAP 
0100
2108
2108
2108
3FF8
0000
0000
3FF0
0410
0420
087C
0804
1004
2004
4028
8010
ENDCHAR
STARTCHAR U_37A8
ENCODING 14248
SWIDTH 1000 0
DWIDTH 16 0
BBX 16 16 0 -2
BITMAP 
1000
11FC
1004
1008
5410
5420
5420
57FE
5420
5420
5420
5C20
6420
0020
00A0
0040
ENDCHAR
STARTCHAR U_37A9
ENCODING 14249
SWIDTH 1000 0
DWIDTH 16 0
BBX 16 16 0 -2
BITMAP 
0100
2108
2108
3FF8
0000
0000
0FE0
0820
0820
0A20
0920
0922
1022
1022
201E
4000
ENDCHAR
STARTCHAR U_37AA
ENCODING 14250
SWIDTH 1000 0
DWIDTH 16 0
BBX 16 16 0 -2
BITMAP 
0000
3FF0
0010
0010
1FF0
0010
0010
FFFE
0100
0100
2108
2108
2108
2108
3FF8
0008
ENDCHAR
STARTCHAR U_37AB
ENCODING 14251
SWIDTH 1000 0
DWIDTH 16 0
BBX 16 16 0 -2
BITMAP 
0100
2108
2108
2108
3FF8
0200
0100
0100
7FF8
0030
00C0
0300
0C00
3000
4800
87FE
ENDCHAR
STARTCHAR U_37AC
ENCODING 14252
SWIDTH 1000 0
DWIDTH 16 0
BBX 16 16 0 -2
BITMAP 
0100
0100
2108
2108
2108
3FF8
0000
0000
3FF8
0100
0100
0100
0100
0100
FFFE
0000
ENDCHAR
STARTCHAR U_37AD
ENCODING 14253
SWIDTH 1000 0
DWIDTH 16 0
BBX 16 16 0 -2
BITMAP 
0100
0100
7FFC
0100
0280
0440
0820
3018
C106
0100
2108
2108
2108
2108
3FF8
0008
ENDCHAR
STARTCHAR U_37AE
ENCODING 14254
SWIDTH 1000 0
DWIDTH 16 0
BBX 16 16 0 -2
BITMAP 
0100
2108
2108
2108
3FF8
0800
0800
1FF8
1008
2010
4020
0040
0C80
0300
0080
0040
ENDCHAR
STARTCHAR U_37AF
ENCODING 14255
SWIDTH 1000 0
DWIDTH 16 0
BBX 16 16 0 -2
BITMAP 
0000
3FF0
0010
0010
3FF0
2000
2004
2004
1FFC
0100
0100
2108
2108
2108
3FF8
0008
ENDCHAR
STARTCHAR U_37B0
ENCODING 14256
SWIDTH 1000 0
DWIDTH 16 0
BBX 16 16 0 -2
BITMAP 
1080
1080
1080
11FC
5520
5620
5420
5420
57FE
5420
5420
5C20
6420
0020
0020
0020
ENDCHAR
STARTCHAR U_37B1
ENCODING 14257
SWIDTH 1000 0
DWIDTH 16 0
BBX 16 16 0 -2
BITMAP 
0100
2108
2108
3FF8
0000
0000
3FF8
2008
2008
2008
3FF8
2008
2008
2008
3FF8
2008
ENDCHAR
STARTCHAR U_37B2
ENCODING 14258
SWIDTH 1000 0
DWIDTH 16 0
BBX 16 16 0 -2
BITMAP 
1020
1020
1020
1020
55FC
5524
5524
5524
5524
55FC
5524
5C20
6420
0020
0020
0020
ENDCHAR
STARTCHAR U_37B3
ENCODING 14259
SWIDTH 1000 0
DWIDTH 16 0
BBX 16 16 0 -2
BITMAP 
1008
1088
1048
1048
5408
5488
5448
5448
5408
540E
55F8
5C08
6408
0008
0008
0008
ENDCHAR
STARTCHAR U_37B4
ENCODING 14260
SWIDTH 1000 0
DWIDTH 16 0
BBX 16 16 0 -2
BITMAP 
1004
101E
11F0
1110
5510
5510
5510
55FE
5510
5510
5510
5D08
650A
014A
0186
0102
ENDCHAR
STARTCHAR U_37B5
ENCODING 14261
SWIDTH 1000 0
DWIDTH 16 0
BBX 16 16 0 -2
BITMAP 
0100
2108
2108
2108
3FF8
0200
0100
7FFC
0820
0820
0440
0280
0100
06C0
1830
E00E
ENDCHAR
STARTCHAR U_37B6
ENCODING 14262
SWIDTH 1000 0
DWIDTH 16 0
BBX 16 16 0 -2
BITMAP 
1040
1020
1020
13FE
5488
5488
5488
5488
5488
5450
5450
5C20
6450
0088
0104
0602
ENDCHAR
STARTCHAR U_37B7
ENCODING 14263
SWIDTH 1000 0
DWIDTH 16 0
BBX 16 16 0 -2
BITMAP 
0100
2108
2108
2108
3FF8
0100
0100
0000
7FFC
0100
0100
3FF8
0100
0100
FFFE
0000
ENDCHAR
STARTCHAR U_37B8
ENCODING 14264
SWIDTH 1000 0
DWIDTH 16 0
BBX 16 16 0 -2
BITMAP 
0100
2108
2108
2108
3FF8
0000
0000
7FFC
0100
0300
0560
0910
3108
C104
0100
0100
ENDCHAR
STARTCHAR U_37B9
ENCODING 14265
SWIDTH 1000 0
DWIDTH 16 0
BBX 16 16 0 -2
BITMAP 
1000
1000
13FE
1008
5408
55E8
5528
5528
5528
5528
55E8
5D28
6408
0008
0028
0010
ENDCHAR
STARTCHAR U_37BA
ENCODING 14266
SWIDTH 1000 0
DWIDTH 16 0
BBX 16 16 0 -2
BITMAP 
0100
2108
2108
2108
3FF8
0800
0800
1FF0
2100
0100
7FFC
0280
0440
0820
3018
C006
ENDCHAR
STARTCHAR U_37BB
ENCODING 14267
SWIDTH 1000 0
DWIDTH 16 0
BBX 16 16 0 -2
BITMAP 
0100
2108
2108
3FF8
0000
1FF0
1010
1FF0
0000
FFFE
1000
1FF0
0010
0010
00A0
0040
ENDCHAR
STARTCHAR U_37BC
ENCODING 14268
SWIDTH 1000 0
DWIDTH 16 0
BBX 16 16 0 -2
BITMAP 
0000
3FF0
0020
00C0
7D04
0588
0950
1120
2118
C506
0200
0100
2108
2108
3FF8
0008
ENDCHAR
STARTCHAR U_37BD
ENCODING 14269
SWIDTH 1000 0
DWIDTH 16 0
BBX 16 16 0 -2
BITMAP 
2028
2024
2024
2020
ABFE
AA20
AA24
AA24
AA24
AA28
AA28
BA90
CB12
022A
0046
0082
ENDCHAR
STARTCHAR U_37BE
ENCODING 14270
SWIDTH 1000 0
DWIDTH 16 0
BBX 16 16 0 -2
BITMAP 
1000
11FC
1104
1104
5504
55FC
5500
5540
5544
5548
5570
5D40
6542
0242
023E
0400
ENDCHAR
STARTCHAR U_37BF
ENCODING 14271
SWIDTH 1000 0
DWIDTH 16 0
BBX 16 16 0 -2
BITMAP 
0100
2108
2108
3FF8
0000
0100
3FF8
0100
0100
FFFE
1010
0820
0440
0380
1C70
E00E
ENDCHAR
STARTCHAR U_37C0
ENCODING 14272
SWIDTH 1000 0
DWIDTH 16 0
BBX 16 16 0 -2
BITMAP 
0070
1F80
0100
0100
FFFE
0540
0920
3118
C006
0100
0100
2108
2108
2108
3FF8
0008
ENDCHAR
STARTCHAR U_37C1
ENCODING 14273
SWIDTH 1000 0
DWIDTH 16 0
BBX 16 16 0 -2
BITMAP 
1000
11FE
1100
1100
557C
5510
5510
5510
5510
55FE
5510
5D10
6510
0210
0210
0410
ENDCHAR
STARTCHAR U_37C2
ENCODING 14274
SWIDTH 1000 0
DWIDTH 16 0
BBX 16 16 0 -2
BITMAP 
1000
10FC
1084
10A4
5494
5484
5484
57FE
5504
5544
5524
5D04
65FE
0004
0028
0010
ENDCHAR
STARTCHAR U_37C3
ENCODING 14275
SWIDTH 1000 0
DWIDTH 16 0
BBX 16 16 0 -2
BITMAP 
1000
11FC
1004
1004
55F4
5404
5404
55F4
5514
5514
55F4
5D14
6404
0004
0028
0010
ENDCHAR
STARTCHAR U_37C4
ENCODING 14276
SWIDTH 1000 0
DWIDTH 16 0
BBX 16 16 0 -2
BITMAP 
1084
1044
1048
1000
55FE
5420
5420
54FC
5420
5420
55FE
5C20
6420
0020
0020
0020
ENDCHAR
STARTCHAR U_37C5
ENCODING 14277
SWIDTH 1000 0
DWIDTH 16 0
BBX 16 16 0 -2
BITMAP 
1000
1088
1050
1124
5554
558C
5504
55FC
5400
5490
5490
5C90
6510
0112
0212
040E
ENDCHAR
STARTCHAR U_37C6
ENCODING 14278
SWIDTH 1000 0
DWIDTH 16 0
BBX 16 16 0 -2
BITMAP 
2090
2094
2114
2118
AB10
AD32
A952
A90E
A920
A820
ABFE
B820
C820
0020
0020
0020
ENDCHAR
STARTCHAR U_37C7
ENCODING 14279
SWIDTH 1000 0
DWIDTH 16 0
BBX 16 16 0 -2
BITMAP 
1020
1020
1124
1124
5524
5524
56AA
5472
5420
5420
55FC
5C20
6420
0020
03FE
0000
ENDCHAR
STARTCHAR U_37C8
ENCODING 14280
SWIDTH 1000 0
DWIDTH 16 0
BBX 16 16 0 -2
BITMAP 
1028
1024
1024
1020
55FE
5420
5520
54B2
54B4
5468
54A8
5D24
6222
0020
00A0
0040
ENDCHAR
STARTCHAR U_37C9
ENCODING 14281
SWIDTH 1000 0
DWIDTH 16 0
BBX 16 16 0 -2
BITMAP 
2040
2020
23FE
2202
AC24
A920
A9FC
A920
AA20
A820
ABFE
B820
C820
0020
0020
0020
ENDCHAR
STARTCHAR U_37CA
ENCODING 14282
SWIDTH 1000 0
DWIDTH 16 0
BBX 16 16 0 -2
BITMAP 
1008
103C
11C0
1004
5544
54A8
5400
55F8
5410
5420
57FE
5C20
6420
0020
00A0
0040
ENDCHAR
STARTCHAR U_37CB
ENCODING 14283
SWIDTH 1000 0
DWIDTH 16 0
BBX 16 16 0 -2
BITMAP 
1104
1084
1088
1010
55FC
5504
5504
5504
55FC
5450
5450
5C90
6492
0112
020E
0400
ENDCHAR
STARTCHAR U_37CC
ENCODING 14284
SWIDTH 1000 0
DWIDTH 16 0
BBX 16 16 0 -2
BITMAP 
1090
1088
1080
13FE
54A0
54A8
54B0
54A4
54A8
54B0
5524
5D2A
6532
0222
02DE
0400
ENDCHAR
STARTCHAR U_37CD
ENCODING 14285
SWIDTH 1000 0
DWIDTH 16 0
BBX 16 16 0 -2
BITMAP 
1040
1020
11FC
1104
5504
55FC
5504
5504
55FC
5520
5522
5D14
6508
0144
0182
0100
ENDCHAR
STARTCHAR U_37CE
ENCODING 14286
SWIDTH 1000 0
DWIDTH 16 0
BBX 16 16 0 -2
BITMAP 
2008
203C
23C0
2044
AA24
A928
A900
A840
ABFE
A888
A908
BB90
C860
0050
0188
0604
ENDCHAR
STARTCHAR U_37CF
ENCODING 14287
SWIDTH 1000 0
DWIDTH 16 0
BBX 16 16 0 -2
BITMAP 
1020
1020
1050
1088
5544
5622
54F8
5408
5410
5420
55FC
5D04
6504
0104
01FC
0104
ENDCHAR
STARTCHAR U_37D0
ENCODING 14288
SWIDTH 1000 0
DWIDTH 16 0
BBX 16 16 0 -2
BITMAP 
1048
1048
11FE
1048
5448
5420
5410
55FE
5480
5480
5480
5C80
6480
0080
00FC
0000
ENDCHAR
STARTCHAR U_37D1
ENCODING 14289
SWIDTH 1000 0
DWIDTH 16 0
BBX 16 16 0 -2
BITMAP 
2020
2020
23FE
2020
A820
ABFE
AA02
AC04
A9F8
A810
A820
BBFE
C820
0020
00A0
0040
ENDCHAR
STARTCHAR U_37D2
ENCODING 14290
SWIDTH 1000 0
DWIDTH 16 0
BBX 16 16 0 -2
BITMAP 
0100
2108
2108
3FF8
0000
3FF8
0408
FFFE
0408
3FF8
0800
1FF8
2808
4808
8FF8
0808
ENDCHAR
STARTCHAR U_37D3
ENCODING 14291
SWIDTH 1000 0
DWIDTH 16 0
BBX 16 16 0 -2
BITMAP 
2184
2068
2030
20C8
AB04
A840
ABFE
A8A0
A920
ABFC
AD24
B924
C934
0128
0020
0020
ENDCHAR
STARTCHAR U_37D4
ENCODING 14292
SWIDTH 1000 0
DWIDTH 16 0
BBX 16 16 0 -2
BITMAP 
0100
2108
2108
3FF8
0100
0280
0C60
3118
CFE6
0040
0080
1FF0
1010
1010
1FF0
1010
ENDCHAR
STARTCHAR U_37D5
ENCODING 14293
SWIDTH 1000 0
DWIDTH 16 0
BBX 16 16 0 -2
BITMAP 
0100
2108
2108
3FF8
0000
0020
7920
48A0
4A20
4920
483C
4BE0
7820
4820
0020
0020
ENDCHAR
STARTCHAR U_37D6
ENCODING 14294
SWIDTH 1000 0
DWIDTH 16 0
BBX 16 16 0 -2
BITMAP 
0100
2108
2108
3FF8
0000
3FF8
0100
1FF0
0100
7FFC
0000
0820
FFFE
0820
1020
2020
ENDCHAR
STARTCHAR U_37D7
ENCODING 14295
SWIDTH 1000 0
DWIDTH 16 0
BBX 16 16 0 -2
BITMAP 
0100
0100
4104
5144
5554
638C
4104
7DF4
5554
5554
5554
6594
4D34
4104
7FFC
0004
ENDCHAR
STARTCHAR U_37D8
ENCODING 14296
SWIDTH 1000 0
DWIDTH 16 0
BBX 16 16 0 -2
BITMAP 
1000
11FC
1124
1124
5574
5524
55FC
5504
5574
5554
5554
5D74
6504
0204
0214
0408
ENDCHAR
STARTCHAR U_37D9
ENCODING 14297
SWIDTH 1000 0
DWIDTH 16 0
BBX 16 16 0 -2
BITMAP 
1088
1088
1088
13FE
5488
5488
57FE
5400
55FC
5504
5504
5DFC
6504
0104
01FC
0104
ENDCHAR
STARTCHAR U_37DA
ENCODING 14298
SWIDTH 1000 0
DWIDTH 16 0
BBX 16 16 0 -2
BITMAP 
1020
1020
FDFC
1020
3020
39F8
5488
9050
1020
1050
118C
0100
2108
2108
3FF8
0008
ENDCHAR
STARTCHAR U_37DB
ENCODING 14299
SWIDTH 1000 0
DWIDTH 16 0
BBX 16 16 0 -2
BITMAP 
0100
2108
2108
3FF8
0000
1088
1088
FBFE
1088
1088
1CF8
F088
1088
1088
50F8
2088
ENDCHAR
STARTCHAR U_37DC
ENCODING 14300
SWIDTH 1000 0
DWIDTH 16 0
BBX 16 16 0 -2
BITMAP 
0100
2108
2108
3FF8
0040
7C40
04FC
0484
7D28
4020
40A8
7CA4
04A4
0524
28A0
1040
ENDCHAR
STARTCHAR U_37DD
ENCODING 14301
SWIDTH 1000 0
DWIDTH 16 0
BBX 16 16 0 -2
BITMAP 
1040
1020
11FC
1000
5508
5490
5400
57FE
5400
5400
55FC
5D04
6504
0104
01FC
0104
ENDCHAR
STARTCHAR U_37DE
ENCODING 14302
SWIDTH 1000 0
DWIDTH 16 0
BBX 16 16 0 -2
BITMAP 
1048
1044
105E
11E0
5428
5412
546A
5596
5448
545E
55E0
5C24
6428
0012
006A
0186
ENDCHAR
STARTCHAR U_37DF
ENCODING 14303
SWIDTH 1000 0
DWIDTH 16 0
BBX 16 16 0 -2
BITMAP 
0100
2108
2108
3FF8
0000
0820
7FFC
0820
FFFE
1010
2FC8
4844
8FC2
0810
0810
07F0
ENDCHAR
STARTCHAR U_37E0
ENCODING 14304
SWIDTH 1000 0
DWIDTH 16 0
BBX 16 16 0 -2
BITMAP 
2000
23FE
2202
228A
AA52
ABFE
AA22
AA22
AAAA
AAAA
AAAA
BAFA
CA02
0202
020A
0204
ENDCHAR
STARTCHAR U_37E1
ENCODING 14305
SWIDTH 1000 0
DWIDTH 16 0
BBX 16 16 0 -2
BITMAP 
0100
2108
2108
3FF8
0000
1110
0920
7FFC
0400
FFFE
1010
2FE8
C826
08A0
0848
07F8
ENDCHAR
STARTCHAR U_37E2
ENCODING 14306
SWIDTH 1000 0
DWIDTH 16 0
BBX 16 16 0 -2
BITMAP 
0100
2108
2108
3FF8
0200
3FF8
0480
0840
FFFE
0010
1F90
1090
1090
1F90
0050
0020
ENDCHAR
STARTCHAR U_37E3
ENCODING 14307
SWIDTH 1000 0
DWIDTH 16 0
BBX 16 16 0 -2
BITMAP 
2104
2114
2114
2114
ABD2
A922
A92A
AB48
AB88
AD50
AD10
B914
C922
017E
0122
0100
ENDCHAR
STARTCHAR U_37E4
ENCODING 14308
SWIDTH 1000 0
DWIDTH 16 0
BBX 16 16 0 -2
BITMAP 
0100
2108
2108
3FF8
0000
3FF0
0010
1FF0
0010
FFFE
1110
09A0
0540
1930
E50E
0200
ENDCHAR
STARTCHAR U_37E5
ENCODING 14309
SWIDTH 1000 0
DWIDTH 16 0
BBX 16 16 0 -2
BITMAP 
0100
2108
2108
3FF8
0400
0820
1FF0
0210
FFFE
08A0
3318
CC46
0380
1C30
01C0
3E00
ENDCHAR
STARTCHAR U_37E6
ENCODING 14310
SWIDTH 1000 0
DWIDTH 16 0
BBX 16 16 0 -2
BITMAP 
0100
4104
7FFC
0000
7FFC
4104
3FF8
0100
1FF0
1110
1FF0
1110
1FF0
0100
FFFE
0100
ENDCHAR
STARTCHAR U_37E7
ENCODING 14311
SWIDTH 1000 0
DWIDTH 16 0
BBX 16 16 0 -2
BITMAP 
0100
4104
7FFC
0000
3EF8
2288
3EF8
0000
3FF8
0000
FFFE
0800
0FF0
0010
00A0
0040
ENDCHAR
STARTCHAR U_37E8
ENCODING 14312
SWIDTH 1000 0
DWIDTH 16 0
BBX 16 16 0 -2
BITMAP 
1020
1124
1124
1124
55FC
5400
57FE
5420
5440
55FC
5554
5D54
6554
0154
0154
010C
ENDCHAR
STARTCHAR U_37E9
ENCODING 14313
SWIDTH 1000 0
DWIDTH 16 0
BBX 16 16 0 -2
BITMAP 
0020
7F20
413E
7F44
48A4
7F24
4828
4510
5328
6146
0000
0100
2108
2108
3FF8
0008
ENDCHAR
STARTCHAR U_37EA
ENCODING 14314
SWIDTH 1000 0
DWIDTH 16 0
BBX 16 16 0 -2
BITMAP 
1000
11FC
1124
1124
55FC
5524
5524
55FC
5400
57FE
5520
5D22
6514
0148
0184
0102
ENDCHAR
STARTCHAR U_37EB
ENCODING 14315
SWIDTH 1000 0
DWIDTH 16 0
BBX 16 16 0 -2
BITMAP 
1040
1080
11FC
1104
55FC
5504
55FC
5420
5432
57B4
54A8
5D28
6524
0224
04A2
0040
ENDCHAR
STARTCHAR U_37EC
ENCODING 14316
SWIDTH 1000 0
DWIDTH 16 0
BBX 16 16 0 -2
BITMAP 
0100
4104
7FFC
0500
3978
2108
3D78
2108
3FF8
0100
3FF0
0820
0440
0380
1C70
E00E
ENDCHAR
STARTCHAR U_37ED
ENCODING 14317
SWIDTH 1000 0
DWIDTH 16 0
BBX 16 16 0 -2
BITMAP 
1000
11FC
1104
11FC
5510
55FE
5510
554A
5586
5400
55FC
5D04
65FC
0104
01FC
0104
ENDCHAR
STARTCHAR U_37EE
ENCODING 14318
SWIDTH 1000 0
DWIDTH 16 0
BBX 16 16 0 -2
BITMAP 
1040
1020
13FE
1202
5488
5504
5622
5428
5424
57FE
5420
5C50
6450
0088
0104
0202
ENDCHAR
STARTCHAR U_37EF
ENCODING 14319
SWIDTH 1000 0
DWIDTH 16 0
BBX 16 16 0 -2
BITMAP 
0100
4104
7FFC
0200
0100
7FFE
4802
9FF4
2820
07C0
1830
E00E
1FF0
1010
1FF0
1010
ENDCHAR
STARTCHAR U_37F0
ENCODING 14320
SWIDTH 1000 0
DWIDTH 16 0
BBX 16 16 0 -2
BITMAP 
2000
23FE
2202
2000
A9FC
A904
A9FC
A904
A9FC
A840
A820
BBFE
C800
0088
0104
0202
ENDCHAR
STARTCHAR U_37F1
ENCODING 14321
SWIDTH 1000 0
DWIDTH 16 0
BBX 16 16 0 -2
BITMAP 
2104
2084
2088
2000
ABFE
A820
A820
A9FC
A820
A820
ABFE
B800
CAA4
0252
0452
0000
ENDCHAR
STARTCHAR U_37F2
ENCODING 14322
SWIDTH 1000 0
DWIDTH 16 0
BBX 16 16 0 -2
BITMAP 
1000
11FE
1110
1120
557C
5544
557C
5544
557C
5510
5510
5D54
6552
0292
0250
0420
ENDCHAR
STARTCHAR U_37F3
ENCODING 14323
SWIDTH 1000 0
DWIDTH 16 0
BBX 16 16 0 -2
BITMAP 
2000
23FE
2050
2050
ABFE
AA52
AA52
ABFE
A820
A820
ABFE
B870
C8A8
0124
0622
0020
ENDCHAR
STARTCHAR U_37F4
ENCODING 14324
SWIDTH 1000 0
DWIDTH 16 0
BBX 16 16 0 -2
BITMAP 
2020
2040
23FC
2224
AA24
ABFC
AA24
AA44
ABFC
A840
A8A8
B8B4
C93C
0122
0222
041E
ENDCHAR
STARTCHAR U_37F5
ENCODING 14325
SWIDTH 1000 0
DWIDTH 16 0
BBX 16 16 0 -2
BITMAP 
0100
2108
2108
3FF8
0000
3FF8
2448
3FF8
0000
7FFC
0100
11F8
1100
1100
FFFE
0000
ENDCHAR
STARTCHAR U_37F6
ENCODING 14326
SWIDTH 1000 0
DWIDTH 16 0
BBX 16 16 0 -2
BITMAP 
0100
4104
7FFC
0000
3FFC
2080
2100
27F0
2410
27F0
2410
27F0
4080
4490
8A88
1104
ENDCHAR
STARTCHAR U_37F7
ENCODING 14327
SWIDTH 1000 0
DWIDTH 16 0
BBX 16 16 0 -2
BITMAP 
1088
1088
13FE
1088
5420
5450
5488
5504
56FA
5400
5400
5DFC
6504
0104
01FC
0104
ENDCHAR
STARTCHAR U_37F8
ENCODING 14328
SWIDTH 1000 0
DWIDTH 16 0
BBX 16 16 0 -2
BITMAP 
2020
2040
21FC
2104
A9FC
A904
A9FC
A840
ABFE
A888
A924
BA22
CDFC
0020
0020
0020
ENDCHAR
STARTCHAR U_37F9
ENCODING 14329
SWIDTH 1000 0
DWIDTH 16 0
BBX 16 16 0 -2
BITMAP 
2010
3F20
2ACE
2AAA
AEAA
AAAA
AAAA
AEAA
AAAA
AAAA
ABEA
BEAC
DA28
0248
0248
0288
ENDCHAR
STARTCHAR U_37FA
ENCODING 14330
SWIDTH 1000 0
DWIDTH 16 0
BBX 16 16 0 -2
BITMAP 
0100
4104
7FFC
0100
3FF8
2108
FFFE
2108
3FF8
1110
1FF0
0400
FFFE
0820
07C0
7838
ENDCHAR
STARTCHAR U_37FB
ENCODING 14331
SWIDTH 1000 0
DWIDTH 16 0
BBX 16 16 0 -2
BITMAP 
0804
7F78
0840
7F40
497E
7F48
4948
7F48
0848
7F48
0888
0100
2108
2108
3FF8
0008
ENDCHAR
STARTCHAR U_37FC
ENCODING 14332
SWIDTH 1000 0
DWIDTH 16 0
BBX 16 16 0 -2
BITMAP 
0100
2108
2108
3FF8
0820
0820
7F3E
0844
3EA4
0824
FF28
1028
1E10
2228
4A44
8482
ENDCHAR
STARTCHAR U_37FD
ENCODING 14333
SWIDTH 1000 0
DWIDTH 16 0
BBX 16 16 0 -2
BITMAP 
1000
13FE
1050
11FC
5554
5554
55FC
5400
55FC
5400
57FE
5C20
64A8
0124
02A2
0040
ENDCHAR
STARTCHAR U_37FE
ENCODING 14334
SWIDTH 1000 0
DWIDTH 16 0
BBX 16 16 0 -2
BITMAP 
1010
11FE
1110
117C
5514
55FE
5514
557C
5510
557C
5554
5D7C
6554
027C
0254
044C
ENDCHAR
STARTCHAR U_37FF
ENCODING 14335
SWIDTH 1000 0
DWIDTH 16 0
BBX 16 16 0 -2
BITMAP 
2088
2088
23FE
2088
A824
ABFE
A850
A888
A904
AA8A
A888
BBFE
C888
0088
0108
0208
ENDCHAR
STARTCHAR U_3800
ENCODING 14336
SWIDTH 1000 0
DWIDTH 16 0
BBX 16 16 0 -2
BITMAP 
0400
1FF0
1010
1FF0
1010
1FF0
1000
1FFC
1000
1FFC
4924
849C
0100
2108
2108
3FF8
ENDCHAR
STARTCHAR U_3801
ENCODING 14337
SWIDTH 1000 0
DWIDTH 16 0
BBX 16 16 0 -2
BITMAP 
2040
2088
21FC
2108
AA52
ABFE
A850
A988
AE26
A8C0
AB10
B864
CB88
0030
00C0
0700
ENDCHAR
STARTCHAR U_3802
ENCODING 14338
SWIDTH 1000 0
DWIDTH 16 0
BBX 16 16 0 -2
BITMAP 
2108
2108
2108
27D0
A91E
AF94
A924
AFD4
AA14
ABD4
AA54
BA48
CA48
04D4
0424
0842
ENDCHAR
STARTCHAR U_3803
ENCODING 14339
SWIDTH 1000 0
DWIDTH 16 0
BBX 16 16 0 -2
BITMAP 
2040
2020
23FE
2088
A850
ABFE
AA22
AAFA
AA22
AAFA
AA8A
BA8A
CAFA
0202
020A
0204
ENDCHAR
STARTCHAR U_3804
ENCODING 14340
SWIDTH 1000 0
DWIDTH 16 0
BBX 16 16 0 -2
BITMAP 
0100
2108
2108
3FF8
0000
7EFC
2244
1A34
62C4
0400
1FF0
1010
1FF0
1010
1FF0
1010
ENDCHAR
STARTCHAR U_3805
ENCODING 14341
SWIDTH 1000 0
DWIDTH 16 0
BBX 16 16 0 -2
BITMAP 
0100
4104
7FFC
0200
13FC
2400
43F8
8A08
13F8
3208
53F8
9100
13F8
1510
10E0
171C
ENDCHAR
STARTCHAR U_3806
ENCODING 14342
SWIDTH 1000 0
DWIDTH 16 0
BBX 16 16 0 -2
BITMAP 
2000
23DE
2252
2252
ABDE
A800
A9FC
A924
A9FC
A924
A9FC
B820
CBFE
0020
0020
0020
ENDCHAR
STARTCHAR U_3807
ENCODING 14343
SWIDTH 1000 0
DWIDTH 16 0
BBX 16 16 0 -2
BITMAP 
0100
2108
2108
3FF8
2050
1048
FE48
01FE
7C50
4450
7C50
1050
5450
5292
9292
310E
ENDCHAR
STARTCHAR U_3808
ENCODING 14344
SWIDTH 1000 0
DWIDTH 16 0
BBX 16 16 0 -2
BITMAP 
2000
23DE
2252
23DE
AA52
ABDE
AA02
AAFA
AA22
AA72
AA22
BA22
CAFA
0202
020A
0204
ENDCHAR
STARTCHAR U_3809
ENCODING 14345
SWIDTH 1000 0
DWIDTH 16 0
BBX 16 16 0 -2
BITMAP 
1020
11FC
1088
1050
55FE
5400
55FC
5524
55FC
5524
55FC
5C20
65FC
0020
03FE
0000
ENDCHAR
STARTCHAR U_380A
ENCODING 14346
SWIDTH 1000 0
DWIDTH 16 0
BBX 16 16 0 -2
BITMAP 
2040
207C
2040
23FE
AA42
AA78
ABC4
AA3C
AA00
AA50
AA54
BB54
C4D8
0450
09FE
0000
ENDCHAR
STARTCHAR U_380B
ENCODING 14347
SWIDTH 1000 0
DWIDTH 16 0
BBX 16 16 0 -2
BITMAP 
2108
3FF8
0000
1FF0
1010
7FFC
4444
7C7C
0000
3FF8
0000
FFFE
1000
1FF8
0008
0070
ENDCHAR
STARTCHAR U_380C
ENCODING 14348
SWIDTH 1000 0
DWIDTH 16 0
BBX 16 16 0 -2
BITMAP 
0100
2108
2108
3FF8
0020
2220
FFBE
2242
3E94
2210
3E10
2210
FFA8
2428
4244
8282
ENDCHAR
STARTCHAR U_380D
ENCODING 14349
SWIDTH 1000 0
DWIDTH 16 0
BBX 16 16 0 -2
BITMAP 
0100
4104
7FFC
0880
1FFC
3080
5FF8
9080
1FF8
1080
1FFC
1100
7FFC
0540
1930
E10E
ENDCHAR
STARTCHAR U_380E
ENCODING 14350
SWIDTH 1000 0
DWIDTH 16 0
BBX 16 16 0 -2
BITMAP 
20A0
2090
21FE
2320
A9FC
A920
A9FC
A920
A9FE
A900
A820
BBFE
C870
00A8
0326
0020
ENDCHAR
STARTCHAR U_380F
ENCODING 14351
SWIDTH 1000 0
DWIDTH 16 0
BBX 16 16 0 -2
BITMAP 
1088
13FE
1088
1000
55FC
54A8
54A8
57FE
54A8
54A8
55FC
5C20
63FE
0020
0020
0020
ENDCHAR
STARTCHAR U_3810
ENCODING 14352
SWIDTH 1000 0
DWIDTH 16 0
BBX 16 16 0 -2
BITMAP 
0100
4104
7FFC
0000
0070
1F80
0200
FFFE
0820
37D8
C446
3FF8
2008
27C8
2448
27D8
ENDCHAR
STARTCHAR U_3811
ENCODING 14353
SWIDTH 1000 0
DWIDTH 16 0
BBX 16 16 0 -2
BITMAP 
0100
2108
2108
3FF8
0000
3FF8
2448
3FF8
0280
7EFC
0280
3EF8
0280
7EFC
0280
0280
ENDCHAR
STARTCHAR U_3812
ENCODING 14354
SWIDTH 1000 0
DWIDTH 16 0
BBX 16 16 0 -2
BITMAP 
2002
2FE2
2282
2FEA
AAAA
AAAA
AFEA
A80A
ABCA
A80A
AFEA
B90A
C542
0522
092A
0304
ENDCHAR
STARTCHAR U_3813
ENCODING 14355
SWIDTH 1000 0
DWIDTH 16 0
BBX 16 16 0 -2
BITMAP 
2088
23FE
2088
23FE
AA02
A9FC
A800
ABFE
A840
A8A2
AB54
B8B8
CB54
0092
0350
0020
ENDCHAR
STARTCHAR U_3814
ENCODING 14356
SWIDTH 1000 0
DWIDTH 16 0
BBX 16 16 0 -2
BITMAP 
0100
2108
2108
3FF8
0040
3E20
22FC
2288
3E50
21FE
2020
3E20
52FC
5220
9E20
1220
ENDCHAR
STARTCHAR U_3815
ENCODING 14357
SWIDTH 1000 0
DWIDTH 16 0
BBX 16 16 0 -2
BITMAP 
0100
4104
7FFC
0040
7880
4BF8
5248
63F8
5248
4BF8
4848
68B4
50BC
4122
4222
441E
ENDCHAR
STARTCHAR U_3816
ENCODING 14358
SWIDTH 1000 0
DWIDTH 16 0
BBX 16 16 0 -2
BITMAP 
4104
7FFC
0820
7FFC
0100
3FF8
0100
FFFE
0240
3C50
0848
FFFE
0850
7E24
0854
198C
ENDCHAR
STARTCHAR U_3817
ENCODING 14359
SWIDTH 1000 0
DWIDTH 16 0
BBX 16 16 0 -2
BITMAP 
2040
2080
23FE
2222
AAAA
AA22
ABFE
AA72
AAAA
AA02
A820
BBFE
C850
0088
0104
0602
ENDCHAR
STARTCHAR U_3818
ENCODING 14360
SWIDTH 1000 0
DWIDTH 16 0
BBX 16 16 0 -2
BITMAP 
0100
2108
2108
3FF8
0A00
33B8
2208
3A38
2388
2088
3AB8
2288
FFFE
0820
1010
2008
ENDCHAR
ENDFONT
